<?xml version="1.0" encoding="UTF-8"?>
<!DOCTYPE svg PUBLIC "-//W3C//DTD SVG 1.1//EN" "http://www.w3.org/Graphics/SVG/1.1/DTD/svg11.dtd">
<svg xmlns="http://www.w3.org/2000/svg" version="1.1" width="200px" height="200px" style="shape-rendering:geometricPrecision; text-rendering:geometricPrecision; image-rendering:optimizeQuality; fill-rule:evenodd; clip-rule:evenodd" xmlns:xlink="http://www.w3.org/1999/xlink">
<g><path style="opacity:1" fill="#a8bac5" d="M 182.5,47.5 C 180.983,47.4894 179.816,46.8228 179,45.5C 176.718,41.2823 173.718,37.6156 170,34.5C 171.707,38.3948 173.874,42.2281 176.5,46C 175.622,48.5899 175.622,50.9232 176.5,53C 175.874,53.7504 175.374,54.5838 175,55.5C 174.667,55.1667 174.333,54.8333 174,54.5C 173.137,57.4971 171.47,60.1638 169,62.5C 167.434,61.9394 166.101,62.6061 165,64.5C 164.667,63.5 164.333,62.5 164,61.5C 163,62.8333 162,64.1667 161,65.5C 160.641,62.4557 159.974,62.1224 159,64.5C 157.527,64.8679 156.027,64.3679 154.5,63C 153.638,60.2656 152.805,60.0989 152,62.5C 150.345,62.1976 149.012,60.8642 148,58.5C 147.667,58.8333 147.333,59.1667 147,59.5C 143.172,56.5852 139.172,53.9186 135,51.5C 134.667,51.8333 134.333,52.1667 134,52.5C 132.54,50.5776 130.873,49.9109 129,50.5C 126.727,48.5042 123.727,46.8375 120,45.5C 118.732,45.6158 117.398,45.9491 116,46.5C 114.604,44.4732 112.938,44.1398 111,45.5C 109.333,44.8333 107.667,44.1667 106,43.5C 102.824,43.6465 99.157,44.3131 95,45.5C 93.8525,44.5419 92.8525,44.8753 92,46.5C 88.9074,45.1062 86.2408,45.7728 84,48.5C 83.586,48.0426 83.086,47.7093 82.5,47.5C 75.3778,49.6922 70.3778,53.6922 67.5,59.5C 67.2792,62.0972 66.7792,62.0972 66,59.5C 65.5172,60.448 65.3505,61.448 65.5,62.5C 64.8333,61.8333 64.1667,61.1667 63.5,60.5C 63.1667,59.8333 62.8333,59.1667 62.5,58.5C 63.3382,58.1583 63.6716,57.4916 63.5,56.5C 70.6057,50.1906 78.7723,45.524 88,42.5C 88.3333,42.8333 88.6667,43.1667 89,43.5C 92.6778,42.4187 96.6778,41.4187 101,40.5C 104.176,40.6465 107.843,41.3131 112,42.5C 113,42.1667 114,41.8333 115,41.5C 116.705,42.7633 118.372,43.0966 120,42.5C 120.317,44.3008 120.984,44.6341 122,43.5C 124.831,43.9583 127.164,45.2916 129,47.5C 131.091,46.5004 132.757,47.1671 134,49.5C 134.333,49.1667 134.667,48.8333 135,48.5C 137.104,50.7384 139.438,51.7384 142,51.5C 142.442,53.6785 143.442,54.3452 145,53.5C 147.627,54.3136 149.96,55.6469 152,57.5C 153.714,56.0745 155.047,56.4078 156,58.5C 156.667,55.8333 157.333,55.8333 158,58.5C 159.097,56.9474 160.43,55.614 162,54.5C 162.626,56.9913 163.459,56.9913 164.5,54.5C 166.766,55.5568 168.766,55.0568 170.5,53C 170.167,52.6667 169.833,52.3333 169.5,52C 170.5,51 171.5,50 172.5,49C 169.833,48.3333 169.833,47.6667 172.5,47C 168.212,37.3745 161.712,29.5412 153,23.5C 152,23.5 151,23.5 150,23.5C 148.008,20.9303 145.842,19.2636 143.5,18.5C 142.817,18.8627 142.15,19.1961 141.5,19.5C 141.141,17.5154 140.308,16.8487 139,17.5C 137.055,15.8186 135.055,15.152 133,15.5C 132.147,13.8753 131.147,13.5419 130,14.5C 127.391,13.8724 124.725,12.8724 122,11.5C 106.365,10.5184 90.0314,10.5184 73,11.5C 68.8258,12.9206 64.6591,14.4206 60.5,16C 49.0877,22.9118 39.4211,31.7451 31.5,42.5C 30.7375,43.2679 29.7375,43.7679 28.5,44C 28.8333,44.3333 29.1667,44.6667 29.5,45C 27.6243,45.9184 26.6243,47.4184 26.5,49.5C 26.2914,50.9217 25.7914,52.255 25,53.5C 24.6667,52.8333 24.3333,52.1667 24,51.5C 23.3632,53.3031 22.1965,54.6364 20.5,55.5C 19.8721,57.2581 18.8721,58.7581 17.5,60C 17.8333,60.3333 18.1667,60.6667 18.5,61C 17.552,61.4828 16.552,61.6495 15.5,61.5C 14.5233,63.8209 13.5233,66.1542 12.5,68.5C 11.73,65.6169 12.5634,62.9503 15,60.5C 15.8365,58.1788 16.1699,55.8454 16,53.5C 13.455,57.7926 11.2883,62.2926 9.5,67C 9.16389,68.0299 8.49722,68.5299 7.5,68.5C 20.7428,32.0925 46.4095,10.2592 84.5,3C 126.328,-1.91344 158.994,12.9199 182.5,47.5 Z"/></g>
<g><path style="opacity:1" fill="#aebfcb" d="M 141.5,19.5 C 139.153,19.8815 136.82,19.2148 134.5,17.5C 133.817,17.8627 133.15,18.1961 132.5,18.5C 131.167,18.1667 129.833,17.8333 128.5,17.5C 126.898,15.9261 124.898,15.2594 122.5,15.5C 120.167,15.5 117.833,15.5 115.5,15.5C 114.378,14.8442 113.045,14.5108 111.5,14.5C 109.667,14.5854 108.334,15.2521 107.5,16.5C 106.833,16.5 106.167,16.5 105.5,16.5C 104.082,14.6921 102.082,14.0254 99.5,14.5C 98.5,14.5 97.5,14.5 96.5,14.5C 96.631,13.7611 96.4643,13.0944 96,12.5C 91.1398,12.8875 86.1398,12.8875 81,12.5C 62.5323,15.4596 47.699,24.4596 36.5,39.5C 35.0603,40.9524 33.3936,41.9524 31.5,42.5C 39.4211,31.7451 49.0877,22.9118 60.5,16C 64.6591,14.4206 68.8258,12.9206 73,11.5C 90.0314,10.5184 106.365,10.5184 122,11.5C 124.725,12.8724 127.391,13.8724 130,14.5C 131.147,13.5419 132.147,13.8753 133,15.5C 135.055,15.152 137.055,15.8186 139,17.5C 140.308,16.8487 141.141,17.5154 141.5,19.5 Z"/></g>
<g><path style="opacity:1" fill="#b4c4cd" d="M 96.5,14.5 C 92.7291,14.7084 89.2291,14.7084 86,14.5C 83.6667,15.1667 81.3333,15.8333 79,16.5C 70.8182,16.5059 62.9848,19.1725 55.5,24.5C 49.2189,29.1477 43.5522,34.4811 38.5,40.5C 38.8627,41.1835 39.1961,41.8501 39.5,42.5C 36.8046,45.5256 34.1379,48.5256 31.5,51.5C 30.5429,48.8501 28.8762,48.1834 26.5,49.5C 26.6243,47.4184 27.6243,45.9184 29.5,45C 29.1667,44.6667 28.8333,44.3333 28.5,44C 29.7375,43.7679 30.7375,43.2679 31.5,42.5C 33.3936,41.9524 35.0603,40.9524 36.5,39.5C 47.699,24.4596 62.5323,15.4596 81,12.5C 86.1398,12.8875 91.1398,12.8875 96,12.5C 96.4643,13.0944 96.631,13.7611 96.5,14.5 Z"/></g>
<g><path style="opacity:1" fill="#e2e8ec" d="M 99.5,14.5 C 102.082,14.0254 104.082,14.6921 105.5,16.5C 103.214,16.405 101.214,15.7384 99.5,14.5 Z"/></g>
<g><path style="opacity:1" fill="#dbe3e8" d="M 115.5,15.5 C 112.941,15.1984 110.607,15.5318 108.5,16.5C 108.167,16.5 107.833,16.5 107.5,16.5C 108.334,15.2521 109.667,14.5854 111.5,14.5C 113.045,14.5108 114.378,14.8442 115.5,15.5 Z"/></g>
<g><path style="opacity:1" fill="#d5dee4" d="M 128.5,17.5 C 129.833,17.8333 131.167,18.1667 132.5,18.5C 136.113,20.6442 139.779,22.8109 143.5,25C 145.041,26.3712 146.375,27.8712 147.5,29.5C 141.178,25.999 134.511,23.1657 127.5,21C 126.015,19.2435 126.348,18.0768 128.5,17.5 Z"/></g>
<g><path style="opacity:1" fill="#fcfcfc" d="M 70.5,23.5 C 72.9248,23.684 72.9248,24.3507 70.5,25.5C 72.1322,25.2385 73.2988,26.2385 74,28.5C 74.6667,25.8333 75.3333,25.8333 76,28.5C 76.3333,27.8333 76.6667,27.1667 77,26.5C 77.6667,27.8333 78.3333,29.1667 79,30.5C 79.3076,29.6919 79.8076,29.0253 80.5,28.5C 82.1965,29.3636 83.3632,30.6969 84,32.5C 84.9745,30.1224 85.6411,30.4557 86,33.5C 86.3589,30.4557 87.0255,30.1224 88,32.5C 88.3333,31.8333 88.6667,31.1667 89,30.5C 90.1036,31.3943 91.2702,32.3943 92.5,33.5C 75.9217,36.1205 61.9217,43.4538 50.5,55.5C 49.0937,55.9731 48.427,56.9731 48.5,58.5C 47.5,59.1667 46.5,59.8333 45.5,60.5C 43.9318,58.0688 42.4318,58.0688 41,60.5C 39.1129,58.9739 38.1129,56.9739 38,54.5C 37.5811,58.8518 36.9145,59.1851 36,55.5C 34.8403,57.797 33.8403,57.4637 33,54.5C 32,55.5 31,56.5 30,57.5C 29.5357,56.9056 29.369,56.2389 29.5,55.5C 30.6005,54.3951 31.2671,53.0618 31.5,51.5C 34.1379,48.5256 36.8046,45.5256 39.5,42.5C 48.0892,33.3697 58.4225,27.0364 70.5,23.5 Z"/></g>
<g><path style="opacity:1" fill="#bdcbd3" d="M 96.5,14.5 C 97.5,14.5 98.5,14.5 99.5,14.5C 101.214,15.7384 103.214,16.405 105.5,16.5C 106.167,16.5 106.833,16.5 107.5,16.5C 107.833,16.5 108.167,16.5 108.5,16.5C 112.803,17.6064 117.136,18.6064 121.5,19.5C 122.429,18.3112 122.762,16.9778 122.5,15.5C 124.898,15.2594 126.898,15.9261 128.5,17.5C 126.348,18.0768 126.015,19.2435 127.5,21C 134.511,23.1657 141.178,25.999 147.5,29.5C 149.017,29.5106 150.184,30.1772 151,31.5C 152.84,30.1669 153.34,30.3335 152.5,32C 156.049,33.7176 158.716,35.7176 160.5,38C 159.167,38.6667 157.833,39.3333 156.5,40C 161.83,43.3951 161.33,45.8951 155,47.5C 153.434,48.0606 152.101,47.3939 151,45.5C 149.667,48.1667 148.333,48.1667 147,45.5C 146.667,45.8333 146.333,46.1667 146,46.5C 143.731,44.7313 141.398,44.0647 139,44.5C 137.116,43.0231 135.116,41.6898 133,40.5C 131.984,41.6341 131.317,41.3008 131,39.5C 130.667,39.8333 130.333,40.1667 130,40.5C 127.731,38.7313 125.398,38.0647 123,38.5C 122.147,36.8753 121.147,36.5419 120,37.5C 116.72,36.9052 113.387,35.9052 110,34.5C 108.126,36.7759 106.459,36.4425 105,33.5C 103.384,34.5448 101.717,35.5448 100,36.5C 97.5676,35.7071 95.2342,35.3737 93,35.5C 91.6764,36.8802 90.3431,37.2135 89,36.5C 79.5723,38.9563 70.4056,43.4563 61.5,50C 59.7384,51.762 59.0717,53.5953 59.5,55.5C 60.5932,57.5673 60.0932,58.234 58,57.5C 56.5682,59.9312 55.0682,59.9312 53.5,57.5C 52.5,56.8333 51.5,56.1667 50.5,55.5C 61.9217,43.4538 75.9217,36.1205 92.5,33.5C 98.1064,32.5931 103.773,32.2598 109.5,32.5C 110.5,31.1667 111.5,31.1667 112.5,32.5C 114.833,32.5 117.167,32.5 119.5,32.5C 120.568,33.4345 121.901,33.7678 123.5,33.5C 123.167,29.5 122.833,25.5 122.5,21.5C 119.545,20.8413 116.545,20.5079 113.5,20.5C 111.643,19.2463 109.643,19.2463 107.5,20.5C 106.833,19.8333 106.167,19.1667 105.5,18.5C 104.893,18.6236 104.56,18.9569 104.5,19.5C 104.167,19.5 103.833,19.5 103.5,19.5C 99.1667,18.1667 94.8333,18.1667 90.5,19.5C 88.2646,19.2053 86.2646,19.5386 84.5,20.5C 79.5233,20.5812 74.8566,21.5812 70.5,23.5C 58.4225,27.0364 48.0892,33.3697 39.5,42.5C 39.1961,41.8501 38.8627,41.1835 38.5,40.5C 43.5522,34.4811 49.2189,29.1477 55.5,24.5C 62.9848,19.1725 70.8182,16.5059 79,16.5C 81.3333,15.8333 83.6667,15.1667 86,14.5C 89.2291,14.7084 92.7291,14.7084 96.5,14.5 Z"/></g>
<g><path style="opacity:1" fill="#d1dbe2" d="M 144.5,31.5 C 148.318,33.129 150.651,35.629 151.5,39C 150.953,39.9246 150.287,40.7579 149.5,41.5C 147.22,40.8641 145.22,39.8641 143.5,38.5C 144.509,37.0609 144.176,35.7276 142.5,34.5C 143.193,33.4822 143.859,32.4822 144.5,31.5 Z"/></g>
<g><path style="opacity:1" fill="#f0f3f3" d="M 119.5,32.5 C 117.167,32.5 114.833,32.5 112.5,32.5C 111.962,30.8828 111.629,29.2161 111.5,27.5C 111.435,27.0618 111.601,26.7284 112,26.5C 112.667,29.1667 113.333,29.1667 114,26.5C 114.84,29.4637 115.84,29.797 117,27.5C 117.667,30.1667 118.333,30.1667 119,27.5C 120.067,28.9431 121.234,30.2764 122.5,31.5C 121.675,32.3857 120.675,32.719 119.5,32.5 Z"/></g>
<g><path style="opacity:1" fill="#e2e8ec" d="M 144.5,31.5 C 143.859,32.4822 143.193,33.4822 142.5,34.5C 144.176,35.7276 144.509,37.0609 143.5,38.5C 137.913,36.9153 132.247,35.582 126.5,34.5C 126.335,30.8183 126.501,27.1516 127,23.5C 132.994,25.7458 138.827,28.4125 144.5,31.5 Z"/></g>
<g><path style="opacity:1" fill="#f2f4f5" d="M 84.5,20.5 C 86.1032,21.5964 87.6032,22.9297 89,24.5C 90,24.1667 91,23.8333 92,23.5C 92.6667,26.1667 93.3333,26.1667 94,23.5C 94.6667,26.1667 95.3333,26.1667 96,23.5C 97,24.5 98,25.5 99,26.5C 99.6667,23.8333 100.333,23.8333 101,26.5C 101.333,25.8333 101.667,25.1667 102,24.5C 102.615,26.1161 103.615,27.4495 105,28.5C 106.487,27.7471 106.654,26.9138 105.5,26C 106.094,25.5357 106.761,25.369 107.5,25.5C 108.566,27.7014 109.233,30.0347 109.5,32.5C 103.773,32.2598 98.1064,32.5931 92.5,33.5C 91.2702,32.3943 90.1036,31.3943 89,30.5C 88.6667,31.1667 88.3333,31.8333 88,32.5C 87.0255,30.1224 86.3589,30.4557 86,33.5C 85.6411,30.4557 84.9745,30.1224 84,32.5C 83.3632,30.6969 82.1965,29.3636 80.5,28.5C 79.8076,29.0253 79.3076,29.6919 79,30.5C 78.3333,29.1667 77.6667,27.8333 77,26.5C 76.6667,27.1667 76.3333,27.8333 76,28.5C 75.3333,25.8333 74.6667,25.8333 74,28.5C 73.2988,26.2385 72.1322,25.2385 70.5,25.5C 72.9248,24.3507 72.9248,23.684 70.5,23.5C 74.8566,21.5812 79.5233,20.5812 84.5,20.5 Z"/></g>
<g><path style="opacity:1" fill="#e1e7ec" d="M 113.5,20.5 C 116.545,20.5079 119.545,20.8413 122.5,21.5C 122.833,25.5 123.167,29.5 123.5,33.5C 121.901,33.7678 120.568,33.4345 119.5,32.5C 120.675,32.719 121.675,32.3857 122.5,31.5C 121.234,30.2764 120.067,28.9431 119,27.5C 118.333,30.1667 117.667,30.1667 117,27.5C 115.84,29.797 114.84,29.4637 114,26.5C 113.333,29.1667 112.667,29.1667 112,26.5C 111.601,26.7284 111.435,27.0618 111.5,27.5C 110.432,25.3282 109.932,22.9949 110,20.5C 111.349,23.0704 112.516,23.0704 113.5,20.5 Z"/></g>
<g><path style="opacity:1" fill="#c8d4dc" d="M 104.5,19.5 C 104.56,18.9569 104.893,18.6236 105.5,18.5C 106.167,19.1667 106.833,19.8333 107.5,20.5C 109.643,19.2463 111.643,19.2463 113.5,20.5C 112.516,23.0704 111.349,23.0704 110,20.5C 109.932,22.9949 110.432,25.3282 111.5,27.5C 111.629,29.2161 111.962,30.8828 112.5,32.5C 111.5,31.1667 110.5,31.1667 109.5,32.5C 109.233,30.0347 108.566,27.7014 107.5,25.5C 107.008,23.1815 106.008,21.1815 104.5,19.5 Z"/></g>
<g><path style="opacity:1" fill="#e3e9ed" d="M 90.5,19.5 C 95.6859,20.1347 100.019,20.1347 103.5,19.5C 103.833,19.5 104.167,19.5 104.5,19.5C 106.008,21.1815 107.008,23.1815 107.5,25.5C 106.761,25.369 106.094,25.5357 105.5,26C 106.654,26.9138 106.487,27.7471 105,28.5C 103.615,27.4495 102.615,26.1161 102,24.5C 101.667,25.1667 101.333,25.8333 101,26.5C 100.333,23.8333 99.6667,23.8333 99,26.5C 98,25.5 97,24.5 96,23.5C 95.3333,26.1667 94.6667,26.1667 94,23.5C 93.3333,26.1667 92.6667,26.1667 92,23.5C 91,23.8333 90,24.1667 89,24.5C 87.6032,22.9297 86.1032,21.5964 84.5,20.5C 86.2646,19.5386 88.2646,19.2053 90.5,19.5 Z"/></g>
<g><path style="opacity:1" fill="#d1dce2" d="M 90.5,19.5 C 94.8333,18.1667 99.1667,18.1667 103.5,19.5C 100.019,20.1347 95.6859,20.1347 90.5,19.5 Z"/></g>
<g><path style="opacity:1" fill="#f6f8f9" d="M 108.5,16.5 C 110.607,15.5318 112.941,15.1984 115.5,15.5C 117.833,15.5 120.167,15.5 122.5,15.5C 122.762,16.9778 122.429,18.3112 121.5,19.5C 117.136,18.6064 112.803,17.6064 108.5,16.5 Z"/></g>
<g><path style="opacity:1" fill="#b4c4cd" d="M 141.5,19.5 C 141.369,20.3764 141.702,21.0431 142.5,21.5C 155.678,27.8802 164.011,35.7135 167.5,45C 164.352,46.841 164.352,49.1744 167.5,52C 167.167,52.1667 166.833,52.3333 166.5,52.5C 165.575,51.3595 164.741,51.3595 164,52.5C 162.386,49.1749 160.386,48.8415 158,51.5C 157,51.1667 156,50.8333 155,50.5C 154.333,53.1667 153.667,53.1667 153,50.5C 151.899,52.3939 150.566,53.0606 149,52.5C 135.825,44.8997 121.825,39.8997 107,37.5C 105,38.1667 103,38.8333 101,39.5C 96.7738,39.047 92.4405,39.047 88,39.5C 87.6827,41.3008 87.016,41.6341 86,40.5C 79.0604,42.7751 72.5604,45.9417 66.5,50C 64.5433,51.7456 63.5433,53.9122 63.5,56.5C 63.6716,57.4916 63.3382,58.1583 62.5,58.5C 61.8999,57.0998 60.8999,56.0998 59.5,55.5C 59.0717,53.5953 59.7384,51.762 61.5,50C 70.4056,43.4563 79.5723,38.9563 89,36.5C 90.3431,37.2135 91.6764,36.8802 93,35.5C 95.2342,35.3737 97.5676,35.7071 100,36.5C 101.717,35.5448 103.384,34.5448 105,33.5C 106.459,36.4425 108.126,36.7759 110,34.5C 113.387,35.9052 116.72,36.9052 120,37.5C 121.147,36.5419 122.147,36.8753 123,38.5C 125.398,38.0647 127.731,38.7313 130,40.5C 130.333,40.1667 130.667,39.8333 131,39.5C 131.317,41.3008 131.984,41.6341 133,40.5C 135.116,41.6898 137.116,43.0231 139,44.5C 141.398,44.0647 143.731,44.7313 146,46.5C 146.333,46.1667 146.667,45.8333 147,45.5C 148.333,48.1667 149.667,48.1667 151,45.5C 152.101,47.3939 153.434,48.0606 155,47.5C 161.33,45.8951 161.83,43.3951 156.5,40C 157.833,39.3333 159.167,38.6667 160.5,38C 158.716,35.7176 156.049,33.7176 152.5,32C 153.34,30.3335 152.84,30.1669 151,31.5C 150.184,30.1772 149.017,29.5106 147.5,29.5C 146.375,27.8712 145.041,26.3712 143.5,25C 139.779,22.8109 136.113,20.6442 132.5,18.5C 133.15,18.1961 133.817,17.8627 134.5,17.5C 136.82,19.2148 139.153,19.8815 141.5,19.5 Z"/></g>
<g><path style="opacity:1" fill="#a3b6c3" d="M 182.5,47.5 C 181.995,49.7502 182.662,51.9169 184.5,54C 183.169,55.659 181.835,57.3257 180.5,59C 181.422,61.4655 181.422,63.7988 180.5,66C 181.167,66.3333 181.833,66.6667 182.5,67C 182.167,68 181.833,69 181.5,70C 182.992,74.0536 184.659,78.3869 186.5,83C 186.167,83.3333 185.833,83.6667 185.5,84C 187.7,88.354 189.034,92.6873 189.5,97C 189.968,102.538 189.968,108.204 189.5,114C 190.167,116 190.833,118 191.5,120C 191.365,123.586 191.032,127.086 190.5,130.5C 190.565,130.062 190.399,129.728 190,129.5C 189.667,130.167 189.333,130.833 189,131.5C 188.167,130 187,128.833 185.5,128C 186.167,127.667 186.833,127.333 187.5,127C 186.167,126 184.833,125 183.5,124C 184.167,123.667 184.833,123.333 185.5,123C 184.584,122.722 183.918,122.222 183.5,121.5C 184.625,120.986 185.791,120.653 187,120.5C 186.795,115.203 186.962,110.369 187.5,106C 185.306,103.398 184.639,100.564 185.5,97.5C 185.471,95.9707 184.804,94.804 183.5,94C 184.572,90.9556 183.906,88.2889 181.5,86C 182.727,84.4126 182.394,83.0793 180.5,82C 180.833,81.6667 181.167,81.3333 181.5,81C 180.137,76.4823 177.97,71.9823 175,67.5C 173.605,68.8146 172.605,68.4812 172,66.5C 170.445,68.1458 168.779,68.4791 167,67.5C 166.333,70.1667 165.667,70.1667 165,67.5C 164.667,68.1667 164.333,68.8333 164,69.5C 157.364,69.3895 151.364,67.0561 146,62.5C 145.667,62.8333 145.333,63.1667 145,63.5C 143.43,62.386 142.097,61.0526 141,59.5C 139.251,60.299 137.918,59.6324 137,57.5C 136.667,57.8333 136.333,58.1667 136,58.5C 133.04,56.1127 130.374,54.1127 128,52.5C 126.657,53.2135 125.324,52.8802 124,51.5C 122.333,51.5 120.667,51.5 119,51.5C 117.445,49.8542 115.779,49.5209 114,50.5C 113.311,49.6433 112.478,48.9767 111.5,48.5C 109.614,48.9281 107.781,49.2614 106,49.5C 105.055,49.0946 104.388,48.428 104,47.5C 103.333,50.1667 102.667,50.1667 102,47.5C 101.333,50.1667 100.667,50.1667 100,47.5C 99.3333,50.1667 98.6667,50.1667 98,47.5C 97.6667,48.1667 97.3333,48.8333 97,49.5C 95.6015,48.9491 94.2682,48.6158 93,48.5C 92.3333,51.1667 91.6667,51.1667 91,48.5C 90.6827,50.3008 90.016,50.6341 89,49.5C 87.2118,50.3578 85.3785,51.3578 83.5,52.5C 82.1575,51.0977 81.3242,51.4311 81,53.5C 79.6667,53.5 78.3333,53.5 77,53.5C 74.1971,56.0995 72.0304,58.4329 70.5,60.5C 69.609,59.8902 68.609,59.5569 67.5,59.5C 70.3778,53.6922 75.3778,49.6922 82.5,47.5C 83.086,47.7093 83.586,48.0426 84,48.5C 86.2408,45.7728 88.9074,45.1062 92,46.5C 92.8525,44.8753 93.8525,44.5419 95,45.5C 99.157,44.3131 102.824,43.6465 106,43.5C 107.667,44.1667 109.333,44.8333 111,45.5C 112.938,44.1398 114.604,44.4732 116,46.5C 117.398,45.9491 118.732,45.6158 120,45.5C 123.727,46.8375 126.727,48.5042 129,50.5C 130.873,49.9109 132.54,50.5776 134,52.5C 134.333,52.1667 134.667,51.8333 135,51.5C 139.172,53.9186 143.172,56.5852 147,59.5C 147.333,59.1667 147.667,58.8333 148,58.5C 149.012,60.8642 150.345,62.1976 152,62.5C 152.805,60.0989 153.638,60.2656 154.5,63C 156.027,64.3679 157.527,64.8679 159,64.5C 159.974,62.1224 160.641,62.4557 161,65.5C 162,64.1667 163,62.8333 164,61.5C 164.333,62.5 164.667,63.5 165,64.5C 166.101,62.6061 167.434,61.9394 169,62.5C 171.47,60.1638 173.137,57.4971 174,54.5C 174.333,54.8333 174.667,55.1667 175,55.5C 175.374,54.5838 175.874,53.7504 176.5,53C 175.622,50.9232 175.622,48.5899 176.5,46C 173.874,42.2281 171.707,38.3948 170,34.5C 173.718,37.6156 176.718,41.2823 179,45.5C 179.816,46.8228 180.983,47.4894 182.5,47.5 Z"/></g>
<g><path style="opacity:1" fill="#aebfca" d="M 63.5,56.5 C 63.5433,53.9122 64.5433,51.7456 66.5,50C 72.5604,45.9417 79.0604,42.7751 86,40.5C 87.016,41.6341 87.6827,41.3008 88,39.5C 92.4405,39.047 96.7738,39.047 101,39.5C 103,38.8333 105,38.1667 107,37.5C 121.825,39.8997 135.825,44.8997 149,52.5C 150.566,53.0606 151.899,52.3939 153,50.5C 153.667,53.1667 154.333,53.1667 155,50.5C 156,50.8333 157,51.1667 158,51.5C 160.386,48.8415 162.386,49.1749 164,52.5C 164.741,51.3595 165.575,51.3595 166.5,52.5C 166.833,52.3333 167.167,52.1667 167.5,52C 164.352,49.1744 164.352,46.841 167.5,45C 164.011,35.7135 155.678,27.8802 142.5,21.5C 141.702,21.0431 141.369,20.3764 141.5,19.5C 142.15,19.1961 142.817,18.8627 143.5,18.5C 145.842,19.2636 148.008,20.9303 150,23.5C 151,23.5 152,23.5 153,23.5C 161.712,29.5412 168.212,37.3745 172.5,47C 169.833,47.6667 169.833,48.3333 172.5,49C 171.5,50 170.5,51 169.5,52C 169.833,52.3333 170.167,52.6667 170.5,53C 168.766,55.0568 166.766,55.5568 164.5,54.5C 163.459,56.9913 162.626,56.9913 162,54.5C 160.43,55.614 159.097,56.9474 158,58.5C 157.333,55.8333 156.667,55.8333 156,58.5C 155.047,56.4078 153.714,56.0745 152,57.5C 149.96,55.6469 147.627,54.3136 145,53.5C 143.442,54.3452 142.442,53.6785 142,51.5C 139.438,51.7384 137.104,50.7384 135,48.5C 134.667,48.8333 134.333,49.1667 134,49.5C 132.757,47.1671 131.091,46.5004 129,47.5C 127.164,45.2916 124.831,43.9583 122,43.5C 120.984,44.6341 120.317,44.3008 120,42.5C 118.372,43.0966 116.705,42.7633 115,41.5C 114,41.8333 113,42.1667 112,42.5C 107.843,41.3131 104.176,40.6465 101,40.5C 96.6778,41.4187 92.6778,42.4187 89,43.5C 88.6667,43.1667 88.3333,42.8333 88,42.5C 78.7723,45.524 70.6057,50.1906 63.5,56.5 Z"/></g>
<g><path style="opacity:1" fill="#9fb3c0" d="M 183.5,121.5 C 182.034,120.653 181.2,119.32 181,117.5C 180.667,118.5 180.333,119.5 180,120.5C 179.64,118.392 178.973,116.392 178,114.5C 176.984,115.634 176.317,115.301 176,113.5C 174.853,114.458 173.853,114.125 173,112.5C 172.667,113.5 172.333,114.5 172,115.5C 171.389,113.25 170.056,111.583 168,110.5C 167.333,113.167 166.667,113.167 166,110.5C 164.434,109.939 163.101,110.606 162,112.5C 161.333,109.833 160.667,109.833 160,112.5C 159.667,111.833 159.333,111.167 159,110.5C 157.684,111.974 156.684,113.641 156,115.5C 155.086,111.815 154.419,112.148 154,116.5C 153.667,115.833 153.333,115.167 153,114.5C 150.944,115.583 149.611,117.25 149,119.5C 148.577,118.044 147.744,117.544 146.5,118C 143.923,120.237 141.756,122.737 140,125.5C 139.667,124.833 139.333,124.167 139,123.5C 137.274,125.228 135.941,127.228 135,129.5C 134.026,127.122 133.359,127.456 133,130.5C 131.951,129.483 130.784,129.316 129.5,130C 128.54,131.419 127.707,132.919 127,134.5C 125.984,133.366 125.317,133.699 125,135.5C 124.026,133.122 123.359,133.456 123,136.5C 122.333,133.833 121.667,133.833 121,136.5C 119.286,135.075 117.953,135.408 117,137.5C 115.667,134.833 114.333,134.833 113,137.5C 110.774,135.841 109.107,136.508 108,139.5C 107.581,138.328 106.915,137.328 106,136.5C 103.524,136.453 101.191,136.786 99,137.5C 98.3333,133.5 97.6667,133.5 97,137.5C 95.9292,133.959 94.2626,133.292 92,135.5C 91.3333,132.833 90.6667,132.833 90,135.5C 89.5811,131.148 88.9145,130.815 88,134.5C 87.6411,131.456 86.9745,131.122 86,133.5C 85.6411,130.456 84.9745,130.122 84,132.5C 83.6411,129.456 82.9745,129.122 82,131.5C 81.6411,128.456 80.9745,128.122 80,130.5C 79.1376,128.913 78.4709,127.246 78,125.5C 77.6667,126.5 77.3333,127.5 77,128.5C 71.7291,123.198 68.0625,116.865 66,109.5C 63.2656,108.638 63.0989,107.805 65.5,107C 62.8333,106.333 62.8333,105.667 65.5,105C 62.8333,104.333 62.8333,103.667 65.5,103C 62.8333,102.333 62.8333,101.667 65.5,101C 64.8333,100.667 64.1667,100.333 63.5,100C 66.9931,98.5219 67.3264,96.5219 64.5,94C 67.5443,93.6411 67.8776,92.9745 65.5,92C 68.1667,91.3333 68.1667,90.6667 65.5,90C 66.91,89.6322 67.91,88.7989 68.5,87.5C 68.3903,85.9018 68.057,84.2352 67.5,82.5C 69.9913,81.4593 69.9913,80.6259 67.5,80C 69.4096,79.5917 70.4096,78.4251 70.5,76.5C 67.9866,71.2228 67.9866,65.8894 70.5,60.5C 72.0304,58.4329 74.1971,56.0995 77,53.5C 78.3333,53.5 79.6667,53.5 81,53.5C 81.3242,51.4311 82.1575,51.0977 83.5,52.5C 85.3785,51.3578 87.2118,50.3578 89,49.5C 90.016,50.6341 90.6827,50.3008 91,48.5C 91.6667,51.1667 92.3333,51.1667 93,48.5C 94.2682,48.6158 95.6015,48.9491 97,49.5C 97.3333,48.8333 97.6667,48.1667 98,47.5C 98.6667,50.1667 99.3333,50.1667 100,47.5C 100.667,50.1667 101.333,50.1667 102,47.5C 102.667,50.1667 103.333,50.1667 104,47.5C 104.388,48.428 105.055,49.0946 106,49.5C 107.781,49.2614 109.614,48.9281 111.5,48.5C 112.478,48.9767 113.311,49.6433 114,50.5C 115.779,49.5209 117.445,49.8542 119,51.5C 120.667,51.5 122.333,51.5 124,51.5C 125.324,52.8802 126.657,53.2135 128,52.5C 130.374,54.1127 133.04,56.1127 136,58.5C 136.333,58.1667 136.667,57.8333 137,57.5C 137.918,59.6324 139.251,60.299 141,59.5C 142.097,61.0526 143.43,62.386 145,63.5C 145.333,63.1667 145.667,62.8333 146,62.5C 151.364,67.0561 157.364,69.3895 164,69.5C 164.333,68.8333 164.667,68.1667 165,67.5C 165.667,70.1667 166.333,70.1667 167,67.5C 168.779,68.4791 170.445,68.1458 172,66.5C 172.605,68.4812 173.605,68.8146 175,67.5C 177.97,71.9823 180.137,76.4823 181.5,81C 181.167,81.3333 180.833,81.6667 180.5,82C 182.394,83.0793 182.727,84.4126 181.5,86C 183.906,88.2889 184.572,90.9556 183.5,94C 184.804,94.804 185.471,95.9707 185.5,97.5C 184.639,100.564 185.306,103.398 187.5,106C 186.962,110.369 186.795,115.203 187,120.5C 185.791,120.653 184.625,120.986 183.5,121.5 Z"/></g>
<g><path style="opacity:1" fill="#f2f4f2" d="M 45.5,60.5 C 43.5879,62.6572 41.9213,64.9906 40.5,67.5C 40.1667,67.5 39.8333,67.5 39.5,67.5C 37.2921,66.977 35.7921,65.6437 35,63.5C 34.3333,66.1667 33.6667,66.1667 33,63.5C 31,68.8333 29,68.8333 27,63.5C 26.2208,66.0972 25.7208,66.0972 25.5,63.5C 26.1667,61.5 26.8333,59.5 27.5,57.5C 28.1667,56.8333 28.8333,56.1667 29.5,55.5C 29.369,56.2389 29.5357,56.9056 30,57.5C 31,56.5 32,55.5 33,54.5C 33.8403,57.4637 34.8403,57.797 36,55.5C 36.9145,59.1851 37.5811,58.8518 38,54.5C 38.1129,56.9739 39.1129,58.9739 41,60.5C 42.4318,58.0688 43.9318,58.0688 45.5,60.5 Z"/></g>
<g><path style="opacity:1" fill="#b3c0c0" d="M 31.5,51.5 C 31.2671,53.0618 30.6005,54.3951 29.5,55.5C 28.8333,56.1667 28.1667,56.8333 27.5,57.5C 25.5891,57.5743 24.4224,58.5743 24,60.5C 23.6667,59.8333 23.3333,59.1667 23,58.5C 22.6824,60.0609 21.8491,61.2276 20.5,62C 20.6191,63.1448 20.9524,64.3115 21.5,65.5C 20.603,66.5981 19.7697,66.5981 19,65.5C 17.887,66.7604 17.7203,67.927 18.5,69C 16.0228,70.705 14.6894,72.705 14.5,75C 14.8333,75.3333 15.1667,75.6667 15.5,76C 12.9613,77.0992 12.2946,78.7658 13.5,81C 13.0439,82.6702 11.7106,84.1702 9.5,85.5C 9.5,84.8333 9.16667,84.5 8.5,84.5C 8.06178,84.5654 7.72845,84.3988 7.5,84C 9.99134,83.3741 9.99134,82.5407 7.5,81.5C 8.92772,77.1853 10.5944,72.852 12.5,68.5C 13.5233,66.1542 14.5233,63.8209 15.5,61.5C 16.552,61.6495 17.552,61.4828 18.5,61C 18.1667,60.6667 17.8333,60.3333 17.5,60C 18.8721,58.7581 19.8721,57.2581 20.5,55.5C 22.1965,54.6364 23.3632,53.3031 24,51.5C 24.3333,52.1667 24.6667,52.8333 25,53.5C 25.7914,52.255 26.2914,50.9217 26.5,49.5C 28.8762,48.1834 30.5429,48.8501 31.5,51.5 Z"/></g>
<g><path style="opacity:1" fill="#acbdc9" d="M 182.5,47.5 C 184.56,50.2402 186.226,53.2402 187.5,56.5C 186.637,55.537 185.97,55.537 185.5,56.5C 186.04,57.7481 186.707,58.9148 187.5,60C 186.457,62.5405 185.791,64.8738 185.5,67C 190.971,83.0207 194.137,99.5207 195,116.5C 195.198,114.618 195.698,112.952 196.5,111.5C 195.833,121.819 193.166,131.486 188.5,140.5C 187.522,140.189 186.855,139.522 186.5,138.5C 186.952,135.253 188.285,132.586 190.5,130.5C 191.032,127.086 191.365,123.586 191.5,120C 190.833,118 190.167,116 189.5,114C 189.968,108.204 189.968,102.538 189.5,97C 189.034,92.6873 187.7,88.354 185.5,84C 185.833,83.6667 186.167,83.3333 186.5,83C 184.659,78.3869 182.992,74.0536 181.5,70C 181.833,69 182.167,68 182.5,67C 181.833,66.6667 181.167,66.3333 180.5,66C 181.422,63.7988 181.422,61.4655 180.5,59C 181.835,57.3257 183.169,55.659 184.5,54C 182.662,51.9169 181.995,49.7502 182.5,47.5 Z"/></g>
<g><path style="opacity:1" fill="#cbcebe" d="M 48.5,58.5 C 49.2312,58.9418 50.2312,59.1085 51.5,59C 50.2975,61.9046 48.9641,64.7379 47.5,67.5C 46.7784,67.9175 46.2784,68.5842 46,69.5C 45.5774,68.0439 44.7441,67.5439 43.5,68C 44.5532,69.7493 44.2199,71.2493 42.5,72.5C 42.1075,70.7162 41.4408,69.0495 40.5,67.5C 41.9213,64.9906 43.5879,62.6572 45.5,60.5C 46.5,59.8333 47.5,59.1667 48.5,58.5 Z"/></g>
<g><path style="opacity:1" fill="#c1c7bd" d="M 50.5,55.5 C 51.5,56.1667 52.5,56.8333 53.5,57.5C 53.0618,57.4346 52.7284,57.6012 52.5,58C 54.16,59.4877 55.16,61.321 55.5,63.5C 53.4586,65.6824 52.4586,68.0157 52.5,70.5C 51.2794,69.9717 50.1127,69.305 49,68.5C 48.6012,68.7284 48.4346,69.0618 48.5,69.5C 47.6618,69.1583 47.3284,68.4916 47.5,67.5C 48.9641,64.7379 50.2975,61.9046 51.5,59C 50.2312,59.1085 49.2312,58.9418 48.5,58.5C 48.427,56.9731 49.0937,55.9731 50.5,55.5 Z"/></g>
<g><path style="opacity:1" fill="#a4b5bd" d="M 67.5,59.5 C 68.609,59.5569 69.609,59.8902 70.5,60.5C 67.9866,65.8894 67.9866,71.2228 70.5,76.5C 70.4096,78.4251 69.4096,79.5917 67.5,80C 69.9913,80.6259 69.9913,81.4593 67.5,82.5C 68.057,84.2352 68.3903,85.9018 68.5,87.5C 67.91,88.7989 66.91,89.6322 65.5,90C 68.1667,90.6667 68.1667,91.3333 65.5,92C 67.8776,92.9745 67.5443,93.6411 64.5,94C 67.3264,96.5219 66.9931,98.5219 63.5,100C 64.1667,100.333 64.8333,100.667 65.5,101C 62.8333,101.667 62.8333,102.333 65.5,103C 62.8333,103.667 62.8333,104.333 65.5,105C 62.8333,105.667 62.8333,106.333 65.5,107C 63.0989,107.805 63.2656,108.638 66,109.5C 68.0625,116.865 71.7291,123.198 77,128.5C 77.3333,127.5 77.6667,126.5 78,125.5C 78.4709,127.246 79.1376,128.913 80,130.5C 80.9745,128.122 81.6411,128.456 82,131.5C 82.9745,129.122 83.6411,129.456 84,132.5C 84.9745,130.122 85.6411,130.456 86,133.5C 86.9745,131.122 87.6411,131.456 88,134.5C 88.9145,130.815 89.5811,131.148 90,135.5C 90.6667,132.833 91.3333,132.833 92,135.5C 94.2626,133.292 95.9292,133.959 97,137.5C 97.6667,133.5 98.3333,133.5 99,137.5C 101.191,136.786 103.524,136.453 106,136.5C 106.915,137.328 107.581,138.328 108,139.5C 109.107,136.508 110.774,135.841 113,137.5C 114.333,134.833 115.667,134.833 117,137.5C 117.953,135.408 119.286,135.075 121,136.5C 121.667,133.833 122.333,133.833 123,136.5C 123.359,133.456 124.026,133.122 125,135.5C 125.317,133.699 125.984,133.366 127,134.5C 127.707,132.919 128.54,131.419 129.5,130C 130.784,129.316 131.951,129.483 133,130.5C 133.359,127.456 134.026,127.122 135,129.5C 135.941,127.228 137.274,125.228 139,123.5C 139.333,124.167 139.667,124.833 140,125.5C 141.756,122.737 143.923,120.237 146.5,118C 147.744,117.544 148.577,118.044 149,119.5C 149.611,117.25 150.944,115.583 153,114.5C 153.333,115.167 153.667,115.833 154,116.5C 154.419,112.148 155.086,111.815 156,115.5C 156.684,113.641 157.684,111.974 159,110.5C 159.333,111.167 159.667,111.833 160,112.5C 160.667,109.833 161.333,109.833 162,112.5C 163.101,110.606 164.434,109.939 166,110.5C 166.667,113.167 167.333,113.167 168,110.5C 170.056,111.583 171.389,113.25 172,115.5C 172.333,114.5 172.667,113.5 173,112.5C 173.853,114.125 174.853,114.458 176,113.5C 176.317,115.301 176.984,115.634 178,114.5C 178.973,116.392 179.64,118.392 180,120.5C 180.333,119.5 180.667,118.5 181,117.5C 181.2,119.32 182.034,120.653 183.5,121.5C 183.918,122.222 184.584,122.722 185.5,123C 184.833,123.333 184.167,123.667 183.5,124C 184.833,125 186.167,126 187.5,127C 186.833,127.333 186.167,127.667 185.5,128C 187,128.833 188.167,130 189,131.5C 189.333,130.833 189.667,130.167 190,129.5C 190.399,129.728 190.565,130.062 190.5,130.5C 188.285,132.586 186.952,135.253 186.5,138.5C 186.855,139.522 187.522,140.189 188.5,140.5C 185.834,147.176 182.167,153.176 177.5,158.5C 177.297,156.61 177.963,155.11 179.5,154C 179.043,153.586 178.709,153.086 178.5,152.5C 179.613,149.508 180.946,146.675 182.5,144C 180.109,142.691 180.109,141.691 182.5,141C 181.751,137.537 181.751,134.203 182.5,131C 181.325,127.632 179.492,124.466 177,121.5C 176.667,122.167 176.333,122.833 176,123.5C 174.915,121.627 173.582,119.96 172,118.5C 171.026,120.878 170.359,120.544 170,117.5C 168.002,118.271 166.335,117.605 165,115.5C 164.683,117.301 164.016,117.634 163,116.5C 162.072,118.335 160.906,118.668 159.5,117.5C 158.522,117.977 157.689,118.643 157,119.5C 155.984,118.366 155.317,118.699 155,120.5C 154.667,120.167 154.333,119.833 154,119.5C 151.338,121.202 149.005,123.869 147,127.5C 146.667,126.833 146.333,126.167 146,125.5C 145.444,129.095 143.611,130.595 140.5,130C 141.654,130.914 141.487,131.747 140,132.5C 138.284,131.448 137.284,132.114 137,134.5C 135.284,133.448 134.284,134.114 134,136.5C 131.39,136.653 129.057,137.986 127,140.5C 124.909,139.5 123.243,140.167 122,142.5C 121.667,141.833 121.333,141.167 121,140.5C 120,141.5 119,142.5 118,143.5C 117.333,140.833 116.667,140.833 116,143.5C 113.989,142.283 111.989,142.616 110,144.5C 108.691,142.109 107.691,142.109 107,144.5C 104.614,142.909 101.947,141.909 99,141.5C 97.984,142.634 97.3173,142.301 97,140.5C 96.6667,141.167 96.3333,141.833 96,142.5C 90.2066,139.937 84.2066,136.937 78,133.5C 76.0573,133.959 74.724,132.959 74,130.5C 72.8525,131.458 71.8525,131.125 71,129.5C 70.6411,126.456 69.9745,126.122 69,128.5C 67.8029,124.531 65.3029,121.031 61.5,118C 61.9574,117.586 62.2907,117.086 62.5,116.5C 61.5,115.167 60.5,113.833 59.5,112.5C 60.9023,111.158 60.5689,110.324 58.5,110C 61.1667,109.333 61.1667,108.667 58.5,108C 59.7111,106.887 59.7111,105.72 58.5,104.5C 59.0933,102.618 59.7599,100.785 60.5,99C 59.3659,97.984 59.6992,97.3173 61.5,97C 59.5403,94.7151 59.8737,92.3818 62.5,90C 61.5676,87.4699 61.5676,84.8032 62.5,82C 65.1667,81.3333 65.1667,80.6667 62.5,80C 65.7626,79.1305 66.0959,77.7972 63.5,76C 66.1667,74.6667 66.1667,73.3333 63.5,72C 66.1667,71.3333 66.1667,70.6667 63.5,70C 66.1667,69.3333 66.1667,68.6667 63.5,68C 64.1667,67.6667 64.8333,67.3333 65.5,67C 65.2642,65.5491 65.2642,64.0491 65.5,62.5C 65.3505,61.448 65.5172,60.448 66,59.5C 66.7792,62.0972 67.2792,62.0972 67.5,59.5 Z"/></g>
<g><path style="opacity:1" fill="#b3c3cc" d="M 187.5,56.5 C 189.293,58.4261 190.293,60.7594 190.5,63.5C 189.778,63.0825 189.278,62.4158 189,61.5C 188.598,62.8721 188.098,64.2054 187.5,65.5C 191.165,78.6558 193.998,91.9892 196,105.5C 196.499,99.5092 196.666,93.5092 196.5,87.5C 197.813,95.4015 197.813,103.401 196.5,111.5C 195.698,112.952 195.198,114.618 195,116.5C 194.137,99.5207 190.971,83.0207 185.5,67C 185.791,64.8738 186.457,62.5405 187.5,60C 186.707,58.9148 186.04,57.7481 185.5,56.5C 185.97,55.537 186.637,55.537 187.5,56.5 Z"/></g>
<g><path style="opacity:1" fill="#a9b7b9" d="M 63.5,60.5 C 64.1667,61.1667 64.8333,61.8333 65.5,62.5C 65.2642,64.0491 65.2642,65.5491 65.5,67C 64.8333,67.3333 64.1667,67.6667 63.5,68C 66.1667,68.6667 66.1667,69.3333 63.5,70C 66.1667,70.6667 66.1667,71.3333 63.5,72C 66.1667,73.3333 66.1667,74.6667 63.5,76C 66.0959,77.7972 65.7626,79.1305 62.5,80C 65.1667,80.6667 65.1667,81.3333 62.5,82C 61.5676,84.8032 61.5676,87.4699 62.5,90C 59.8737,92.3818 59.5403,94.7151 61.5,97C 59.6992,97.3173 59.3659,97.984 60.5,99C 59.7599,100.785 59.0933,102.618 58.5,104.5C 59.7111,105.72 59.7111,106.887 58.5,108C 61.1667,108.667 61.1667,109.333 58.5,110C 60.5689,110.324 60.9023,111.158 59.5,112.5C 60.5,113.833 61.5,115.167 62.5,116.5C 62.2907,117.086 61.9574,117.586 61.5,118C 65.3029,121.031 67.8029,124.531 69,128.5C 69.9745,126.122 70.6411,126.456 71,129.5C 71.8525,131.125 72.8525,131.458 74,130.5C 74.724,132.959 76.0573,133.959 78,133.5C 84.2066,136.937 90.2066,139.937 96,142.5C 96.3333,141.833 96.6667,141.167 97,140.5C 97.3173,142.301 97.984,142.634 99,141.5C 101.947,141.909 104.614,142.909 107,144.5C 107.691,142.109 108.691,142.109 110,144.5C 111.989,142.616 113.989,142.283 116,143.5C 116.667,140.833 117.333,140.833 118,143.5C 119,142.5 120,141.5 121,140.5C 121.333,141.167 121.667,141.833 122,142.5C 123.243,140.167 124.909,139.5 127,140.5C 129.057,137.986 131.39,136.653 134,136.5C 134.284,134.114 135.284,133.448 137,134.5C 137.284,132.114 138.284,131.448 140,132.5C 141.487,131.747 141.654,130.914 140.5,130C 143.611,130.595 145.444,129.095 146,125.5C 146.333,126.167 146.667,126.833 147,127.5C 149.005,123.869 151.338,121.202 154,119.5C 154.333,119.833 154.667,120.167 155,120.5C 155.317,118.699 155.984,118.366 157,119.5C 157.689,118.643 158.522,117.977 159.5,117.5C 160.906,118.668 162.072,118.335 163,116.5C 164.016,117.634 164.683,117.301 165,115.5C 166.335,117.605 168.002,118.271 170,117.5C 170.359,120.544 171.026,120.878 172,118.5C 173.582,119.96 174.915,121.627 176,123.5C 176.333,122.833 176.667,122.167 177,121.5C 179.492,124.466 181.325,127.632 182.5,131C 181.751,134.203 181.751,137.537 182.5,141C 180.109,141.691 180.109,142.691 182.5,144C 180.946,146.675 179.613,149.508 178.5,152.5C 178.709,153.086 179.043,153.586 179.5,154C 177.963,155.11 177.297,156.61 177.5,158.5C 173.873,163.794 169.54,168.461 164.5,172.5C 164.389,171.883 164.056,171.383 163.5,171C 171.427,162.152 175.76,153.819 176.5,146C 178.725,142.422 178.725,139.089 176.5,136C 177.167,135.667 177.833,135.333 178.5,135C 177.103,133.69 176.103,132.19 175.5,130.5C 175.415,128.071 174.415,126.071 172.5,124.5C 171.28,123.289 170.113,123.289 169,124.5C 168,123.5 167,122.5 166,121.5C 164.333,121.5 162.667,121.5 161,121.5C 160.333,124.167 159.667,124.167 159,121.5C 158.333,125.5 157.667,125.5 157,121.5C 156.667,122.833 156.333,124.167 156,125.5C 155.667,124.833 155.333,124.167 155,123.5C 153.383,125.763 151.55,127.763 149.5,129.5C 147.432,130.493 145.265,132.159 143,134.5C 142.641,137.544 141.974,137.878 141,135.5C 140.333,136.833 139.667,138.167 139,139.5C 138.667,138.833 138.333,138.167 138,137.5C 137.29,138.973 136.124,139.64 134.5,139.5C 134.587,142.598 134.087,142.932 133,140.5C 132.641,143.544 131.974,143.878 131,141.5C 130.385,143.116 129.385,144.449 128,145.5C 126.732,145.384 125.398,145.051 124,144.5C 122.893,147.492 121.226,148.159 119,146.5C 117.518,148.781 115.851,148.781 114,146.5C 113.667,147.167 113.333,147.833 113,148.5C 109.028,147.588 105.361,147.588 102,148.5C 100.445,146.854 98.7785,146.521 97,147.5C 94.6405,146.941 92.3072,145.608 90,143.5C 88.984,144.634 88.3173,144.301 88,142.5C 87.0255,144.878 86.3589,144.544 86,141.5C 85.6667,142.167 85.3333,142.833 85,143.5C 84,142.167 83,140.833 82,139.5C 81.0255,141.878 80.3589,141.544 80,138.5C 79.6667,139.167 79.3333,139.833 79,140.5C 78.5581,138.321 77.5581,137.655 76,138.5C 70.6726,134.172 65.6726,129.506 61,124.5C 60.1515,121.302 58.6515,118.469 56.5,116C 57.6341,114.984 57.3008,114.317 55.5,114C 56.7732,111.759 56.4399,109.259 54.5,106.5C 54.6938,104.93 54.6938,103.43 54.5,102C 57.1667,101.333 57.1667,100.667 54.5,100C 57.1667,99.3333 57.1667,98.6667 54.5,98C 57.1667,97.3333 57.1667,96.6667 54.5,96C 55.5,95 56.5,94 57.5,93C 56.8333,92.6667 56.1667,92.3333 55.5,92C 56.5,91 57.5,90 58.5,89C 55.8333,88.3333 55.8333,87.6667 58.5,87C 58.0138,84.2717 58.6805,81.605 60.5,79C 60.1667,77.3333 59.8333,75.6667 59.5,74C 62.1667,73.3333 62.1667,72.6667 59.5,72C 60.8333,70.6667 60.8333,69.3333 59.5,68C 62.1667,67.3333 62.1667,66.6667 59.5,66C 61.3348,65.0723 61.6682,63.9056 60.5,62.5C 61.3569,61.5748 62.3569,60.9081 63.5,60.5 Z"/></g>
<g><path style="opacity:1" fill="#beccd4" d="M 190.5,63.5 C 194.046,71.0153 196.046,79.0153 196.5,87.5C 196.666,93.5092 196.499,99.5092 196,105.5C 193.998,91.9892 191.165,78.6558 187.5,65.5C 188.098,64.2054 188.598,62.8721 189,61.5C 189.278,62.4158 189.778,63.0825 190.5,63.5 Z"/></g>
<g><path style="opacity:1" fill="#bdc4b9" d="M 21.5,65.5 C 20.6063,69.3052 19.1063,73.3052 17,77.5C 16.7266,79.1012 16.2266,80.6012 15.5,82C 15.8333,83 16.1667,84 16.5,85C 15.5,86.6667 14.5,88.3333 13.5,90C 13.7284,90.3988 14.0618,90.5654 14.5,90.5C 14.5,91.1667 14.5,91.8333 14.5,92.5C 13.6906,93.4687 12.6906,94.3021 11.5,95C 12.4581,96.1475 12.1247,97.1475 10.5,98C 10.7358,99.4509 10.7358,100.951 10.5,102.5C 9.5,102.5 8.5,102.5 7.5,102.5C 7.58577,101.504 7.25244,100.671 6.5,100C 7.16667,99.6667 7.83333,99.3333 8.5,99C 8.57159,96.824 8.23825,94.824 7.5,93C 8.16667,92.3333 8.83333,91.6667 9.5,91C 8.46392,89.2245 8.46392,87.3911 9.5,85.5C 11.7106,84.1702 13.0439,82.6702 13.5,81C 12.2946,78.7658 12.9613,77.0992 15.5,76C 15.1667,75.6667 14.8333,75.3333 14.5,75C 14.6894,72.705 16.0228,70.705 18.5,69C 17.7203,67.927 17.887,66.7604 19,65.5C 19.7697,66.5981 20.603,66.5981 21.5,65.5 Z"/></g>
<g><path style="opacity:1" fill="#ebebe1" d="M 25.5,63.5 C 25.7208,66.0972 26.2208,66.0972 27,63.5C 29,68.8333 31,68.8333 33,63.5C 33.6667,66.1667 34.3333,66.1667 35,63.5C 35.7921,65.6437 37.2921,66.977 39.5,67.5C 38.6153,70.0606 37.2819,72.394 35.5,74.5C 32.7027,76.5869 30.2027,75.9203 28,72.5C 27.1841,73.8228 26.0174,74.4894 24.5,74.5C 23.8333,73.5 23.1667,72.5 22.5,71.5C 22.9028,68.5145 23.9028,65.8478 25.5,63.5 Z"/></g>
<g><path style="opacity:1" fill="#c7cbbd" d="M 27.5,57.5 C 26.8333,59.5 26.1667,61.5 25.5,63.5C 23.9028,65.8478 22.9028,68.5145 22.5,71.5C 21.1716,72.9097 21.5049,74.0764 23.5,75C 22.5842,75.2784 21.9175,75.7784 21.5,76.5C 19.7773,78.78 19.1107,81.4467 19.5,84.5C 17.3523,84.3894 17.019,85.056 18.5,86.5C 17.9747,87.1924 17.3081,87.6924 16.5,88C 17.3805,88.7083 18.0472,89.5416 18.5,90.5C 17.2976,91.4054 15.9643,91.4054 14.5,90.5C 14.0618,90.5654 13.7284,90.3988 13.5,90C 14.5,88.3333 15.5,86.6667 16.5,85C 16.1667,84 15.8333,83 15.5,82C 16.2266,80.6012 16.7266,79.1012 17,77.5C 19.1063,73.3052 20.6063,69.3052 21.5,65.5C 20.9524,64.3115 20.6191,63.1448 20.5,62C 21.8491,61.2276 22.6824,60.0609 23,58.5C 23.3333,59.1667 23.6667,59.8333 24,60.5C 24.4224,58.5743 25.5891,57.5743 27.5,57.5 Z"/></g>
<g><path style="opacity:1" fill="#caccb2" d="M 47.5,67.5 C 47.3284,68.4916 47.6618,69.1583 48.5,69.5C 48.1419,71.9673 46.8086,74.134 44.5,76C 45.6341,77.016 45.3008,77.6827 43.5,78C 44.2797,79.073 44.113,80.2396 43,81.5C 42.6667,81.1667 42.3333,80.8333 42,80.5C 41.3162,81.7839 41.4829,82.9505 42.5,84C 40.4376,85.5325 39.1043,87.5325 38.5,90C 39.1667,90.3333 39.8333,90.6667 40.5,91C 38.8225,91.4839 38.1558,92.3172 38.5,93.5C 36.2894,94.8298 34.9561,96.3298 34.5,98C 35.0944,98.4643 35.7611,98.631 36.5,98.5C 34.0383,100.402 31.5383,102.069 29,103.5C 27.4345,104.061 26.1011,103.394 25,101.5C 24.3333,104.167 23.6667,104.167 23,101.5C 20.7374,103.708 19.0708,103.041 18,99.5C 17.3918,101.066 16.5585,102.4 15.5,103.5C 15.3241,99.43 14.9908,95.7634 14.5,92.5C 14.5,91.8333 14.5,91.1667 14.5,90.5C 15.9643,91.4054 17.2976,91.4054 18.5,90.5C 19.252,94.4334 21.4187,97.4334 25,99.5C 25.9147,98.6721 26.5814,97.6721 27,96.5C 27.3333,96.8333 27.6667,97.1667 28,97.5C 30.3333,94.5 32.6667,91.5 35,88.5C 35.4922,87.451 35.3256,86.451 34.5,85.5C 37.6204,80.8732 40.2871,76.5399 42.5,72.5C 44.2199,71.2493 44.5532,69.7493 43.5,68C 44.7441,67.5439 45.5774,68.0439 46,69.5C 46.2784,68.5842 46.7784,67.9175 47.5,67.5 Z"/></g>
<g><path style="opacity:1" fill="#aeb9b4" d="M 59.5,55.5 C 60.8999,56.0998 61.8999,57.0998 62.5,58.5C 62.8333,59.1667 63.1667,59.8333 63.5,60.5C 62.3569,60.9081 61.3569,61.5748 60.5,62.5C 61.6682,63.9056 61.3348,65.0723 59.5,66C 62.1667,66.6667 62.1667,67.3333 59.5,68C 60.8333,69.3333 60.8333,70.6667 59.5,72C 62.1667,72.6667 62.1667,73.3333 59.5,74C 59.8333,75.6667 60.1667,77.3333 60.5,79C 58.6805,81.605 58.0138,84.2717 58.5,87C 55.8333,87.6667 55.8333,88.3333 58.5,89C 57.5,90 56.5,91 55.5,92C 56.1667,92.3333 56.8333,92.6667 57.5,93C 56.5,94 55.5,95 54.5,96C 57.1667,96.6667 57.1667,97.3333 54.5,98C 57.1667,98.6667 57.1667,99.3333 54.5,100C 57.1667,100.667 57.1667,101.333 54.5,102C 54.6938,103.43 54.6938,104.93 54.5,106.5C 56.4399,109.259 56.7732,111.759 55.5,114C 57.3008,114.317 57.6341,114.984 56.5,116C 58.6515,118.469 60.1515,121.302 61,124.5C 65.6726,129.506 70.6726,134.172 76,138.5C 77.5581,137.655 78.5581,138.321 79,140.5C 79.3333,139.833 79.6667,139.167 80,138.5C 80.3589,141.544 81.0255,141.878 82,139.5C 83,140.833 84,142.167 85,143.5C 85.3333,142.833 85.6667,142.167 86,141.5C 86.3589,144.544 87.0255,144.878 88,142.5C 88.3173,144.301 88.984,144.634 90,143.5C 92.3072,145.608 94.6405,146.941 97,147.5C 98.7785,146.521 100.445,146.854 102,148.5C 105.361,147.588 109.028,147.588 113,148.5C 113.333,147.833 113.667,147.167 114,146.5C 115.851,148.781 117.518,148.781 119,146.5C 121.226,148.159 122.893,147.492 124,144.5C 125.398,145.051 126.732,145.384 128,145.5C 129.385,144.449 130.385,143.116 131,141.5C 131.974,143.878 132.641,143.544 133,140.5C 134.087,142.932 134.587,142.598 134.5,139.5C 136.124,139.64 137.29,138.973 138,137.5C 138.333,138.167 138.667,138.833 139,139.5C 139.667,138.167 140.333,136.833 141,135.5C 141.974,137.878 142.641,137.544 143,134.5C 145.265,132.159 147.432,130.493 149.5,129.5C 150.167,130.5 150.833,131.5 151.5,132.5C 149.617,134.398 147.617,136.231 145.5,138C 146.258,139.364 145.758,140.531 144,141.5C 143.667,141.167 143.333,140.833 143,140.5C 142.333,141.833 141.667,143.167 141,144.5C 140.667,143.833 140.333,143.167 140,142.5C 139.276,144.959 137.943,145.959 136,145.5C 133.929,146.525 131.762,147.358 129.5,148C 127.96,149.851 126.46,151.018 125,151.5C 124.333,148.833 123.667,148.833 123,151.5C 122.667,150.833 122.333,150.167 122,149.5C 121.581,150.672 120.915,151.672 120,152.5C 117.997,151.783 115.831,151.45 113.5,151.5C 112.459,153.991 111.626,153.991 111,151.5C 110.333,152.167 109.667,152.833 109,153.5C 108,152.167 107,152.167 106,153.5C 105.085,152.672 104.419,151.672 104,150.5C 103.333,153.167 102.667,153.167 102,150.5C 101.667,151.167 101.333,151.833 101,152.5C 100.047,150.408 98.7141,150.075 97,151.5C 96.6667,150.833 96.3333,150.167 96,149.5C 93.8118,150.447 91.4785,150.447 89,149.5C 85.3489,148.617 82.0156,146.617 79,143.5C 78.6667,143.833 78.3333,144.167 78,144.5C 76.2866,143.122 74.9533,141.455 74,139.5C 73.5488,141.929 72.7155,142.096 71.5,140C 71.8333,139.667 72.1667,139.333 72.5,139C 70.7254,137.561 68.7254,136.561 66.5,136C 64.5,132.667 61.8333,130 58.5,128C 58.1632,125.53 56.8299,123.196 54.5,121C 54.5,119.667 54.5,118.333 54.5,117C 53.6919,116.692 53.0253,116.192 52.5,115.5C 51.9182,112.122 51.9182,108.955 52.5,106C 50.1088,104.691 50.1088,103.691 52.5,103C 50.4873,102.125 50.4873,100.791 52.5,99C 51.5209,97.2215 51.8542,95.5548 53.5,94C 53.5,90.6667 53.5,87.3333 53.5,84C 56.0018,81.2375 56.6684,78.5708 55.5,76C 56.1667,74.3333 56.8333,72.6667 57.5,71C 54.8333,70.3333 54.8333,69.6667 57.5,69C 56.2889,67.8869 56.2889,66.7202 57.5,65.5C 57.1445,64.4777 56.4778,63.811 55.5,63.5C 55.16,61.321 54.16,59.4877 52.5,58C 52.7284,57.6012 53.0618,57.4346 53.5,57.5C 55.0682,59.9312 56.5682,59.9312 58,57.5C 60.0932,58.234 60.5932,57.5673 59.5,55.5 Z"/></g>
<g><path style="opacity:1" fill="#bfc3ae" d="M 52.5,70.5 C 51.1667,71.5 51.1667,72.5 52.5,73.5C 50.0543,74.3921 49.3877,75.8921 50.5,78C 49.6721,78.9147 48.6721,79.5814 47.5,80C 49.8776,80.9745 49.5443,81.6411 46.5,82C 47.1667,82.6667 47.8333,83.3333 48.5,84C 46.2362,86.4707 44.7362,88.9707 44,91.5C 42.9967,95.2324 42.4967,98.5657 42.5,101.5C 40.6127,99.2114 39.2794,96.5447 38.5,93.5C 38.1558,92.3172 38.8225,91.4839 40.5,91C 39.8333,90.6667 39.1667,90.3333 38.5,90C 39.1043,87.5325 40.4376,85.5325 42.5,84C 41.4829,82.9505 41.3162,81.7839 42,80.5C 42.3333,80.8333 42.6667,81.1667 43,81.5C 44.113,80.2396 44.2797,79.073 43.5,78C 45.3008,77.6827 45.6341,77.016 44.5,76C 46.8086,74.134 48.1419,71.9673 48.5,69.5C 48.4346,69.0618 48.6012,68.7284 49,68.5C 50.1127,69.305 51.2794,69.9717 52.5,70.5 Z"/></g>
<g><path style="opacity:1" fill="#b2bbaf" d="M 55.5,63.5 C 56.4778,63.811 57.1445,64.4777 57.5,65.5C 56.2889,66.7202 56.2889,67.8869 57.5,69C 54.8333,69.6667 54.8333,70.3333 57.5,71C 56.8333,72.6667 56.1667,74.3333 55.5,76C 56.6684,78.5708 56.0018,81.2375 53.5,84C 53.5,87.3333 53.5,90.6667 53.5,94C 51.8542,95.5548 51.5209,97.2215 52.5,99C 50.4873,100.791 50.4873,102.125 52.5,103C 50.1088,103.691 50.1088,104.691 52.5,106C 51.9182,108.955 51.9182,112.122 52.5,115.5C 53.0253,116.192 53.6919,116.692 54.5,117C 54.5,118.333 54.5,119.667 54.5,121C 56.8299,123.196 58.1632,125.53 58.5,128C 61.8333,130 64.5,132.667 66.5,136C 68.7254,136.561 70.7254,137.561 72.5,139C 72.1667,139.333 71.8333,139.667 71.5,140C 72.7155,142.096 73.5488,141.929 74,139.5C 74.9533,141.455 76.2866,143.122 78,144.5C 78.3333,144.167 78.6667,143.833 79,143.5C 82.0156,146.617 85.3489,148.617 89,149.5C 91.4785,150.447 93.8118,150.447 96,149.5C 96.3333,150.167 96.6667,150.833 97,151.5C 98.7141,150.075 100.047,150.408 101,152.5C 101.333,151.833 101.667,151.167 102,150.5C 102.667,153.167 103.333,153.167 104,150.5C 104.419,151.672 105.085,152.672 106,153.5C 107,152.167 108,152.167 109,153.5C 109.667,152.833 110.333,152.167 111,151.5C 111.626,153.991 112.459,153.991 113.5,151.5C 115.831,151.45 117.997,151.783 120,152.5C 120.915,151.672 121.581,150.672 122,149.5C 122.333,150.167 122.667,150.833 123,151.5C 123.667,148.833 124.333,148.833 125,151.5C 126.46,151.018 127.96,149.851 129.5,148C 131.762,147.358 133.929,146.525 136,145.5C 137.943,145.959 139.276,144.959 140,142.5C 140.333,143.167 140.667,143.833 141,144.5C 141.667,143.167 142.333,141.833 143,140.5C 143.333,140.833 143.667,141.167 144,141.5C 145.758,140.531 146.258,139.364 145.5,138C 147.617,136.231 149.617,134.398 151.5,132.5C 152.659,130.369 154.492,129.036 157,128.5C 157.717,129.044 158.217,129.711 158.5,130.5C 156.877,131.779 155.21,133.113 153.5,134.5C 150.484,140.645 147.15,145.978 143.5,150.5C 141.871,148.94 140.704,149.273 140,151.5C 139.667,150.833 139.333,150.167 139,149.5C 138.333,150.833 137.667,152.167 137,153.5C 136.667,153.167 136.333,152.833 136,152.5C 134.961,153.71 133.794,154.71 132.5,155.5C 131.15,152.894 129.65,152.894 128,155.5C 125.667,155.5 123.333,155.5 121,155.5C 120.667,156.167 120.333,156.833 120,157.5C 118.602,156.949 117.268,156.616 116,156.5C 115.333,159.167 114.667,159.167 114,156.5C 113.667,157.167 113.333,157.833 113,158.5C 109.638,158.443 106.638,158.443 104,158.5C 102.921,156.606 101.587,156.273 100,157.5C 99.3333,154.833 98.6667,154.833 98,157.5C 97.6667,156.833 97.3333,156.167 97,155.5C 94.774,157.159 93.1073,156.492 92,153.5C 91.3333,156.167 90.6667,156.167 90,153.5C 89.6667,153.833 89.3333,154.167 89,154.5C 85.9536,152.483 82.9536,150.483 80,148.5C 79.3333,151.167 78.6667,151.167 78,148.5C 76.0573,148.959 74.724,147.959 74,145.5C 73,145.5 72,145.5 71,145.5C 66.6548,141.513 61.9881,137.179 57,132.5C 53.4207,127.167 50.254,121.667 47.5,116C 50.1667,115.333 50.1667,114.667 47.5,114C 47.5773,111.889 47.9106,109.889 48.5,108C 47.8333,107.333 47.1667,106.667 46.5,106C 45.9394,104.434 46.6061,103.101 48.5,102C 45.8333,100.333 45.8333,98.6667 48.5,97C 47.1667,94 47.1667,91 48.5,88C 50.3348,87.0723 50.6682,85.9056 49.5,84.5C 51.2701,83.1804 51.6034,81.6804 50.5,80C 51.2567,78.4878 52.2567,77.1545 53.5,76C 52.3659,74.984 52.6992,74.3173 54.5,74C 53.9056,73.5357 53.2389,73.369 52.5,73.5C 51.1667,72.5 51.1667,71.5 52.5,70.5C 52.4586,68.0157 53.4586,65.6824 55.5,63.5 Z"/></g>
<g><path style="opacity:1" fill="#d2d3bd" d="M 39.5,67.5 C 39.8333,67.5 40.1667,67.5 40.5,67.5C 41.4408,69.0495 42.1075,70.7162 42.5,72.5C 40.2871,76.5399 37.6204,80.8732 34.5,85.5C 35.3256,86.451 35.4922,87.451 35,88.5C 32.6667,91.5 30.3333,94.5 28,97.5C 27.6667,97.1667 27.3333,96.8333 27,96.5C 26.5814,97.6721 25.9147,98.6721 25,99.5C 21.4187,97.4334 19.252,94.4334 18.5,90.5C 18.0472,89.5416 17.3805,88.7083 16.5,88C 17.3081,87.6924 17.9747,87.1924 18.5,86.5C 17.019,85.056 17.3523,84.3894 19.5,84.5C 19.9662,86.2012 19.9662,87.7012 19.5,89C 20.2529,90.487 21.0862,90.6537 22,89.5C 22.6667,92.1667 23.3333,92.1667 24,89.5C 25.5826,91.9928 27.0826,91.8262 28.5,89C 27.4829,87.9505 27.3162,86.7839 28,85.5C 28.3333,86.1667 28.6667,86.8333 29,87.5C 29.9704,85.7262 30.8037,83.8928 31.5,82C 28.5588,79.5142 25.2255,77.6808 21.5,76.5C 21.9175,75.7784 22.5842,75.2784 23.5,75C 21.5049,74.0764 21.1716,72.9097 22.5,71.5C 23.1667,72.5 23.8333,73.5 24.5,74.5C 27.1821,75.9218 30.0154,77.2551 33,78.5C 34.5947,77.6443 35.428,76.3109 35.5,74.5C 37.2819,72.394 38.6153,70.0606 39.5,67.5 Z"/></g>
<g><path style="opacity:1" fill="#dfe1cf" d="M 35.5,74.5 C 35.428,76.3109 34.5947,77.6443 33,78.5C 30.0154,77.2551 27.1821,75.9218 24.5,74.5C 26.0174,74.4894 27.1841,73.8228 28,72.5C 30.2027,75.9203 32.7027,76.5869 35.5,74.5 Z"/></g>
<g><path style="opacity:0.298" fill="#a9b9bf" d="M 12.5,68.5 C 10.5944,72.852 8.92772,77.1853 7.5,81.5C 9.99134,82.5407 9.99134,83.3741 7.5,84C 7.72845,84.3988 8.06178,84.5654 8.5,84.5C 3.61617,95.3622 2.28283,106.696 4.5,118.5C 3.68618,116.369 3.18618,114.036 3,111.5C 2.33333,103.5 2.33333,95.5 3,87.5C 3.56519,80.8184 5.06519,74.4851 7.5,68.5C 8.49722,68.5299 9.16389,68.0299 9.5,67C 11.2883,62.2926 13.455,57.7926 16,53.5C 16.1699,55.8454 15.8365,58.1788 15,60.5C 12.5634,62.9503 11.73,65.6169 12.5,68.5 Z"/></g>
<g><path style="opacity:1" fill="#dbddca" d="M 21.5,76.5 C 25.2255,77.6808 28.5588,79.5142 31.5,82C 30.8037,83.8928 29.9704,85.7262 29,87.5C 28.6667,86.8333 28.3333,86.1667 28,85.5C 27.3162,86.7839 27.4829,87.9505 28.5,89C 27.0826,91.8262 25.5826,91.9928 24,89.5C 23.3333,92.1667 22.6667,92.1667 22,89.5C 21.0862,90.6537 20.2529,90.487 19.5,89C 19.9662,87.7012 19.9662,86.2012 19.5,84.5C 19.1107,81.4467 19.7773,78.78 21.5,76.5 Z"/></g>
<g><path style="opacity:1" fill="#b8bda9" d="M 52.5,73.5 C 53.2389,73.369 53.9056,73.5357 54.5,74C 52.6992,74.3173 52.3659,74.984 53.5,76C 52.2567,77.1545 51.2567,78.4878 50.5,80C 51.6034,81.6804 51.2701,83.1804 49.5,84.5C 50.6682,85.9056 50.3348,87.0723 48.5,88C 47.1667,91 47.1667,94 48.5,97C 45.8333,98.6667 45.8333,100.333 48.5,102C 46.6061,103.101 45.9394,104.434 46.5,106C 47.1667,106.667 47.8333,107.333 48.5,108C 47.9106,109.889 47.5773,111.889 47.5,114C 50.1667,114.667 50.1667,115.333 47.5,116C 50.254,121.667 53.4207,127.167 57,132.5C 61.9881,137.179 66.6548,141.513 71,145.5C 72,145.5 73,145.5 74,145.5C 74.724,147.959 76.0573,148.959 78,148.5C 78.6667,151.167 79.3333,151.167 80,148.5C 82.9536,150.483 85.9536,152.483 89,154.5C 89.3333,154.167 89.6667,153.833 90,153.5C 90.6667,156.167 91.3333,156.167 92,153.5C 93.1073,156.492 94.774,157.159 97,155.5C 97.3333,156.167 97.6667,156.833 98,157.5C 98.6667,154.833 99.3333,154.833 100,157.5C 101.587,156.273 102.921,156.606 104,158.5C 106.638,158.443 109.638,158.443 113,158.5C 113.333,157.833 113.667,157.167 114,156.5C 114.667,159.167 115.333,159.167 116,156.5C 117.268,156.616 118.602,156.949 120,157.5C 120.333,156.833 120.667,156.167 121,155.5C 123.333,155.5 125.667,155.5 128,155.5C 129.65,152.894 131.15,152.894 132.5,155.5C 131.841,158.408 131.007,158.742 130,156.5C 129.558,158.679 128.558,159.345 127,158.5C 126.333,161.167 125.667,161.167 125,158.5C 124.641,161.544 123.974,161.878 123,159.5C 121.345,159.802 120.012,161.136 119,163.5C 117.883,163.335 116.716,163.002 115.5,162.5C 114.702,162.957 114.369,163.624 114.5,164.5C 113.778,164.918 113.278,165.584 113,166.5C 112.333,162.5 111.667,162.5 111,166.5C 110.641,163.456 109.974,163.122 109,165.5C 108.667,164.833 108.333,164.167 108,163.5C 106.176,164.238 104.176,164.572 102,164.5C 100.316,162.299 98.3155,161.633 96,162.5C 95.0853,161.672 94.4186,160.672 94,159.5C 93.3333,162.167 92.6667,162.167 92,159.5C 91.3333,162.167 90.6667,162.167 90,159.5C 88.6054,160.815 87.6054,160.481 87,158.5C 85.6667,158.5 84.3333,158.5 83,158.5C 81.7574,156.167 80.0907,155.5 78,156.5C 77.0853,155.672 76.4186,154.672 76,153.5C 75.6667,153.833 75.3333,154.167 75,154.5C 74.3333,153.167 73.6667,151.833 73,150.5C 72.6667,151.167 72.3333,151.833 72,152.5C 69.8774,151.117 68.8774,149.45 69,147.5C 67.984,148.634 67.3173,148.301 67,146.5C 66.0255,148.878 65.3589,148.544 65,145.5C 64.6667,145.833 64.3333,146.167 64,146.5C 62.7195,143.553 60.7195,141.219 58,139.5C 57.3333,135.5 56.6667,135.5 56,139.5C 54.5252,136.079 52.8586,132.746 51,129.5C 50.6667,130.167 50.3333,130.833 50,131.5C 49.3162,130.216 49.4829,129.049 50.5,128C 48.981,126.649 47.6477,125.149 46.5,123.5C 46.7093,122.914 47.0426,122.414 47.5,122C 46.3947,117.938 44.7281,114.272 42.5,111C 43.1237,108.024 43.1237,104.857 42.5,101.5C 42.4967,98.5657 42.9967,95.2324 44,91.5C 44.7362,88.9707 46.2362,86.4707 48.5,84C 47.8333,83.3333 47.1667,82.6667 46.5,82C 49.5443,81.6411 49.8776,80.9745 47.5,80C 48.6721,79.5814 49.6721,78.9147 50.5,78C 49.3877,75.8921 50.0543,74.3921 52.5,73.5 Z"/></g>
<g><path style="opacity:1" fill="#c3c6a5" d="M 36.5,98.5 C 37.2891,98.7828 37.9558,99.2828 38.5,100C 38.0631,102.217 38.0631,104.551 38.5,107C 37.1772,107.816 36.5106,108.983 36.5,110.5C 35.7784,110.082 35.2784,109.416 35,108.5C 34.0255,110.878 33.3589,110.544 33,107.5C 32.3333,110.167 31.6667,110.167 31,107.5C 30.3333,110.167 29.6667,110.167 29,107.5C 28.2086,108.745 27.7086,110.078 27.5,111.5C 26.7784,111.082 26.2784,110.416 26,109.5C 25.7216,110.416 25.2216,111.082 24.5,111.5C 23.8953,109.974 22.7286,108.974 21,108.5C 20.0196,110.259 19.353,111.926 19,113.5C 18.2917,112.619 17.4584,111.953 16.5,111.5C 16.1436,109.81 15.1436,108.81 13.5,108.5C 13.8925,106.716 14.5592,105.05 15.5,103.5C 16.5585,102.4 17.3918,101.066 18,99.5C 19.0708,103.041 20.7374,103.708 23,101.5C 23.6667,104.167 24.3333,104.167 25,101.5C 26.1011,103.394 27.4345,104.061 29,103.5C 31.5383,102.069 34.0383,100.402 36.5,98.5 Z"/></g>
<g><path style="opacity:1" fill="#bcbfa3" d="M 38.5,93.5 C 39.2794,96.5447 40.6127,99.2114 42.5,101.5C 43.1237,104.857 43.1237,108.024 42.5,111C 44.7281,114.272 46.3947,117.938 47.5,122C 47.0426,122.414 46.7093,122.914 46.5,123.5C 47.6477,125.149 48.981,126.649 50.5,128C 49.4829,129.049 49.3162,130.216 50,131.5C 50.3333,130.833 50.6667,130.167 51,129.5C 52.8586,132.746 54.5252,136.079 56,139.5C 56.6667,135.5 57.3333,135.5 58,139.5C 60.7195,141.219 62.7195,143.553 64,146.5C 64.3333,146.167 64.6667,145.833 65,145.5C 65.3589,148.544 66.0255,148.878 67,146.5C 67.3173,148.301 67.984,148.634 69,147.5C 68.8774,149.45 69.8774,151.117 72,152.5C 72.3333,151.833 72.6667,151.167 73,150.5C 73.6667,151.833 74.3333,153.167 75,154.5C 75.3333,154.167 75.6667,153.833 76,153.5C 76.4186,154.672 77.0853,155.672 78,156.5C 80.0907,155.5 81.7574,156.167 83,158.5C 84.3333,158.5 85.6667,158.5 87,158.5C 87.6054,160.481 88.6054,160.815 90,159.5C 90.6667,162.167 91.3333,162.167 92,159.5C 92.6667,162.167 93.3333,162.167 94,159.5C 94.4186,160.672 95.0853,161.672 96,162.5C 98.3155,161.633 100.316,162.299 102,164.5C 104.176,164.572 106.176,164.238 108,163.5C 108.333,164.167 108.667,164.833 109,165.5C 109.974,163.122 110.641,163.456 111,166.5C 111.667,162.5 112.333,162.5 113,166.5C 113.278,165.584 113.778,164.918 114.5,164.5C 114.557,165.609 114.89,166.609 115.5,167.5C 114.542,167.953 113.708,168.619 113,169.5C 111.984,168.366 111.317,168.699 111,170.5C 110.722,169.584 110.222,168.918 109.5,168.5C 106.299,169.078 103.299,169.078 100.5,168.5C 99.8076,169.025 99.3076,169.692 99,170.5C 97.5847,168.681 96.0847,168.015 94.5,168.5C 93.0689,168.119 92.2355,167.119 92,165.5C 91.3333,169.5 90.6667,169.5 90,165.5C 88.984,166.634 88.3173,166.301 88,164.5C 87.6667,165.167 87.3333,165.833 87,166.5C 86.3333,165.167 85.6667,163.833 85,162.5C 84.6667,163.167 84.3333,163.833 84,164.5C 83,163.5 82,162.5 81,161.5C 80.6667,161.833 80.3333,162.167 80,162.5C 78.5507,161.386 77.2173,160.386 76,159.5C 74.4419,160.345 73.4419,159.679 73,157.5C 71.836,157.165 70.5026,157.165 69,157.5C 58.047,147.972 49.2137,137.806 42.5,127C 43.0606,125.434 42.3939,124.101 40.5,123C 41.3452,121.442 40.6785,120.442 38.5,120C 40.8776,119.026 40.5443,118.359 37.5,118C 39.9913,117.374 39.9913,116.541 37.5,115.5C 37.7093,114.914 38.0426,114.414 38.5,114C 37.1772,113.184 36.5106,112.017 36.5,110.5C 36.5106,108.983 37.1772,107.816 38.5,107C 38.0631,104.551 38.0631,102.217 38.5,100C 37.9558,99.2828 37.2891,98.7828 36.5,98.5C 35.7611,98.631 35.0944,98.4643 34.5,98C 34.9561,96.3298 36.2894,94.8298 38.5,93.5 Z"/></g>
<g><path style="opacity:1" fill="#b9bea9" d="M 14.5,92.5 C 14.9908,95.7634 15.3241,99.43 15.5,103.5C 14.5592,105.05 13.8925,106.716 13.5,108.5C 13.6129,135.304 25.7795,155.638 50,169.5C 50.3826,168.944 50.8826,168.611 51.5,168.5C 53.0066,169.975 54.6732,171.309 56.5,172.5C 53.9407,175.524 51.774,174.858 50,170.5C 49.3333,173.167 48.6667,173.167 48,170.5C 46.0573,170.959 44.724,169.959 44,167.5C 43.6667,167.833 43.3333,168.167 43,168.5C 25.0854,155.959 13.9188,138.459 9.5,116C 9.63971,111.767 9.97304,107.267 10.5,102.5C 10.7358,100.951 10.7358,99.4509 10.5,98C 12.1247,97.1475 12.4581,96.1475 11.5,95C 12.6906,94.3021 13.6906,93.4687 14.5,92.5 Z"/></g>
<g><path style="opacity:1" fill="#bcc19b" d="M 36.5,110.5 C 36.5106,112.017 37.1772,113.184 38.5,114C 38.0426,114.414 37.7093,114.914 37.5,115.5C 39.9913,116.541 39.9913,117.374 37.5,118C 40.5443,118.359 40.8776,119.026 38.5,120C 40.6785,120.442 41.3452,121.442 40.5,123C 42.3939,124.101 43.0606,125.434 42.5,127C 49.2137,137.806 58.047,147.972 69,157.5C 70.5026,157.165 71.836,157.165 73,157.5C 73.4419,159.679 74.4419,160.345 76,159.5C 77.2173,160.386 78.5507,161.386 80,162.5C 80.3333,162.167 80.6667,161.833 81,161.5C 82,162.5 83,163.5 84,164.5C 84.3333,163.833 84.6667,163.167 85,162.5C 85.6667,163.833 86.3333,165.167 87,166.5C 87.3333,165.833 87.6667,165.167 88,164.5C 88.3173,166.301 88.984,166.634 90,165.5C 90.6667,169.5 91.3333,169.5 92,165.5C 92.2355,167.119 93.0689,168.119 94.5,168.5C 94.0825,169.222 93.4158,169.722 92.5,170C 93.6721,170.419 94.6721,171.085 95.5,172C 94.1068,173.171 93.2735,174.671 93,176.5C 92.6667,175.5 92.3333,174.5 92,173.5C 91.3333,175.5 90.6667,177.5 90,179.5C 89.6667,178.833 89.3333,178.167 89,177.5C 88.1165,180.653 86.9498,180.986 85.5,178.5C 86.2371,176.695 87.2371,175.029 88.5,173.5C 87.2889,172.28 87.2889,171.113 88.5,170C 86.8619,169.758 85.3619,168.925 84,167.5C 83.6667,167.833 83.3333,168.167 83,168.5C 82.6411,165.456 81.9745,165.122 81,167.5C 79.6152,166.449 78.6152,165.116 78,163.5C 77.0255,165.878 76.3589,165.544 76,162.5C 75.0855,166.185 74.4189,165.852 74,161.5C 72.984,162.634 72.3173,162.301 72,160.5C 71.3333,163.167 70.6667,163.167 70,160.5C 69.6667,161.167 69.3333,161.833 69,162.5C 68.3333,161.167 67.6667,159.833 67,158.5C 66.6667,159.167 66.3333,159.833 66,160.5C 65.3333,159.167 64.6667,157.833 64,156.5C 63.6667,157.167 63.3333,157.833 63,158.5C 62.6667,157.167 62.3333,155.833 62,154.5C 61.6667,155.167 61.3333,155.833 61,156.5C 58.311,152.465 54.1444,148.299 48.5,144C 48.8333,143.667 49.1667,143.333 49.5,143C 43.5286,136.833 39.1953,130.167 36.5,123C 33.4557,122.641 33.1224,121.974 35.5,121C 33.652,119.482 32.152,117.649 31,115.5C 30.6667,115.833 30.3333,116.167 30,116.5C 29.1534,114.807 28.3201,113.14 27.5,111.5C 27.7086,110.078 28.2086,108.745 29,107.5C 29.6667,110.167 30.3333,110.167 31,107.5C 31.6667,110.167 32.3333,110.167 33,107.5C 33.3589,110.544 34.0255,110.878 35,108.5C 35.2784,109.416 35.7784,110.082 36.5,110.5 Z"/></g>
<g><path style="opacity:1" fill="#bcbfa2" d="M 13.5,108.5 C 15.1436,108.81 16.1436,109.81 16.5,111.5C 16.5035,127.19 22.8368,142.023 35.5,156C 41.0415,160.058 46.3749,164.225 51.5,168.5C 50.8826,168.611 50.3826,168.944 50,169.5C 25.7795,155.638 13.6129,135.304 13.5,108.5 Z"/></g>
<g><path style="opacity:1" fill="#bcc19a" d="M 24.5,111.5 C 21.9289,113.578 21.9289,115.744 24.5,118C 24.3842,119.268 24.0509,120.602 23.5,122C 24.1667,123.667 24.8333,125.333 25.5,127C 24.5419,128.147 24.8753,129.147 26.5,130C 25.5419,131.147 25.8753,132.147 27.5,133C 27.0426,133.414 26.7093,133.914 26.5,134.5C 29.5132,138.525 32.0132,142.858 34,147.5C 36.2671,149.449 37.9338,151.782 39,154.5C 39.3333,154.167 39.6667,153.833 40,153.5C 40.4828,154.448 40.6495,155.448 40.5,156.5C 41.552,156.351 42.552,156.517 43.5,157C 43.1667,157.333 42.8333,157.667 42.5,158C 47.1525,160.995 51.8191,163.995 56.5,167C 56.0426,167.414 55.7093,167.914 55.5,168.5C 56.5244,169.852 57.5244,171.185 58.5,172.5C 57.8333,172.833 57.1667,173.167 56.5,173.5C 56.5,173.167 56.5,172.833 56.5,172.5C 54.6732,171.309 53.0066,169.975 51.5,168.5C 46.3749,164.225 41.0415,160.058 35.5,156C 22.8368,142.023 16.5035,127.19 16.5,111.5C 17.4584,111.953 18.2917,112.619 19,113.5C 19.353,111.926 20.0196,110.259 21,108.5C 22.7286,108.974 23.8953,109.974 24.5,111.5 Z"/></g>
<g><path style="opacity:1" fill="#b9c194" d="M 27.5,111.5 C 28.3201,113.14 29.1534,114.807 30,116.5C 30.3333,116.167 30.6667,115.833 31,115.5C 32.152,117.649 33.652,119.482 35.5,121C 33.1224,121.974 33.4557,122.641 36.5,123C 39.1953,130.167 43.5286,136.833 49.5,143C 49.1667,143.333 48.8333,143.667 48.5,144C 54.1444,148.299 58.311,152.465 61,156.5C 61.3333,155.833 61.6667,155.167 62,154.5C 62.3333,155.833 62.6667,157.167 63,158.5C 63.3333,157.833 63.6667,157.167 64,156.5C 64.6667,157.833 65.3333,159.167 66,160.5C 66.3333,159.833 66.6667,159.167 67,158.5C 67.6667,159.833 68.3333,161.167 69,162.5C 69.3333,161.833 69.6667,161.167 70,160.5C 70.6667,163.167 71.3333,163.167 72,160.5C 72.3173,162.301 72.984,162.634 74,161.5C 74.4189,165.852 75.0855,166.185 76,162.5C 76.3589,165.544 77.0255,165.878 78,163.5C 78.6152,165.116 79.6152,166.449 81,167.5C 81.9745,165.122 82.6411,165.456 83,168.5C 83.3333,168.167 83.6667,167.833 84,167.5C 85.3619,168.925 86.8619,169.758 88.5,170C 87.2889,171.113 87.2889,172.28 88.5,173.5C 87.2371,175.029 86.2371,176.695 85.5,178.5C 84.1667,179.167 83.1667,180.167 82.5,181.5C 80.3234,180.498 78.3234,180.498 76.5,181.5C 74.8267,180.657 73.66,179.324 73,177.5C 72.0255,179.878 71.3589,179.544 71,176.5C 70.7679,177.737 70.2679,178.737 69.5,179.5C 68.588,177.405 67.4213,175.405 66,173.5C 65.6667,174.167 65.3333,174.833 65,175.5C 62.6969,175.591 61.0302,174.257 60,171.5C 59.6174,172.056 59.1174,172.389 58.5,172.5C 57.5244,171.185 56.5244,169.852 55.5,168.5C 55.7093,167.914 56.0426,167.414 56.5,167C 51.8191,163.995 47.1525,160.995 42.5,158C 42.8333,157.667 43.1667,157.333 43.5,157C 42.552,156.517 41.552,156.351 40.5,156.5C 40.6495,155.448 40.4828,154.448 40,153.5C 39.6667,153.833 39.3333,154.167 39,154.5C 37.9338,151.782 36.2671,149.449 34,147.5C 32.0132,142.858 29.5132,138.525 26.5,134.5C 26.7093,133.914 27.0426,133.414 27.5,133C 25.8753,132.147 25.5419,131.147 26.5,130C 24.8753,129.147 24.5419,128.147 25.5,127C 24.8333,125.333 24.1667,123.667 23.5,122C 24.0509,120.602 24.3842,119.268 24.5,118C 21.9289,115.744 21.9289,113.578 24.5,111.5C 25.2216,111.082 25.7216,110.416 26,109.5C 26.2784,110.416 26.7784,111.082 27.5,111.5 Z"/></g>
<g><path style="opacity:1" fill="#b2bebc" d="M 175.5,130.5 C 175.443,131.609 175.11,132.609 174.5,133.5C 172.821,132.084 171.154,130.75 169.5,129.5C 169.565,129.062 169.399,128.728 169,128.5C 168.667,129.167 168.333,129.833 168,130.5C 167.333,129.167 166.667,127.833 166,126.5C 165.333,129.167 164.667,129.167 164,126.5C 163.333,129.167 162.667,129.167 162,126.5C 161.333,127.833 160.667,127.833 160,126.5C 161.008,128.366 160.508,129.699 158.5,130.5C 158.217,129.711 157.717,129.044 157,128.5C 154.492,129.036 152.659,130.369 151.5,132.5C 150.833,131.5 150.167,130.5 149.5,129.5C 151.55,127.763 153.383,125.763 155,123.5C 155.333,124.167 155.667,124.833 156,125.5C 156.333,124.167 156.667,122.833 157,121.5C 157.667,125.5 158.333,125.5 159,121.5C 159.667,124.167 160.333,124.167 161,121.5C 162.667,121.5 164.333,121.5 166,121.5C 167,122.5 168,123.5 169,124.5C 170.113,123.289 171.28,123.289 172.5,124.5C 174.415,126.071 175.415,128.071 175.5,130.5 Z"/></g>
<g><path style="opacity:1" fill="#bfc5b9" d="M 169.5,129.5 C 170.367,133.506 171.034,137.339 171.5,141C 169.3,152.215 163.966,162.048 155.5,170.5C 155.047,169.542 154.381,168.708 153.5,168C 154.931,167.535 156.097,166.701 157,165.5C 159.354,161.984 161.854,158.484 164.5,155C 163.844,152.67 164.844,151.003 167.5,150C 166.833,149.667 166.167,149.333 165.5,149C 165.09,146.76 165.757,144.593 167.5,142.5C 166.289,141.28 166.289,140.113 167.5,139C 165.606,137.921 165.273,136.587 166.5,135C 164.479,134.86 162.645,134.693 161,134.5C 160.147,136.125 159.147,136.458 158,135.5C 157.667,136.833 157.333,138.167 157,139.5C 156.667,138.833 156.333,138.167 156,137.5C 155.801,139.402 154.967,140.902 153.5,142C 155.878,142.974 155.544,143.641 152.5,144C 152.833,144.333 153.167,144.667 153.5,145C 150.456,145.359 150.122,146.026 152.5,147C 150.316,149.017 147.982,150.85 145.5,152.5C 145.5,151.167 144.833,150.5 143.5,150.5C 147.15,145.978 150.484,140.645 153.5,134.5C 155.21,133.113 156.877,131.779 158.5,130.5C 160.508,129.699 161.008,128.366 160,126.5C 160.667,127.833 161.333,127.833 162,126.5C 162.667,129.167 163.333,129.167 164,126.5C 164.667,129.167 165.333,129.167 166,126.5C 166.667,127.833 167.333,129.167 168,130.5C 168.333,129.833 168.667,129.167 169,128.5C 169.399,128.728 169.565,129.062 169.5,129.5 Z"/></g>
<g><path style="opacity:1" fill="#b6bfb5" d="M 169.5,129.5 C 171.154,130.75 172.821,132.084 174.5,133.5C 174.245,134.936 173.912,136.436 173.5,138C 175.973,139.925 175.973,141.758 173.5,143.5C 174.902,144.842 174.569,145.676 172.5,146C 173.167,146.333 173.833,146.667 174.5,147C 173.5,148 172.5,149 171.5,150C 171.833,151 172.167,152 172.5,153C 170.699,153.317 170.366,153.984 171.5,155C 166.034,163.474 159.867,171.307 153,178.5C 152.667,178.167 152.333,177.833 152,177.5C 151.626,178.416 151.126,179.25 150.5,180C 139.86,186.014 129.194,190.18 118.5,192.5C 117.702,192.043 117.369,191.376 117.5,190.5C 120.02,189.812 122.52,188.812 125,187.5C 126.147,188.458 127.147,188.125 128,186.5C 130.055,186.848 132.055,186.181 134,184.5C 134.333,184.833 134.667,185.167 135,185.5C 137.758,183.563 140.425,181.896 143,180.5C 143.333,180.833 143.667,181.167 144,181.5C 147.698,178.3 151.198,174.967 154.5,171.5C 154.5,170.833 154.833,170.5 155.5,170.5C 163.966,162.048 169.3,152.215 171.5,141C 171.034,137.339 170.367,133.506 169.5,129.5 Z"/></g>
<g><path style="opacity:1" fill="#b2bbad" d="M 7.5,102.5 C 8.5,102.5 9.5,102.5 10.5,102.5C 9.97304,107.267 9.63971,111.767 9.5,116C 13.9188,138.459 25.0854,155.959 43,168.5C 43.3333,168.167 43.6667,167.833 44,167.5C 44.724,169.959 46.0573,170.959 48,170.5C 48.6667,173.167 49.3333,173.167 50,170.5C 51.774,174.858 53.9407,175.524 56.5,172.5C 56.5,172.833 56.5,173.167 56.5,173.5C 56.4142,174.496 56.7476,175.329 57.5,176C 59.0548,177.646 60.7215,177.979 62.5,177C 64,177.833 65.1667,179 66,180.5C 67.1597,178.203 68.1597,178.536 69,181.5C 69.4643,180.906 69.631,180.239 69.5,179.5C 70.2679,178.737 70.7679,177.737 71,176.5C 71.3589,179.544 72.0255,179.878 73,177.5C 73.66,179.324 74.8267,180.657 76.5,181.5C 80.1094,182.976 83.776,184.642 87.5,186.5C 87.5,187.167 87.5,187.833 87.5,188.5C 64.0385,184.852 43.5385,174.518 26,157.5C 14.6937,143.793 8.19368,128.626 6.5,112C 8.43375,110.271 8.43375,108.271 6.5,106C 7.33663,104.989 7.66997,103.822 7.5,102.5 Z"/></g>
<g><path style="opacity:1" fill="#a9b8bb" d="M 26.5,163.5 C 28.371,163.859 29.871,164.859 31,166.5C 31.3333,166.167 31.6667,165.833 32,165.5C 33.8333,168.667 36.3333,171.167 39.5,173C 47.913,177.282 55.0797,181.115 61,184.5C 62.3333,184.5 63.6667,184.5 65,184.5C 65.3173,186.301 65.984,186.634 67,185.5C 70.4247,187.034 74.0914,188.701 78,190.5C 78.3333,189.833 78.6667,189.167 79,188.5C 80,189.5 81,190.5 82,191.5C 83.3985,190.949 84.7318,190.616 86,190.5C 86.3333,191.167 86.6667,191.833 87,192.5C 88.3333,192.5 89.6667,192.5 91,192.5C 91.6172,193.449 91.4506,194.282 90.5,195C 92.7008,195.825 94.5341,195.325 96,193.5C 96.4828,194.448 96.6495,195.448 96.5,196.5C 101.161,196.689 105.661,196.022 110,194.5C 111.714,194.205 113.547,194.538 115.5,195.5C 105.167,198.167 94.8333,198.167 84.5,195.5C 84.3893,194.883 84.056,194.383 83.5,194C 73.2465,192.287 63.2465,188.787 53.5,183.5C 52.8933,183.624 52.56,183.957 52.5,184.5C 46.7964,181.642 41.4631,178.142 36.5,174C 32.9626,170.631 29.6293,167.131 26.5,163.5 Z"/></g>
<g><path style="opacity:1" fill="#afbbb8" d="M 8.5,84.5 C 9.16667,84.5 9.5,84.8333 9.5,85.5C 8.46392,87.3911 8.46392,89.2245 9.5,91C 8.83333,91.6667 8.16667,92.3333 7.5,93C 8.23825,94.824 8.57159,96.824 8.5,99C 7.83333,99.3333 7.16667,99.6667 6.5,100C 7.25244,100.671 7.58577,101.504 7.5,102.5C 7.66997,103.822 7.33663,104.989 6.5,106C 8.43375,108.271 8.43375,110.271 6.5,112C 8.19368,128.626 14.6937,143.793 26,157.5C 43.5385,174.518 64.0385,184.852 87.5,188.5C 90.5805,190.134 93.4139,191.467 96,192.5C 96.6891,191.643 97.5224,190.977 98.5,190.5C 99.4255,191.641 100.259,191.641 101,190.5C 101.667,193.167 102.333,193.167 103,190.5C 103.333,191.167 103.667,191.833 104,192.5C 105.333,191.167 106.667,191.167 108,192.5C 108.691,190.109 109.691,190.109 111,192.5C 112.309,190.109 113.309,190.109 114,192.5C 114.667,189.833 115.333,189.833 116,192.5C 116.278,191.584 116.778,190.918 117.5,190.5C 117.369,191.376 117.702,192.043 118.5,192.5C 129.194,190.18 139.86,186.014 150.5,180C 151.126,179.25 151.626,178.416 152,177.5C 152.333,177.833 152.667,178.167 153,178.5C 159.867,171.307 166.034,163.474 171.5,155C 170.366,153.984 170.699,153.317 172.5,153C 172.167,152 171.833,151 171.5,150C 172.5,149 173.5,148 174.5,147C 173.833,146.667 173.167,146.333 172.5,146C 174.569,145.676 174.902,144.842 173.5,143.5C 175.973,141.758 175.973,139.925 173.5,138C 173.912,136.436 174.245,134.936 174.5,133.5C 175.11,132.609 175.443,131.609 175.5,130.5C 176.103,132.19 177.103,133.69 178.5,135C 177.833,135.333 177.167,135.667 176.5,136C 178.725,139.089 178.725,142.422 176.5,146C 175.76,153.819 171.427,162.152 163.5,171C 164.056,171.383 164.389,171.883 164.5,172.5C 150.66,185.251 134.327,192.917 115.5,195.5C 113.547,194.538 111.714,194.205 110,194.5C 105.661,196.022 101.161,196.689 96.5,196.5C 96.6495,195.448 96.4828,194.448 96,193.5C 94.5341,195.325 92.7008,195.825 90.5,195C 91.4506,194.282 91.6172,193.449 91,192.5C 89.6667,192.5 88.3333,192.5 87,192.5C 86.6667,191.833 86.3333,191.167 86,190.5C 84.7318,190.616 83.3985,190.949 82,191.5C 81,190.5 80,189.5 79,188.5C 78.6667,189.167 78.3333,189.833 78,190.5C 74.0914,188.701 70.4247,187.034 67,185.5C 65.984,186.634 65.3173,186.301 65,184.5C 63.6667,184.5 62.3333,184.5 61,184.5C 55.0797,181.115 47.913,177.282 39.5,173C 36.3333,171.167 33.8333,168.667 32,165.5C 31.6667,165.833 31.3333,166.167 31,166.5C 29.871,164.859 28.371,163.859 26.5,163.5C 14.6603,150.819 7.32701,135.819 4.5,118.5C 2.28283,106.696 3.61617,95.3622 8.5,84.5 Z"/></g>
<g><path style="opacity:1" fill="#babfab" d="M 82.5,181.5 C 83.4584,181.953 84.2917,182.619 85,183.5C 86.3333,182.167 87.6667,182.167 89,183.5C 90.3086,181.109 91.3086,181.109 92,183.5C 92.3333,182.5 92.6667,181.5 93,180.5C 93.2784,181.416 93.7784,182.082 94.5,182.5C 95.9063,182.973 96.573,183.973 96.5,185.5C 95.5178,186.141 94.5178,186.807 93.5,187.5C 91.4818,187.129 89.4818,186.795 87.5,186.5C 83.776,184.642 80.1094,182.976 76.5,181.5C 78.3234,180.498 80.3234,180.498 82.5,181.5 Z"/></g>
<g><path style="opacity:1" fill="#b7bda5" d="M 69.5,179.5 C 69.631,180.239 69.4643,180.906 69,181.5C 68.1597,178.536 67.1597,178.203 66,180.5C 65.1667,179 64,177.833 62.5,177C 60.7215,177.979 59.0548,177.646 57.5,176C 56.7476,175.329 56.4142,174.496 56.5,173.5C 57.1667,173.167 57.8333,172.833 58.5,172.5C 59.1174,172.389 59.6174,172.056 60,171.5C 61.0302,174.257 62.6969,175.591 65,175.5C 65.3333,174.833 65.6667,174.167 66,173.5C 67.4213,175.405 68.588,177.405 69.5,179.5 Z"/></g>
<g><path style="opacity:1" fill="#bec5b9" d="M 154.5,171.5 C 151.198,174.967 147.698,178.3 144,181.5C 143.667,181.167 143.333,180.833 143,180.5C 140.425,181.896 137.758,183.563 135,185.5C 134.667,185.167 134.333,184.833 134,184.5C 132.055,186.181 130.055,186.848 128,186.5C 127.147,188.125 126.147,188.458 125,187.5C 122.52,188.812 120.02,189.812 117.5,190.5C 116.778,190.918 116.278,191.584 116,192.5C 115.333,189.833 114.667,189.833 114,192.5C 113.309,190.109 112.309,190.109 111,192.5C 109.691,190.109 108.691,190.109 108,192.5C 106.667,191.167 105.333,191.167 104,192.5C 103.667,191.833 103.333,191.167 103,190.5C 102.333,193.167 101.667,193.167 101,190.5C 100.259,191.641 99.4255,191.641 98.5,190.5C 97.5224,190.977 96.6891,191.643 96,192.5C 93.4139,191.467 90.5805,190.134 87.5,188.5C 87.5,187.833 87.5,187.167 87.5,186.5C 89.4818,186.795 91.4818,187.129 93.5,187.5C 94.5178,186.807 95.5178,186.141 96.5,185.5C 97.2216,185.082 97.7216,184.416 98,183.5C 98.2784,184.416 98.7784,185.082 99.5,185.5C 100.738,185.81 100.738,186.31 99.5,187C 101.584,187.478 103.417,188.311 105,189.5C 106.261,189.241 107.261,188.574 108,187.5C 108.689,188.357 109.522,189.023 110.5,189.5C 117.611,187.24 124.111,185.573 130,184.5C 131.667,183.5 133.333,182.5 135,181.5C 135.333,181.833 135.667,182.167 136,182.5C 138.412,180.876 141.079,178.876 144,176.5C 144.333,176.833 144.667,177.167 145,177.5C 147.333,174.833 149.667,172.167 152,169.5C 152.708,170.381 153.542,171.047 154.5,171.5 Z"/></g>
<g><path style="opacity:1" fill="#c2c5a4" d="M 109.5,168.5 C 109.725,172.056 108.892,172.39 107,169.5C 105.523,170.444 104.523,171.777 104,173.5C 103.667,172.833 103.333,172.167 103,171.5C 102.276,173.959 100.943,174.959 99,174.5C 96.8431,176.817 95.3431,179.484 94.5,182.5C 93.7784,182.082 93.2784,181.416 93,180.5C 92.6667,181.5 92.3333,182.5 92,183.5C 91.3086,181.109 90.3086,181.109 89,183.5C 87.6667,182.167 86.3333,182.167 85,183.5C 84.2917,182.619 83.4584,181.953 82.5,181.5C 83.1667,180.167 84.1667,179.167 85.5,178.5C 86.9498,180.986 88.1165,180.653 89,177.5C 89.3333,178.167 89.6667,178.833 90,179.5C 90.6667,177.5 91.3333,175.5 92,173.5C 92.3333,174.5 92.6667,175.5 93,176.5C 93.2735,174.671 94.1068,173.171 95.5,172C 94.6721,171.085 93.6721,170.419 92.5,170C 93.4158,169.722 94.0825,169.222 94.5,168.5C 96.0847,168.015 97.5847,168.681 99,170.5C 99.3076,169.692 99.8076,169.025 100.5,168.5C 103.299,169.078 106.299,169.078 109.5,168.5 Z"/></g>
<g><path style="opacity:1" fill="#caccb2" d="M 140.5,157.5 C 139.68,159.14 138.847,160.807 138,162.5C 137.333,161.167 136.667,161.167 136,162.5C 135.517,163.448 135.351,164.448 135.5,165.5C 133.61,165.297 132.11,165.963 131,167.5C 129.442,166.655 128.442,167.321 128,169.5C 127.667,168.833 127.333,168.167 127,167.5C 125.988,169.864 124.655,171.198 123,171.5C 122.667,170.833 122.333,170.167 122,169.5C 120.903,171.053 119.57,172.386 118,173.5C 116.602,172.949 115.268,172.616 114,172.5C 113.683,174.301 113.016,174.634 112,173.5C 111.072,175.335 109.906,175.668 108.5,174.5C 106.566,174.901 105.066,175.901 104,177.5C 103.667,177.167 103.333,176.833 103,176.5C 101.682,177.901 100.515,179.735 99.5,182C 100.737,182.232 101.737,182.732 102.5,183.5C 100.821,183.285 99.8212,183.952 99.5,185.5C 98.7784,185.082 98.2784,184.416 98,183.5C 97.7216,184.416 97.2216,185.082 96.5,185.5C 96.573,183.973 95.9063,182.973 94.5,182.5C 95.3431,179.484 96.8431,176.817 99,174.5C 100.943,174.959 102.276,173.959 103,171.5C 103.333,172.167 103.667,172.833 104,173.5C 104.523,171.777 105.523,170.444 107,169.5C 108.892,172.39 109.725,172.056 109.5,168.5C 110.222,168.918 110.722,169.584 111,170.5C 111.317,168.699 111.984,168.366 113,169.5C 113.708,168.619 114.542,167.953 115.5,167.5C 118.28,167.548 120.78,166.881 123,165.5C 123.772,165.645 124.439,165.978 125,166.5C 127.015,164.083 129.015,162.416 131,161.5C 132.073,162.28 133.24,162.113 134.5,161C 136.39,158.791 138.39,157.624 140.5,157.5 Z"/></g>
<g><path style="opacity:1" fill="#d3d4bf" d="M 160.5,146.5 C 145.754,165.881 126.421,178.215 102.5,183.5C 101.737,182.732 100.737,182.232 99.5,182C 100.515,179.735 101.682,177.901 103,176.5C 103.333,176.833 103.667,177.167 104,177.5C 105.066,175.901 106.566,174.901 108.5,174.5C 109.906,175.668 111.072,175.335 112,173.5C 113.016,174.634 113.683,174.301 114,172.5C 115.268,172.616 116.602,172.949 118,173.5C 119.57,172.386 120.903,171.053 122,169.5C 122.333,170.167 122.667,170.833 123,171.5C 124.655,171.198 125.988,169.864 127,167.5C 127.333,168.167 127.667,168.833 128,169.5C 128.442,167.321 129.442,166.655 131,167.5C 132.11,165.963 133.61,165.297 135.5,165.5C 136.397,164.402 137.23,164.402 138,165.5C 139.672,162.486 141.672,160.486 144,159.5C 144.914,160.654 145.747,160.487 146.5,159C 149.799,156.295 152.799,152.628 155.5,148C 157.025,146.991 158.692,146.491 160.5,146.5 Z"/></g>
<g><path style="opacity:1" fill="#bfc4af" d="M 143.5,150.5 C 144.833,150.5 145.5,151.167 145.5,152.5C 144.883,152.389 144.383,152.056 144,151.5C 142.418,153.287 141.251,155.287 140.5,157.5C 138.39,157.624 136.39,158.791 134.5,161C 133.24,162.113 132.073,162.28 131,161.5C 129.015,162.416 127.015,164.083 125,166.5C 124.439,165.978 123.772,165.645 123,165.5C 120.78,166.881 118.28,167.548 115.5,167.5C 114.89,166.609 114.557,165.609 114.5,164.5C 114.369,163.624 114.702,162.957 115.5,162.5C 116.716,163.002 117.883,163.335 119,163.5C 120.012,161.136 121.345,159.802 123,159.5C 123.974,161.878 124.641,161.544 125,158.5C 125.667,161.167 126.333,161.167 127,158.5C 128.558,159.345 129.558,158.679 130,156.5C 131.007,158.742 131.841,158.408 132.5,155.5C 133.794,154.71 134.961,153.71 136,152.5C 136.333,152.833 136.667,153.167 137,153.5C 137.667,152.167 138.333,150.833 139,149.5C 139.333,150.167 139.667,150.833 140,151.5C 140.704,149.273 141.871,148.94 143.5,150.5 Z"/></g>
<g><path style="opacity:1" fill="#fbfbfa" d="M 102.5,183.5 C 126.421,178.215 145.754,165.881 160.5,146.5C 161.429,145.064 162.595,143.731 164,142.5C 154.439,169.179 135.272,183.179 106.5,184.5C 104.955,184.489 103.622,184.156 102.5,183.5 Z"/></g>
<g><path style="opacity:1" fill="#cbcebe" d="M 155.5,170.5 C 154.833,170.5 154.5,170.833 154.5,171.5C 153.542,171.047 152.708,170.381 152,169.5C 149.667,172.167 147.333,174.833 145,177.5C 144.667,177.167 144.333,176.833 144,176.5C 141.079,178.876 138.412,180.876 136,182.5C 135.667,182.167 135.333,181.833 135,181.5C 133.333,182.5 131.667,183.5 130,184.5C 124.111,185.573 117.611,187.24 110.5,189.5C 109.522,189.023 108.689,188.357 108,187.5C 107.261,188.574 106.261,189.241 105,189.5C 103.417,188.311 101.584,187.478 99.5,187C 100.738,186.31 100.738,185.81 99.5,185.5C 99.8212,183.952 100.821,183.285 102.5,183.5C 103.622,184.156 104.955,184.489 106.5,184.5C 135.272,183.179 154.439,169.179 164,142.5C 162.595,143.731 161.429,145.064 160.5,146.5C 158.692,146.491 157.025,146.991 155.5,148C 152.799,152.628 149.799,156.295 146.5,159C 145.747,160.487 144.914,160.654 144,159.5C 141.672,160.486 139.672,162.486 138,165.5C 137.23,164.402 136.397,164.402 135.5,165.5C 135.351,164.448 135.517,163.448 136,162.5C 136.667,161.167 137.333,161.167 138,162.5C 138.847,160.807 139.68,159.14 140.5,157.5C 141.251,155.287 142.418,153.287 144,151.5C 144.383,152.056 144.883,152.389 145.5,152.5C 147.982,150.85 150.316,149.017 152.5,147C 150.122,146.026 150.456,145.359 153.5,145C 153.167,144.667 152.833,144.333 152.5,144C 155.544,143.641 155.878,142.974 153.5,142C 154.967,140.902 155.801,139.402 156,137.5C 156.333,138.167 156.667,138.833 157,139.5C 157.333,138.167 157.667,136.833 158,135.5C 159.147,136.458 160.147,136.125 161,134.5C 162.645,134.693 164.479,134.86 166.5,135C 165.273,136.587 165.606,137.921 167.5,139C 166.289,140.113 166.289,141.28 167.5,142.5C 165.757,144.593 165.09,146.76 165.5,149C 166.167,149.333 166.833,149.667 167.5,150C 164.844,151.003 163.844,152.67 164.5,155C 161.854,158.484 159.354,161.984 157,165.5C 156.097,166.701 154.931,167.535 153.5,168C 154.381,168.708 155.047,169.542 155.5,170.5 Z"/></g>
<g><path style="opacity:0.263" fill="#aabac2" d="M 84.5,195.5 C 72.7692,194.591 62.1026,190.924 52.5,184.5C 52.56,183.957 52.8933,183.624 53.5,183.5C 63.2465,188.787 73.2465,192.287 83.5,194C 84.056,194.383 84.3893,194.883 84.5,195.5 Z"/></g>
</svg>
