<?xml version="1.0" encoding="UTF-8"?>
<!DOCTYPE svg PUBLIC "-//W3C//DTD SVG 1.1//EN" "http://www.w3.org/Graphics/SVG/1.1/DTD/svg11.dtd">
<svg xmlns="http://www.w3.org/2000/svg" version="1.1" width="200px" height="200px" style="shape-rendering:geometricPrecision; text-rendering:geometricPrecision; image-rendering:optimizeQuality; fill-rule:evenodd; clip-rule:evenodd" xmlns:xlink="http://www.w3.org/1999/xlink">
<g><path style="opacity:0.012" fill="#db7c34" d="M 100.5,11.5 C 101.833,12.1667 101.833,12.1667 100.5,11.5 Z"/></g>
<g><path style="opacity:0.012" fill="#db7c34" d="M 103.5,12.5 C 102.833,11.1667 102.833,11.1667 103.5,12.5 Z"/></g>
<g><path style="opacity:0.012" fill="#db7c34" d="M 100.5,12.5 C 100.5,12.8333 100.5,13.1667 100.5,13.5C 99.8299,13.0187 99.8299,12.6853 100.5,12.5 Z"/></g>
<g><path style="opacity:0.012" fill="#db7c34" d="M 103.5,12.5 C 104.833,13.1667 104.833,13.1667 103.5,12.5 Z"/></g>
<g><path style="opacity:0.012" fill="#db7c34" d="M 105.5,13.5 C 106.833,14.1667 106.833,14.1667 105.5,13.5 Z"/></g>
<g><path style="opacity:0.012" fill="#db7c34" d="M 107.5,15.5 C 108.833,16.1667 108.833,16.1667 107.5,15.5 Z"/></g>
<g><path style="opacity:0.012" fill="#db7c34" d="M 110.5,17.5 C 111.833,18.1667 111.833,18.1667 110.5,17.5 Z"/></g>
<g><path style="opacity:1" fill="#a22a23" d="M 103.5,14.5 C 104.71,14.9321 105.71,15.5987 106.5,16.5C 107.066,18.0783 108.066,19.4116 109.5,20.5C 110.36,24.8288 110.694,28.9955 110.5,33C 108.528,48.3264 106.194,63.493 103.5,78.5C 103.5,66.8333 103.5,55.1667 103.5,43.5C 103.5,33.8333 103.5,24.1667 103.5,14.5 Z"/></g>
<g><path style="opacity:0.012" fill="#db7c34" d="M 112.5,18.5 C 113.833,19.1667 113.833,19.1667 112.5,18.5 Z"/></g>
<g><path style="opacity:0.012" fill="#db7c34" d="M 114.5,20.5 C 115.833,21.1667 115.833,21.1667 114.5,20.5 Z"/></g>
<g><path style="opacity:0.012" fill="#db7c34" d="M 117.5,22.5 C 118.833,23.1667 118.833,23.1667 117.5,22.5 Z"/></g>
<g><path style="opacity:1" fill="#b13129" d="M 106.5,16.5 C 106.833,16.5 107.167,16.5 107.5,16.5C 108.29,17.4013 109.29,18.0679 110.5,18.5C 111.436,19.9744 112.77,20.9744 114.5,21.5C 114.5,21.8333 114.5,22.1667 114.5,22.5C 114.511,24.0174 115.177,25.1841 116.5,26C 116.063,28.2173 116.063,30.5506 116.5,33C 115.282,34.4382 114.615,36.1049 114.5,38C 114.118,41.9057 114.118,45.5723 114.5,49C 110.17,65.8273 107.836,82.994 107.5,100.5C 106.71,101.401 105.71,102.068 104.5,102.5C 103.508,94.6841 103.174,86.6841 103.5,78.5C 106.194,63.493 108.528,48.3264 110.5,33C 110.694,28.9955 110.36,24.8288 109.5,20.5C 108.066,19.4116 107.066,18.0783 106.5,16.5 Z"/></g>
<g><path style="opacity:1" fill="#fce7c4" d="M 93.5,19.5 C 92.8333,20.5 92.1667,21.5 91.5,22.5C 85.1185,39.8665 83.1185,57.5331 85.5,75.5C 84.8333,75.1667 84.1667,74.8333 83.5,74.5C 83.1218,72.079 82.4552,69.7457 81.5,67.5C 81.2317,64.8806 81.565,62.3806 82.5,60C 80.7581,55.3217 80.2581,50.4883 81,45.5C 82.1242,38.2975 83.9575,31.2975 86.5,24.5C 88.5496,22.4525 90.883,20.7859 93.5,19.5 Z"/></g>
<g><path style="opacity:0.012" fill="#db7c34" d="M 124.5,27.5 C 125.833,28.1667 125.833,28.1667 124.5,27.5 Z"/></g>
<g><path style="opacity:1" fill="#fdf2e0" d="M 91.5,22.5 C 92.6324,26.8775 93.6324,31.3775 94.5,36C 93.8333,37 93.1667,38 92.5,39C 92.0618,42.2088 92.0618,45.5421 92.5,49C 91.8333,50 91.1667,51 90.5,52C 90.5,54.6667 90.5,57.3333 90.5,60C 91.1667,61.3333 91.8333,62.6667 92.5,64C 92.2521,71.6373 91.9188,78.804 91.5,85.5C 92.9075,89.9865 95.0741,93.9865 98,97.5C 98.3095,96.2341 98.8095,95.0674 99.5,94C 99.1667,93 98.8333,92 98.5,91C 99.8017,74.4183 100.802,57.9183 101.5,41.5C 101.5,62.5 101.5,83.5 101.5,104.5C 101.158,105.338 100.492,105.672 99.5,105.5C 92.2308,101.92 84.5642,99.0866 76.5,97C 78.7695,96.2419 80.9361,96.4086 83,97.5C 85.3695,96.2736 87.5362,95.4403 89.5,95C 89.152,92.9455 89.8186,90.9455 91.5,89C 90.8195,85.7581 89.4861,82.9248 87.5,80.5C 86.8333,78.8333 86.1667,77.1667 85.5,75.5C 83.1185,57.5331 85.1185,39.8665 91.5,22.5 Z"/></g>
<g><path style="opacity:1" fill="#be382f" d="M 114.5,22.5 C 115.609,22.5569 116.609,22.8902 117.5,23.5C 119.531,25.5224 121.865,27.1891 124.5,28.5C 126.531,30.5224 128.865,32.1891 131.5,33.5C 132.29,34.4013 133.29,35.0679 134.5,35.5C 135.436,36.9744 136.77,37.9744 138.5,38.5C 139.29,39.4013 140.29,40.0679 141.5,40.5C 142.795,41.4884 144.128,42.4884 145.5,43.5C 146.29,44.4013 147.29,45.0679 148.5,45.5C 149.795,46.4884 151.128,47.4884 152.5,48.5C 152.5,48.8333 152.5,49.1667 152.5,49.5C 138.167,66.1667 123.833,82.8333 109.5,99.5C 109.158,100.338 108.492,100.672 107.5,100.5C 107.836,82.994 110.17,65.8273 114.5,49C 114.118,45.5723 114.118,41.9057 114.5,38C 114.615,36.1049 115.282,34.4382 116.5,33C 116.063,30.5506 116.063,28.2173 116.5,26C 115.177,25.1841 114.511,24.0174 114.5,22.5 Z"/></g>
<g><path style="opacity:1" fill="#fbe0b3" d="M 86.5,24.5 C 83.9575,31.2975 82.1242,38.2975 81,45.5C 80.2581,50.4883 80.7581,55.3217 82.5,60C 81.565,62.3806 81.2317,64.8806 81.5,67.5C 80.8333,66.8333 80.1667,66.1667 79.5,65.5C 75.6569,57.1412 71.3236,49.1412 66.5,41.5C 66.8333,40.1667 67.1667,38.8333 67.5,37.5C 73.5768,32.7504 79.9102,28.4171 86.5,24.5 Z"/></g>
<g><path style="opacity:0.012" fill="#db7c34" d="M 131.5,32.5 C 132.833,33.1667 132.833,33.1667 131.5,32.5 Z"/></g>
<g><path style="opacity:0.012" fill="#db7c34" d="M 134.5,34.5 C 135.833,35.1667 135.833,35.1667 134.5,34.5 Z"/></g>
<g><path style="opacity:0.012" fill="#db7c34" d="M 136.5,35.5 C 137.833,36.1667 137.833,36.1667 136.5,35.5 Z"/></g>
<g><path style="opacity:1" fill="#fefaf2" d="M 100.5,14.5 C 101.493,23.3178 101.827,32.3178 101.5,41.5C 100.802,57.9183 99.8017,74.4183 98.5,91C 98.8333,92 99.1667,93 99.5,94C 98.8095,95.0674 98.3095,96.2341 98,97.5C 95.0741,93.9865 92.9075,89.9865 91.5,85.5C 91.9188,78.804 92.2521,71.6373 92.5,64C 91.8333,62.6667 91.1667,61.3333 90.5,60C 90.5,57.3333 90.5,54.6667 90.5,52C 91.1667,51 91.8333,50 92.5,49C 92.0618,45.5421 92.0618,42.2088 92.5,39C 93.1667,38 93.8333,37 94.5,36C 93.6324,31.3775 92.6324,26.8775 91.5,22.5C 92.1667,21.5 92.8333,20.5 93.5,19.5C 95.5496,17.4525 97.883,15.7859 100.5,14.5 Z"/></g>
<g><path style="opacity:0.012" fill="#db7c34" d="M 138.5,37.5 C 139.833,38.1667 139.833,38.1667 138.5,37.5 Z"/></g>
<g><path style="opacity:0.012" fill="#db7c34" d="M 141.5,39.5 C 142.833,40.1667 142.833,40.1667 141.5,39.5 Z"/></g>
<g><path style="opacity:1" fill="#f4b434" d="M 66.5,41.5 C 71.3236,49.1412 75.6569,57.1412 79.5,65.5C 79.3354,68.5184 79.502,71.5184 80,74.5C 80.5,75 81,75.5 81.5,76C 81.5385,77.2447 81.2052,78.5781 80.5,80C 80.7591,81.2613 81.4258,82.2613 82.5,83C 81.8095,84.0674 81.3095,85.2341 81,86.5C 80.6174,85.944 80.1174,85.6107 79.5,85.5C 76.1951,81.8592 72.8617,78.1925 69.5,74.5C 69.3932,72.6214 69.8932,72.2881 71,73.5C 72.6883,72.6753 72.8549,71.6753 71.5,70.5C 72.4755,67.7478 73.1421,65.2478 73.5,63C 69.3563,55.8995 66.523,48.3995 65,40.5C 65.3826,41.056 65.8826,41.3893 66.5,41.5 Z"/></g>
<g><path style="opacity:0.012" fill="#db7c34" d="M 145.5,42.5 C 146.833,43.1667 146.833,43.1667 145.5,42.5 Z"/></g>
<g><path style="opacity:1" fill="#efa728" d="M 67.5,37.5 C 67.1667,38.8333 66.8333,40.1667 66.5,41.5C 65.8826,41.3893 65.3826,41.056 65,40.5C 66.523,48.3995 69.3563,55.8995 73.5,63C 73.1421,65.2478 72.4755,67.7478 71.5,70.5C 72.8549,71.6753 72.6883,72.6753 71,73.5C 69.8932,72.2881 69.3932,72.6214 69.5,74.5C 66.1667,71.8333 63.1667,68.8333 60.5,65.5C 62.7666,63.5095 64.0999,61.3428 64.5,59C 62.4873,57.2087 62.4873,55.8753 64.5,55C 63.8333,54.6667 63.1667,54.3333 62.5,54C 62.8333,53 63.1667,52 63.5,51C 62.5,48.6667 61.5,46.3333 60.5,44C 61.056,43.6174 61.3893,43.1174 61.5,42.5C 63.0905,40.3674 65.0905,38.7007 67.5,37.5 Z"/></g>
<g><path style="opacity:0.012" fill="#db7c34" d="M 148.5,44.5 C 149.833,45.1667 149.833,45.1667 148.5,44.5 Z"/></g>
<g><path style="opacity:1" fill="#ea9425" d="M 61.5,42.5 C 61.3893,43.1174 61.056,43.6174 60.5,44C 61.5,46.3333 62.5,48.6667 63.5,51C 63.1667,52 62.8333,53 62.5,54C 63.1667,54.3333 63.8333,54.6667 64.5,55C 62.4873,55.8753 62.4873,57.2087 64.5,59C 64.0999,61.3428 62.7666,63.5095 60.5,65.5C 58.8333,64.1667 57.1667,62.8333 55.5,61.5C 53.6024,59.6174 51.7691,57.6174 50,55.5C 50.7712,53.82 50.6045,52.1533 49.5,50.5C 53.2458,47.4152 57.2458,44.7485 61.5,42.5 Z"/></g>
<g><path style="opacity:0.012" fill="#db7c34" d="M 152.5,47.5 C 153.833,48.1667 153.833,48.1667 152.5,47.5 Z"/></g>
<g><path style="opacity:0.012" fill="#db7c34" d="M 155.5,49.5 C 156.833,50.1667 156.833,50.1667 155.5,49.5 Z"/></g>
<g><path style="opacity:1" fill="#bd4b2f" d="M 152.5,49.5 C 153.609,49.5569 154.609,49.8902 155.5,50.5C 156.795,51.4884 158.128,52.4884 159.5,53.5C 160.29,54.4013 161.29,55.0679 162.5,55.5C 162.5,56.1667 162.833,56.5 163.5,56.5C 146.125,71.5331 128.125,85.8664 109.5,99.5C 123.833,82.8333 138.167,66.1667 152.5,49.5 Z"/></g>
<g><path style="opacity:0.012" fill="#db7c34" d="M 159.5,52.5 C 160.833,53.1667 160.833,53.1667 159.5,52.5 Z"/></g>
<g><path style="opacity:1" fill="#e68121" d="M 49.5,50.5 C 50.6045,52.1533 50.7712,53.82 50,55.5C 51.7691,57.6174 53.6024,59.6174 55.5,61.5C 53.4862,64.1943 51.9862,67.1943 51,70.5C 49.8661,66.8601 48.8661,67.1935 48,71.5C 47.3333,67.5 46.6667,67.5 46,71.5C 45.3333,68.8333 44.6667,68.8333 44,71.5C 42.6667,71.5 41.3333,71.5 40,71.5C 39.6667,72.1667 39.3333,72.8333 39,73.5C 38,73.1667 37,72.8333 36,72.5C 34.2387,74.3634 32.4054,75.03 30.5,74.5C 27.5231,73.9292 24.6897,72.9292 22,71.5C 21.3292,72.2524 20.4959,72.5858 19.5,72.5C 29.1956,64.8121 39.1956,57.4788 49.5,50.5 Z"/></g>
<g><path style="opacity:0.012" fill="#db7c34" d="M 162.5,54.5 C 163.833,55.1667 163.833,55.1667 162.5,54.5 Z"/></g>
<g><path style="opacity:1" fill="#e95d23" d="M 163.5,56.5 C 165.228,58.2255 167.228,59.5589 169.5,60.5C 171.531,62.5224 173.865,64.1891 176.5,65.5C 178.531,67.5224 180.865,69.1891 183.5,70.5C 183.5,70.8333 183.5,71.1667 183.5,71.5C 165.967,78.3679 148.634,85.7013 131.5,93.5C 125.424,95.8545 119.424,98.1878 113.5,100.5C 110.574,101.698 107.574,102.698 104.5,103.5C 104.5,103.167 104.5,102.833 104.5,102.5C 105.71,102.068 106.71,101.401 107.5,100.5C 108.492,100.672 109.158,100.338 109.5,99.5C 128.125,85.8664 146.125,71.5331 163.5,56.5 Z"/></g>
<g><path style="opacity:0.012" fill="#db7c34" d="M 169.5,59.5 C 170.833,60.1667 170.833,60.1667 169.5,59.5 Z"/></g>
<g><path style="opacity:1" fill="#b64d3f" d="M 103.5,43.5 C 103.5,55.1667 103.5,66.8333 103.5,78.5C 103.174,86.6841 103.508,94.6841 104.5,102.5C 104.5,102.833 104.5,103.167 104.5,103.5C 103.168,93.8564 102.501,83.8564 102.5,73.5C 102.5,63.3277 102.834,53.3277 103.5,43.5 Z"/></g>
<g><path style="opacity:1" fill="#ebab74" d="M 100.5,14.5 C 100.5,14.1667 100.5,13.8333 100.5,13.5C 101.5,13.5 102.5,13.5 103.5,13.5C 103.5,13.8333 103.5,14.1667 103.5,14.5C 103.5,24.1667 103.5,33.8333 103.5,43.5C 102.834,53.3277 102.5,63.3277 102.5,73.5C 102.501,83.8564 103.168,93.8564 104.5,103.5C 103.791,104.404 102.791,104.737 101.5,104.5C 101.5,83.5 101.5,62.5 101.5,41.5C 101.827,32.3178 101.493,23.3178 100.5,14.5 Z"/></g>
<g><path style="opacity:0.012" fill="#db7c34" d="M 176.5,64.5 C 177.833,65.1667 177.833,65.1667 176.5,64.5 Z"/></g>
<g><path style="opacity:1" fill="#ec8d21" d="M 55.5,61.5 C 57.1667,62.8333 58.8333,64.1667 60.5,65.5C 63.1667,68.8333 66.1667,71.8333 69.5,74.5C 72.8617,78.1925 76.1951,81.8592 79.5,85.5C 77.5819,86.8681 75.4152,87.8681 73,88.5C 70.1786,87.4902 67.012,87.4902 63.5,88.5C 58.0897,86.9741 52.7564,85.1407 47.5,83C 41.4936,80.6635 35.8269,77.8301 30.5,74.5C 32.4054,75.03 34.2387,74.3634 36,72.5C 37,72.8333 38,73.1667 39,73.5C 39.3333,72.8333 39.6667,72.1667 40,71.5C 41.3333,71.5 42.6667,71.5 44,71.5C 44.6667,68.8333 45.3333,68.8333 46,71.5C 46.6667,67.5 47.3333,67.5 48,71.5C 48.8661,67.1935 49.8661,66.8601 51,70.5C 51.9862,67.1943 53.4862,64.1943 55.5,61.5 Z"/></g>
<g><path style="opacity:0.012" fill="#db7c34" d="M 183.5,69.5 C 184.833,70.1667 184.833,70.1667 183.5,69.5 Z"/></g>
<g><path style="opacity:0.012" fill="#db7c34" d="M 186.5,71.5 C 187.833,72.1667 187.833,72.1667 186.5,71.5 Z"/></g>
<g><path style="opacity:1" fill="#ee9e3c" d="M 183.5,71.5 C 184.609,71.5569 185.609,71.8902 186.5,72.5C 187.436,73.9744 188.77,74.9744 190.5,75.5C 190.5,75.8333 190.5,76.1667 190.5,76.5C 190.53,77.4972 190.03,78.1639 189,78.5C 174.923,83.8031 160.757,88.8031 146.5,93.5C 148.649,91.2542 151.316,89.7542 154.5,89C 153.667,88.8333 152.833,88.6667 152,88.5C 145.218,90.4851 138.385,92.1518 131.5,93.5C 148.634,85.7013 165.967,78.3679 183.5,71.5 Z"/></g>
<g><path style="opacity:0.012" fill="#db7c34" d="M 188.5,72.5 C 189.833,73.1667 189.833,73.1667 188.5,72.5 Z"/></g>
<g><path style="opacity:0.012" fill="#db7c34" d="M 190.5,74.5 C 191.833,75.1667 191.833,75.1667 190.5,74.5 Z"/></g>
<g><path style="opacity:0.012" fill="#db7c34" d="M 193.5,77.5 C 194.833,78.1667 194.833,78.1667 193.5,77.5 Z"/></g>
<g><path style="opacity:1" fill="#f0aa2c" d="M 30.5,74.5 C 35.8269,77.8301 41.4936,80.6635 47.5,83C 52.7564,85.1407 58.0897,86.9741 63.5,88.5C 61.5662,89.5316 59.3995,90.1983 57,90.5C 50.3445,88.2252 43.5112,86.8918 36.5,86.5C 32.9986,85.0631 29.4986,83.3965 26,81.5C 25.6667,81.8333 25.3333,82.1667 25,82.5C 21.049,80.4682 16.8823,78.9682 12.5,78C 13.9423,77.6232 14.9423,76.7899 15.5,75.5C 16.2623,73.7376 17.5956,72.7376 19.5,72.5C 20.4959,72.5858 21.3292,72.2524 22,71.5C 24.6897,72.9292 27.5231,73.9292 30.5,74.5 Z"/></g>
<g><path style="opacity:1" fill="#f27d1e" d="M 190.5,76.5 C 191.791,76.2627 192.791,76.596 193.5,77.5C 192.662,77.8417 192.328,78.5084 192.5,79.5C 191.596,80.209 191.263,81.209 191.5,82.5C 190.596,83.209 190.263,84.209 190.5,85.5C 189.596,86.209 189.263,87.209 189.5,88.5C 189.167,88.5 188.833,88.5 188.5,88.5C 182.041,91.033 175.041,93.1996 167.5,95C 165.714,95.7845 164.214,96.9512 163,98.5C 161.602,97.9491 160.268,97.6158 159,97.5C 158.215,99.286 157.049,100.786 155.5,102C 156.672,102.419 157.672,103.085 158.5,104C 156.551,104.318 154.551,105.151 152.5,106.5C 144.001,106.396 135.167,106.396 126,106.5C 123.198,105.67 120.365,104.837 117.5,104C 119.858,102.724 122.192,101.558 124.5,100.5C 131.695,97.7684 139.029,95.435 146.5,93.5C 160.757,88.8031 174.923,83.8031 189,78.5C 190.03,78.1639 190.53,77.4972 190.5,76.5 Z"/></g>
<g><path style="opacity:0.012" fill="#db7c34" d="M 192.5,79.5 C 193.525,79.8966 193.692,80.5632 193,81.5C 192.536,80.9056 192.369,80.2389 192.5,79.5 Z"/></g>
<g><path style="opacity:1" fill="#ec973c" d="M 15.5,75.5 C 14.9423,76.7899 13.9423,77.6232 12.5,78C 16.8823,78.9682 21.049,80.4682 25,82.5C 25.3333,82.1667 25.6667,81.8333 26,81.5C 29.4986,83.3965 32.9986,85.0631 36.5,86.5C 28.5084,84.8372 20.5084,83.1706 12.5,81.5C 11.7784,81.0825 11.2784,80.4158 11,79.5C 9.75349,81.8808 9.42015,81.5475 10,78.5C 10.9147,77.6721 11.5814,76.6721 12,75.5C 12.9862,76.1712 14.1529,76.1712 15.5,75.5 Z"/></g>
<g><path style="opacity:0.012" fill="#db7c34" d="M 191.5,82.5 C 192.525,82.8966 192.692,83.5632 192,84.5C 191.536,83.9056 191.369,83.2389 191.5,82.5 Z"/></g>
<g><path style="opacity:0.012" fill="#db7c34" d="M 12.5,84.5 C 12.631,85.2389 12.4643,85.9056 12,86.5C 11.3083,85.5632 11.475,84.8966 12.5,84.5 Z"/></g>
<g><path style="opacity:0.012" fill="#db7c34" d="M 190.5,85.5 C 191.833,86.5 191.833,87.5 190.5,88.5C 190.5,87.5 190.5,86.5 190.5,85.5 Z"/></g>
<g><path style="opacity:0.012" fill="#db7c34" d="M 13.5,87.5 C 13.631,88.2389 13.4643,88.9056 13,89.5C 12.3083,88.5632 12.475,87.8966 13.5,87.5 Z"/></g>
<g><path style="opacity:1" fill="#c8542d" d="M 12.5,81.5 C 20.5084,83.1706 28.5084,84.8372 36.5,86.5C 41.3658,89.156 46.6992,90.8226 52.5,91.5C 53.4293,92.3149 54.4293,93.1482 55.5,94C 62.8746,95.2938 69.8746,97.4604 76.5,100.5C 79.5841,102.236 82.2508,103.902 84.5,105.5C 82.1293,107.392 79.6293,107.725 77,106.5C 72.559,108.703 68.2257,108.703 64,106.5C 61.3333,106.5 58.6667,106.5 56,106.5C 55.1612,107.624 53.9945,108.291 52.5,108.5C 45.9518,107.961 39.7851,107.627 34,107.5C 33.3333,110.167 32.6667,110.167 32,107.5C 31,108.167 30,108.833 29,109.5C 27.3296,109.656 25.663,108.99 24,107.5C 22.9889,108.056 22.1556,108.722 21.5,109.5C 21.6716,108.508 21.3382,107.842 20.5,107.5C 20.1667,104.833 19.8333,104.833 19.5,107.5C 18.596,106.791 18.2627,105.791 18.5,104.5C 19.6783,102.662 19.345,100.995 17.5,99.5C 17.7373,98.209 17.404,97.209 16.5,96.5C 16.7373,95.209 16.404,94.209 15.5,93.5C 15.7373,92.209 15.404,91.209 14.5,90.5C 14.7373,89.209 14.404,88.209 13.5,87.5C 13.7373,86.209 13.404,85.209 12.5,84.5C 12.5,83.5 12.5,82.5 12.5,81.5 Z"/></g>
<g><path style="opacity:1" fill="#f5b95e" d="M 79.5,65.5 C 80.1667,66.1667 80.8333,66.8333 81.5,67.5C 82.4552,69.7457 83.1218,72.079 83.5,74.5C 83.6653,78.1817 83.4986,81.8484 83,85.5C 82.3892,87.7501 81.0559,89.4168 79,90.5C 78.6667,90.1667 78.3333,89.8333 78,89.5C 71.0371,90.0487 64.5371,91.0487 58.5,92.5C 56.5,92.1667 54.5,91.8333 52.5,91.5C 46.6992,90.8226 41.3658,89.156 36.5,86.5C 43.5112,86.8918 50.3445,88.2252 57,90.5C 59.3995,90.1983 61.5662,89.5316 63.5,88.5C 67.012,87.4902 70.1786,87.4902 73,88.5C 75.4152,87.8681 77.5819,86.8681 79.5,85.5C 80.1174,85.6107 80.6174,85.944 81,86.5C 81.3095,85.2341 81.8095,84.0674 82.5,83C 81.4258,82.2613 80.7591,81.2613 80.5,80C 81.2052,78.5781 81.5385,77.2447 81.5,76C 81,75.5 80.5,75 80,74.5C 79.502,71.5184 79.3354,68.5184 79.5,65.5 Z"/></g>
<g><path style="opacity:1" fill="#f9d295" d="M 83.5,74.5 C 84.1667,74.8333 84.8333,75.1667 85.5,75.5C 86.1667,77.1667 86.8333,78.8333 87.5,80.5C 87.815,89.2307 83.6484,93.5641 75,93.5C 73.2494,92.8263 71.5827,92.493 70,92.5C 68.3775,93.0989 66.8775,93.7656 65.5,94.5C 63.0347,94.233 60.7014,93.5664 58.5,92.5C 64.5371,91.0487 71.0371,90.0487 78,89.5C 78.3333,89.8333 78.6667,90.1667 79,90.5C 81.0559,89.4168 82.3892,87.7501 83,85.5C 83.4986,81.8484 83.6653,78.1817 83.5,74.5 Z"/></g>
<g><path style="opacity:0.012" fill="#db7c34" d="M 189.5,88.5 C 189.833,88.5 190.167,88.5 190.5,88.5C 190.167,92.5 189.833,92.5 189.5,88.5 Z"/></g>
<g><path style="opacity:0.012" fill="#db7c34" d="M 14.5,90.5 C 14.631,91.2389 14.4643,91.9056 14,92.5C 13.3083,91.5632 13.475,90.8966 14.5,90.5 Z"/></g>
<g><path style="opacity:1" fill="#fbe3bc" d="M 87.5,80.5 C 89.4861,82.9248 90.8195,85.7581 91.5,89C 89.8186,90.9455 89.152,92.9455 89.5,95C 87.5362,95.4403 85.3695,96.2736 83,97.5C 80.9361,96.4086 78.7695,96.2419 76.5,97C 84.5642,99.0866 92.2308,101.92 99.5,105.5C 87.8033,102.6 76.47,98.9334 65.5,94.5C 66.8775,93.7656 68.3775,93.0989 70,92.5C 71.5827,92.493 73.2494,92.8263 75,93.5C 83.6484,93.5641 87.815,89.2307 87.5,80.5 Z"/></g>
<g><path style="opacity:1" fill="#f3851d" d="M 188.5,88.5 C 188.007,90.8056 187.674,93.139 187.5,95.5C 186.596,96.209 186.263,97.209 186.5,98.5C 185.596,99.209 185.263,100.209 185.5,101.5C 184.596,102.209 184.263,103.209 184.5,104.5C 183.596,105.209 183.263,106.209 183.5,107.5C 182.596,108.209 182.263,109.209 182.5,110.5C 182.167,110.5 181.833,110.5 181.5,110.5C 181.698,108.425 181.865,106.425 182,104.5C 172.536,105.57 163.036,106.57 153.5,107.5C 152.893,107.376 152.56,107.043 152.5,106.5C 154.551,105.151 156.551,104.318 158.5,104C 157.672,103.085 156.672,102.419 155.5,102C 157.049,100.786 158.215,99.286 159,97.5C 160.268,97.6158 161.602,97.9491 163,98.5C 164.214,96.9512 165.714,95.7845 167.5,95C 175.041,93.1996 182.041,91.033 188.5,88.5 Z"/></g>
<g><path style="opacity:1" fill="#f4b163" d="M 146.5,93.5 C 139.029,95.435 131.695,97.7684 124.5,100.5C 123.833,100.5 123.167,100.5 122.5,100.5C 122.918,99.7784 123.584,99.2784 124.5,99C 123.833,98.8333 123.167,98.6667 122.5,98.5C 119.58,99.5856 116.58,100.252 113.5,100.5C 119.424,98.1878 125.424,95.8545 131.5,93.5C 138.385,92.1518 145.218,90.4851 152,88.5C 152.833,88.6667 153.667,88.8333 154.5,89C 151.316,89.7542 148.649,91.2542 146.5,93.5 Z"/></g>
<g><path style="opacity:0.012" fill="#db7c34" d="M 188.5,92.5 C 189.525,92.8966 189.692,93.5632 189,94.5C 188.536,93.9056 188.369,93.2389 188.5,92.5 Z"/></g>
<g><path style="opacity:0.012" fill="#db7c34" d="M 15.5,93.5 C 15.631,94.2389 15.4643,94.9056 15,95.5C 14.3083,94.5632 14.475,93.8966 15.5,93.5 Z"/></g>
<g><path style="opacity:0.012" fill="#db7c34" d="M 187.5,95.5 C 188.525,95.8966 188.692,96.5632 188,97.5C 187.536,96.9056 187.369,96.2389 187.5,95.5 Z"/></g>
<g><path style="opacity:0.012" fill="#db7c34" d="M 16.5,96.5 C 16.631,97.2389 16.4643,97.9056 16,98.5C 15.3083,97.5632 15.475,96.8966 16.5,96.5 Z"/></g>
<g><path style="opacity:1" fill="#eba76e" d="M 52.5,91.5 C 54.5,91.8333 56.5,92.1667 58.5,92.5C 60.7014,93.5664 63.0347,94.233 65.5,94.5C 76.47,98.9334 87.8033,102.6 99.5,105.5C 101.497,107.513 103.164,109.846 104.5,112.5C 104.167,112.5 103.833,112.5 103.5,112.5C 102.064,110.681 100.397,110.348 98.5,111.5C 96.0566,115.411 93.3899,119.078 90.5,122.5C 89.0755,124.031 88.4088,123.698 88.5,121.5C 91.4474,116.869 94.4474,112.202 97.5,107.5C 90.6957,104.565 83.6957,102.232 76.5,100.5C 69.8746,97.4604 62.8746,95.2938 55.5,94C 54.4293,93.1482 53.4293,92.3149 52.5,91.5 Z"/></g>
<g><path style="opacity:0.012" fill="#db7c34" d="M 186.5,98.5 C 187.525,98.8966 187.692,99.5632 187,100.5C 186.536,99.9056 186.369,99.2389 186.5,98.5 Z"/></g>
<g><path style="opacity:0.012" fill="#db7c34" d="M 17.5,99.5 C 17.631,100.239 17.4643,100.906 17,101.5C 16.3083,100.563 16.475,99.8966 17.5,99.5 Z"/></g>
<g><path style="opacity:0.012" fill="#db7c34" d="M 185.5,101.5 C 186.525,101.897 186.692,102.563 186,103.5C 185.536,102.906 185.369,102.239 185.5,101.5 Z"/></g>
<g><path style="opacity:0.012" fill="#db7c34" d="M 18.5,104.5 C 17.475,104.103 17.3083,103.437 18,102.5C 18.4643,103.094 18.631,103.761 18.5,104.5 Z"/></g>
<g><path style="opacity:1" fill="#cc5c2e" d="M 76.5,100.5 C 83.6957,102.232 90.6957,104.565 97.5,107.5C 94.4474,112.202 91.4474,116.869 88.5,121.5C 84.8333,125.833 81.1667,130.167 77.5,134.5C 77.121,133.194 76.7876,131.861 76.5,130.5C 66.6705,137.249 56.6705,143.749 46.5,150C 43.248,152.148 39.9146,152.981 36.5,152.5C 36.5654,152.062 36.3988,151.728 36,151.5C 35.6667,152.167 35.3333,152.833 35,153.5C 34.4054,152.101 34.5721,150.768 35.5,149.5C 35.0057,147.974 34.339,146.641 33.5,145.5C 33.7373,144.209 33.404,143.209 32.5,142.5C 32.7373,141.209 32.404,140.209 31.5,139.5C 31.405,137.214 30.7384,135.214 29.5,133.5C 29.0198,130.557 28.0198,127.89 26.5,125.5C 26.7373,124.209 26.404,123.209 25.5,122.5C 25.7373,121.209 25.404,120.209 24.5,119.5C 24.7373,118.209 24.404,117.209 23.5,116.5C 23.5875,113.402 23.0875,113.068 22,115.5C 21.5,114.5 21,113.5 20.5,112.5C 21.1667,112.167 21.8333,111.833 22.5,111.5C 22.1373,110.817 21.8039,110.15 21.5,109.5C 22.1556,108.722 22.9889,108.056 24,107.5C 25.663,108.99 27.3296,109.656 29,109.5C 30,108.833 31,108.167 32,107.5C 32.6667,110.167 33.3333,110.167 34,107.5C 39.7851,107.627 45.9518,107.961 52.5,108.5C 53.9945,108.291 55.1612,107.624 56,106.5C 58.6667,106.5 61.3333,106.5 64,106.5C 68.2257,108.703 72.559,108.703 77,106.5C 79.6293,107.725 82.1293,107.392 84.5,105.5C 82.2508,103.902 79.5841,102.236 76.5,100.5 Z"/></g>
<g><path style="opacity:0.012" fill="#db7c34" d="M 184.5,104.5 C 185.525,104.897 185.692,105.563 185,106.5C 184.536,105.906 184.369,105.239 184.5,104.5 Z"/></g>
<g><path style="opacity:1" fill="#f38d1d" d="M 122.5,100.5 C 123.167,100.5 123.833,100.5 124.5,100.5C 122.192,101.558 119.858,102.724 117.5,104C 120.365,104.837 123.198,105.67 126,106.5C 135.167,106.396 144.001,106.396 152.5,106.5C 152.56,107.043 152.893,107.376 153.5,107.5C 163.036,106.57 172.536,105.57 182,104.5C 181.865,106.425 181.698,108.425 181.5,110.5C 181.5,111.5 181.5,112.5 181.5,113.5C 180.596,114.209 180.263,115.209 180.5,116.5C 179.596,117.209 179.263,118.209 179.5,119.5C 178.076,121.515 177.41,123.848 177.5,126.5C 176.596,127.209 176.263,128.209 176.5,129.5C 175.596,130.209 175.263,131.209 175.5,132.5C 174.596,133.209 174.263,134.209 174.5,135.5C 173.596,136.209 173.263,137.209 173.5,138.5C 172.596,139.209 172.263,140.209 172.5,141.5C 171.596,142.209 171.263,143.209 171.5,144.5C 170.596,145.209 170.263,146.209 170.5,147.5C 169.596,148.209 169.263,149.209 169.5,150.5C 168.596,151.209 168.263,152.209 168.5,153.5C 167.262,155.214 166.595,157.214 166.5,159.5C 165.566,160.568 165.232,161.901 165.5,163.5C 165.167,163.5 164.833,163.5 164.5,163.5C 164.857,159.336 163.19,156.169 159.5,154C 149.702,145.602 139.368,137.935 128.5,131C 123.908,125.9 118.908,121.4 113.5,117.5C 110.495,114.682 107.828,111.516 105.5,108C 106.955,106.374 108.622,105.208 110.5,104.5C 114.5,103.167 118.5,101.833 122.5,100.5 Z"/></g>
<g><path style="opacity:0.012" fill="#db7c34" d="M 19.5,107.5 C 19.8333,107.5 20.1667,107.5 20.5,107.5C 20.1667,111.5 19.8333,111.5 19.5,107.5 Z"/></g>
<g><path style="opacity:0.012" fill="#db7c34" d="M 183.5,107.5 C 184.525,107.897 184.692,108.563 184,109.5C 183.536,108.906 183.369,108.239 183.5,107.5 Z"/></g>
<g><path style="opacity:0.012" fill="#db7c34" d="M 182.5,110.5 C 183.525,110.897 183.692,111.563 183,112.5C 182.536,111.906 182.369,111.239 182.5,110.5 Z"/></g>
<g><path style="opacity:1" fill="#d1622c" d="M 103.5,112.5 C 104.158,122.807 106.825,132.473 111.5,141.5C 111.692,144.601 112.358,147.601 113.5,150.5C 112.011,150.533 110.678,151.033 109.5,152C 112.018,154.52 113.685,157.52 114.5,161C 112.579,163.297 112.579,165.297 114.5,167C 114.167,167.333 113.833,167.667 113.5,168C 114.5,168.333 115.5,168.667 116.5,169C 115.446,170.388 115.28,171.888 116,173.5C 116.333,173.167 116.667,172.833 117,172.5C 117.121,174.727 117.954,176.56 119.5,178C 112.5,178.667 105.5,178.667 98.5,178C 99.5,177.667 100.5,177.333 101.5,177C 101.167,176 100.833,175 100.5,174C 101.308,173.692 101.975,173.192 102.5,172.5C 101.253,170.958 101.253,169.458 102.5,168C 101.234,167.691 100.067,167.191 99,166.5C 98.6667,167.167 98.3333,167.833 98,168.5C 98.0916,164.455 97.2582,160.455 95.5,156.5C 92.4141,163.175 90.4141,170.175 89.5,177.5C 78.1356,178.187 66.8023,178.854 55.5,179.5C 55.1667,179.167 54.8333,178.833 54.5,178.5C 63.5247,164.434 72.5247,150.434 81.5,136.5C 84.1057,131.565 87.1057,126.898 90.5,122.5C 93.3899,119.078 96.0566,115.411 98.5,111.5C 100.397,110.348 102.064,110.681 103.5,112.5 Z"/></g>
<g><path style="opacity:1" fill="#f8cc93" d="M 122.5,100.5 C 118.5,101.833 114.5,103.167 110.5,104.5C 108.139,104.674 105.806,105.007 103.5,105.5C 103.491,107.308 103.991,108.975 105,110.5C 107.814,113.176 109.814,116.176 111,119.5C 108.817,117.093 106.65,114.76 104.5,112.5C 103.164,109.846 101.497,107.513 99.5,105.5C 100.492,105.672 101.158,105.338 101.5,104.5C 102.791,104.737 103.791,104.404 104.5,103.5C 107.574,102.698 110.574,101.698 113.5,100.5C 116.58,100.252 119.58,99.5856 122.5,98.5C 123.167,98.6667 123.833,98.8333 124.5,99C 123.584,99.2784 122.918,99.7784 122.5,100.5 Z"/></g>
<g><path style="opacity:0.012" fill="#db7c34" d="M 181.5,113.5 C 182.833,114.5 182.833,115.5 181.5,116.5C 181.5,115.5 181.5,114.5 181.5,113.5 Z"/></g>
<g><path style="opacity:0.012" fill="#db7c34" d="M 23.5,116.5 C 23.631,117.239 23.4643,117.906 23,118.5C 22.3083,117.563 22.475,116.897 23.5,116.5 Z"/></g>
<g><path style="opacity:0.012" fill="#db7c34" d="M 180.5,116.5 C 180.833,116.5 181.167,116.5 181.5,116.5C 181.737,117.791 181.404,118.791 180.5,119.5C 180.5,118.5 180.5,117.5 180.5,116.5 Z"/></g>
<g><path style="opacity:1" fill="#d97426" d="M 103.5,112.5 C 103.833,112.5 104.167,112.5 104.5,112.5C 105.471,114.483 106.471,116.483 107.5,118.5C 107.851,122.701 110.017,125.701 114,127.5C 125.186,144.533 135.353,162.2 144.5,180.5C 143.5,180.5 142.5,180.5 141.5,180.5C 135.099,179.816 128.599,179.15 122,178.5C 119.483,168.431 116.816,157.764 114,146.5C 113.626,144.509 112.793,142.842 111.5,141.5C 106.825,132.473 104.158,122.807 103.5,112.5 Z"/></g>
<g><path style="opacity:0.012" fill="#db7c34" d="M 24.5,119.5 C 24.631,120.239 24.4643,120.906 24,121.5C 23.3083,120.563 23.475,119.897 24.5,119.5 Z"/></g>
<g><path style="opacity:0.012" fill="#db7c34" d="M 179.5,119.5 C 179.833,119.5 180.167,119.5 180.5,119.5C 180.167,123.5 179.833,123.5 179.5,119.5 Z"/></g>
<g><path style="opacity:0.012" fill="#db7c34" d="M 25.5,122.5 C 25.631,123.239 25.4643,123.906 25,124.5C 24.3083,123.563 24.475,122.897 25.5,122.5 Z"/></g>
<g><path style="opacity:0.012" fill="#db7c34" d="M 178.5,123.5 C 179.525,123.897 179.692,124.563 179,125.5C 178.536,124.906 178.369,124.239 178.5,123.5 Z"/></g>
<g><path style="opacity:0.012" fill="#db7c34" d="M 26.5,125.5 C 26.631,126.239 26.4643,126.906 26,127.5C 25.3083,126.563 25.475,125.897 26.5,125.5 Z"/></g>
<g><path style="opacity:0.012" fill="#db7c34" d="M 177.5,126.5 C 178.525,126.897 178.692,127.563 178,128.5C 177.536,127.906 177.369,127.239 177.5,126.5 Z"/></g>
<g><path style="opacity:0.012" fill="#db7c34" d="M 176.5,129.5 C 177.525,129.897 177.692,130.563 177,131.5C 176.536,130.906 176.369,130.239 176.5,129.5 Z"/></g>
<g><path style="opacity:1" fill="#d76627" d="M 77.5,134.5 C 75.2064,139.114 72.2064,143.114 68.5,146.5C 60.1526,155.85 52.1526,165.517 44.5,175.5C 44.5,174.833 44.1667,174.5 43.5,174.5C 43.5875,171.402 43.0875,171.068 42,173.5C 41.7101,166.789 39.8768,160.455 36.5,154.5C 36.5,153.833 36.5,153.167 36.5,152.5C 39.9146,152.981 43.248,152.148 46.5,150C 56.6705,143.749 66.6705,137.249 76.5,130.5C 76.7876,131.861 77.121,133.194 77.5,134.5 Z"/></g>
<g><path style="opacity:0.012" fill="#db7c34" d="M 175.5,132.5 C 176.525,132.897 176.692,133.563 176,134.5C 175.536,133.906 175.369,133.239 175.5,132.5 Z"/></g>
<g><path style="opacity:0.012" fill="#db7c34" d="M 29.5,133.5 C 29.6495,134.552 29.4828,135.552 29,136.5C 28.2599,135.251 28.4265,134.251 29.5,133.5 Z"/></g>
<g><path style="opacity:1" fill="#f5b75c" d="M 110.5,104.5 C 108.622,105.208 106.955,106.374 105.5,108C 107.828,111.516 110.495,114.682 113.5,117.5C 118.422,125.095 123.755,132.428 129.5,139.5C 129.629,141.216 129.962,142.883 130.5,144.5C 122.833,135.833 115.167,127.167 107.5,118.5C 106.471,116.483 105.471,114.483 104.5,112.5C 106.65,114.76 108.817,117.093 111,119.5C 109.814,116.176 107.814,113.176 105,110.5C 103.991,108.975 103.491,107.308 103.5,105.5C 105.806,105.007 108.139,104.674 110.5,104.5 Z"/></g>
<g><path style="opacity:0.012" fill="#db7c34" d="M 174.5,135.5 C 175.525,135.897 175.692,136.563 175,137.5C 174.536,136.906 174.369,136.239 174.5,135.5 Z"/></g>
<g><path style="opacity:0.012" fill="#db7c34" d="M 30.5,139.5 C 29.475,139.103 29.3083,138.437 30,137.5C 30.4643,138.094 30.631,138.761 30.5,139.5 Z"/></g>
<g><path style="opacity:1" fill="#ea9d58" d="M 88.5,121.5 C 88.4088,123.698 89.0755,124.031 90.5,122.5C 87.1057,126.898 84.1057,131.565 81.5,136.5C 70.025,150.771 59.025,165.437 48.5,180.5C 48.1667,180.5 47.8333,180.5 47.5,180.5C 48.9123,178.002 50.0789,175.336 51,172.5C 53.3333,170.833 55.3333,168.833 57,166.5C 60.3019,159.404 64.1352,152.737 68.5,146.5C 72.2064,143.114 75.2064,139.114 77.5,134.5C 81.1667,130.167 84.8333,125.833 88.5,121.5 Z"/></g>
<g><path style="opacity:0.012" fill="#db7c34" d="M 173.5,138.5 C 174.525,138.897 174.692,139.563 174,140.5C 173.536,139.906 173.369,139.239 173.5,138.5 Z"/></g>
<g><path style="opacity:0.012" fill="#db7c34" d="M 30.5,139.5 C 30.8333,139.5 31.1667,139.5 31.5,139.5C 31.1667,142.167 30.8333,142.167 30.5,139.5 Z"/></g>
<g><path style="opacity:0.012" fill="#db7c34" d="M 172.5,141.5 C 173.525,141.897 173.692,142.563 173,143.5C 172.536,142.906 172.369,142.239 172.5,141.5 Z"/></g>
<g><path style="opacity:0.012" fill="#db7c34" d="M 32.5,142.5 C 32.631,143.239 32.4643,143.906 32,144.5C 31.3083,143.563 31.475,142.897 32.5,142.5 Z"/></g>
<g><path style="opacity:1" fill="#f5a21f" d="M 113.5,117.5 C 118.908,121.4 123.908,125.9 128.5,131C 139.368,137.935 149.702,145.602 159.5,154C 163.19,156.169 164.857,159.336 164.5,163.5C 164.5,164.5 164.5,165.5 164.5,166.5C 163.596,167.209 163.263,168.209 163.5,169.5C 162.596,170.209 162.263,171.209 162.5,172.5C 161.596,173.209 161.263,174.209 161.5,175.5C 160.596,176.209 160.263,177.209 160.5,178.5C 160.167,178.5 159.833,178.5 159.5,178.5C 159.649,177.448 159.483,176.448 159,175.5C 148.924,163.602 139.091,151.602 129.5,139.5C 123.755,132.428 118.422,125.095 113.5,117.5 Z"/></g>
<g><path style="opacity:0.012" fill="#db7c34" d="M 171.5,144.5 C 172.525,144.897 172.692,145.563 172,146.5C 171.536,145.906 171.369,145.239 171.5,144.5 Z"/></g>
<g><path style="opacity:0.012" fill="#db7c34" d="M 33.5,145.5 C 33.631,146.239 33.4643,146.906 33,147.5C 32.3083,146.563 32.475,145.897 33.5,145.5 Z"/></g>
<g><path style="opacity:0.012" fill="#db7c34" d="M 170.5,147.5 C 171.833,148.5 171.833,149.5 170.5,150.5C 170.5,149.5 170.5,148.5 170.5,147.5 Z"/></g>
<g><path style="opacity:0.012" fill="#db7c34" d="M 169.5,150.5 C 169.833,150.5 170.167,150.5 170.5,150.5C 170.737,151.791 170.404,152.791 169.5,153.5C 169.5,152.5 169.5,151.5 169.5,150.5 Z"/></g>
<g><path style="opacity:1" fill="#e88d22" d="M 107.5,118.5 C 115.167,127.167 122.833,135.833 130.5,144.5C 138.931,157.048 147.931,169.048 157.5,180.5C 153.167,180.5 148.833,180.5 144.5,180.5C 135.353,162.2 125.186,144.533 114,127.5C 110.017,125.701 107.851,122.701 107.5,118.5 Z"/></g>
<g><path style="opacity:0.012" fill="#db7c34" d="M 168.5,153.5 C 168.833,153.5 169.167,153.5 169.5,153.5C 169.167,157.5 168.833,157.5 168.5,153.5 Z"/></g>
<g><path style="opacity:0.012" fill="#db7c34" d="M 36.5,154.5 C 36.631,155.239 36.4643,155.906 36,156.5C 35.3083,155.563 35.475,154.897 36.5,154.5 Z"/></g>
<g><path style="opacity:1" fill="#d4662b" d="M 81.5,136.5 C 72.5247,150.434 63.5247,164.434 54.5,178.5C 54.8333,178.833 55.1667,179.167 55.5,179.5C 66.8023,178.854 78.1356,178.187 89.5,177.5C 90.4141,170.175 92.4141,163.175 95.5,156.5C 97.2582,160.455 98.0916,164.455 98,168.5C 98.3333,167.833 98.6667,167.167 99,166.5C 100.067,167.191 101.234,167.691 102.5,168C 101.253,169.458 101.253,170.958 102.5,172.5C 101.975,173.192 101.308,173.692 100.5,174C 100.833,175 101.167,176 101.5,177C 100.5,177.333 99.5,177.667 98.5,178C 105.5,178.667 112.5,178.667 119.5,178C 117.954,176.56 117.121,174.727 117,172.5C 116.667,172.833 116.333,173.167 116,173.5C 115.28,171.888 115.446,170.388 116.5,169C 115.5,168.667 114.5,168.333 113.5,168C 113.833,167.667 114.167,167.333 114.5,167C 112.579,165.297 112.579,163.297 114.5,161C 113.685,157.52 112.018,154.52 109.5,152C 110.678,151.033 112.011,150.533 113.5,150.5C 112.358,147.601 111.692,144.601 111.5,141.5C 112.793,142.842 113.626,144.509 114,146.5C 116.816,157.764 119.483,168.431 122,178.5C 128.599,179.15 135.099,179.816 141.5,180.5C 110.5,180.5 79.5,180.5 48.5,180.5C 59.025,165.437 70.025,150.771 81.5,136.5 Z"/></g>
<g><path style="opacity:0.012" fill="#db7c34" d="M 36.5,157.5 C 37.525,157.897 37.6917,158.563 37,159.5C 36.5357,158.906 36.369,158.239 36.5,157.5 Z"/></g>
<g><path style="opacity:0.012" fill="#db7c34" d="M 167.5,159.5 C 167.369,158.761 167.536,158.094 168,157.5C 168.692,158.437 168.525,159.103 167.5,159.5 Z"/></g>
<g><path style="opacity:0.012" fill="#db7c34" d="M 166.5,159.5 C 166.833,159.5 167.167,159.5 167.5,159.5C 167.167,163.5 166.833,163.5 166.5,159.5 Z"/></g>
<g><path style="opacity:0.012" fill="#db7c34" d="M 37.5,160.5 C 38.525,160.897 38.6917,161.563 38,162.5C 37.5357,161.906 37.369,161.239 37.5,160.5 Z"/></g>
<g><path style="opacity:0.012" fill="#db7c34" d="M 165.5,163.5 C 166.525,163.897 166.692,164.563 166,165.5C 165.536,164.906 165.369,164.239 165.5,163.5 Z"/></g>
<g><path style="opacity:1" fill="#dd7c2f" d="M 68.5,146.5 C 64.1352,152.737 60.3019,159.404 57,166.5C 55.3333,168.833 53.3333,170.833 51,172.5C 50.0789,175.336 48.9123,178.002 47.5,180.5C 46.1001,179.9 45.1001,178.9 44.5,177.5C 44.5,176.833 44.5,176.167 44.5,175.5C 52.1526,165.517 60.1526,155.85 68.5,146.5 Z"/></g>
<g><path style="opacity:0.012" fill="#db7c34" d="M 164.5,166.5 C 165.525,166.897 165.692,167.563 165,168.5C 164.536,167.906 164.369,167.239 164.5,166.5 Z"/></g>
<g><path style="opacity:0.012" fill="#db7c34" d="M 163.5,169.5 C 164.525,169.897 164.692,170.563 164,171.5C 163.536,170.906 163.369,170.239 163.5,169.5 Z"/></g>
<g><path style="opacity:0.012" fill="#db7c34" d="M 162.5,172.5 C 163.525,172.897 163.692,173.563 163,174.5C 162.536,173.906 162.369,173.239 162.5,172.5 Z"/></g>
<g><path style="opacity:1" fill="#f5b235" d="M 129.5,139.5 C 139.091,151.602 148.924,163.602 159,175.5C 159.483,176.448 159.649,177.448 159.5,178.5C 159.5,179.833 158.833,180.5 157.5,180.5C 147.931,169.048 138.931,157.048 130.5,144.5C 129.962,142.883 129.629,141.216 129.5,139.5 Z"/></g>
<g><path style="opacity:0.012" fill="#db7c34" d="M 43.5,174.5 C 43.631,175.239 43.4643,175.906 43,176.5C 42.3083,175.563 42.475,174.897 43.5,174.5 Z"/></g>
<g><path style="opacity:0.012" fill="#db7c34" d="M 161.5,175.5 C 162.525,175.897 162.692,176.563 162,177.5C 161.536,176.906 161.369,176.239 161.5,175.5 Z"/></g>
<g><path style="opacity:0.012" fill="#db7c34" d="M 44.5,177.5 C 44.631,178.239 44.4643,178.906 44,179.5C 43.3083,178.563 43.475,177.897 44.5,177.5 Z"/></g>
<g><path style="opacity:0.012" fill="#db7c34" d="M 160.5,178.5 C 161.525,178.897 161.692,179.563 161,180.5C 160.536,179.906 160.369,179.239 160.5,178.5 Z"/></g>
</svg>
