<?xml version="1.0" encoding="UTF-8"?>
<!DOCTYPE svg PUBLIC "-//W3C//DTD SVG 1.1//EN" "http://www.w3.org/Graphics/SVG/1.1/DTD/svg11.dtd">
<svg xmlns="http://www.w3.org/2000/svg" version="1.1" width="200px" height="200px" style="shape-rendering:geometricPrecision; text-rendering:geometricPrecision; image-rendering:optimizeQuality; fill-rule:evenodd; clip-rule:evenodd" xmlns:xlink="http://www.w3.org/1999/xlink">
<g><path style="opacity:0.012" fill="#aa5b91" d="M 100.5,1.5 C 101.833,2.16667 101.833,2.16667 100.5,1.5 Z"/></g>
<g><path style="opacity:1" fill="#eec9df" d="M 101.5,3.5 C 101.5,8.5 101.5,13.5 101.5,18.5C 101.5,20.8333 101.5,23.1667 101.5,25.5C 99.9743,26.1047 98.9743,27.2714 98.5,29C 98.493,30.5827 98.8263,32.2494 99.5,34C 98.6789,44.4234 98.1789,54.9234 98,65.5C 96.4645,52.2409 95.1312,39.2409 94,26.5C 90.9806,26.0278 87.4806,26.0278 83.5,26.5C 83.0825,25.7784 82.4158,25.2784 81.5,25C 84.8333,21.6667 88.1667,18.3333 91.5,15C 91.2716,14.6012 90.9382,14.4346 90.5,14.5C 93.8333,10.5 97.5,6.83333 101.5,3.5 Z"/></g>
<g><path style="opacity:1" fill="#8e337a" d="M 101.5,3.5 C 117.133,19.4799 133.466,36.1466 150.5,53.5C 145.427,49.9344 140.76,45.7677 136.5,41C 135.551,40.3828 134.718,40.5494 134,41.5C 131.027,46.2458 128.527,51.2458 126.5,56.5C 129.463,57.8919 132.296,60.2252 135,63.5C 135.333,63.1667 135.667,62.8333 136,62.5C 137.459,64.4319 138.625,66.4319 139.5,68.5C 137.858,69.803 136.191,71.1363 134.5,72.5C 132.373,71.6024 131.206,69.9357 131,67.5C 130.667,67.8333 130.333,68.1667 130,68.5C 127.659,66.6705 125.159,65.0038 122.5,63.5C 121.359,62.5745 121.359,61.7412 122.5,61C 121.167,60.3333 120.167,59.3333 119.5,58C 117.873,58.4296 116.373,58.5963 115,58.5C 114.147,56.8753 113.147,56.5419 112,57.5C 110.716,56.4281 110.383,55.0948 111,53.5C 109,54.8333 107,56.1667 105,57.5C 104.51,56.2068 104.343,54.8734 104.5,53.5C 104.509,41.5954 103.509,29.9288 101.5,18.5C 101.5,13.5 101.5,8.5 101.5,3.5 Z"/></g>
<g><path style="opacity:1" fill="#f1d5e5" d="M 101.5,25.5 C 101.5,27.1667 101.5,28.8333 101.5,30.5C 100.507,39.3178 100.173,48.3178 100.5,57.5C 99.824,65.3716 98.9906,73.3716 98,81.5C 97.6667,81.8333 97.3333,82.1667 97,82.5C 95.6591,79.978 94.8257,77.3113 94.5,74.5C 91.142,58.4033 87.4753,42.4033 83.5,26.5C 87.4806,26.0278 90.9806,26.0278 94,26.5C 95.1312,39.2409 96.4645,52.2409 98,65.5C 98.1789,54.9234 98.6789,44.4234 99.5,34C 98.8263,32.2494 98.493,30.5827 98.5,29C 98.9743,27.2714 99.9743,26.1047 101.5,25.5 Z"/></g>
<g><path style="opacity:1" fill="#f6deec" d="M 90.5,14.5 C 90.9382,14.4346 91.2716,14.6012 91.5,15C 88.1667,18.3333 84.8333,21.6667 81.5,25C 82.4158,25.2784 83.0825,25.7784 83.5,26.5C 87.4753,42.4033 91.142,58.4033 94.5,74.5C 93.8386,75.7175 93.1719,77.0508 92.5,78.5C 86.7576,63.9242 81.2576,49.2576 76,34.5C 75.2536,31.2106 76.4203,28.7106 79.5,27C 79.2716,26.6012 78.9382,26.4346 78.5,26.5C 82.1667,22.1667 86.1667,18.1667 90.5,14.5 Z"/></g>
<g><path style="opacity:0.012" fill="#aa5b91" d="M 74.5,29.5 C 73.8333,29.5 73.5,29.8333 73.5,30.5C 71.0248,30.2533 71.0248,29.5866 73.5,28.5C 74.1067,28.6236 74.44,28.9569 74.5,29.5 Z"/></g>
<g><path style="opacity:1" fill="#fbecf5" d="M 78.5,26.5 C 78.9382,26.4346 79.2716,26.6012 79.5,27C 76.4203,28.7106 75.2536,31.2106 76,34.5C 81.2576,49.2576 86.7576,63.9242 92.5,78.5C 93.1719,77.0508 93.8386,75.7175 94.5,74.5C 94.8257,77.3113 95.6591,79.978 97,82.5C 97.3333,82.1667 97.6667,81.8333 98,81.5C 98.9906,73.3716 99.824,65.3716 100.5,57.5C 100.197,71.8342 99.8636,86.1675 99.5,100.5C 88.5087,101.066 77.5087,101.4 66.5,101.5C 66.5,101.167 66.5,100.833 66.5,100.5C 70.059,100.592 73.3924,99.7585 76.5,98C 75.0439,97.5774 74.5439,96.7441 75,95.5C 77.0153,94.3034 78.8487,92.9701 80.5,91.5C 83.0483,90.939 85.3816,89.939 87.5,88.5C 81.8194,81.4892 75.8194,74.8226 69.5,68.5C 64.504,63.3362 59.6706,58.0028 55,52.5C 55.4826,50.4634 56.3159,48.4634 57.5,46.5C 63.4422,42.2269 68.7756,37.2269 73.5,31.5C 73.5,31.1667 73.5,30.8333 73.5,30.5C 74.1667,30.5 74.5,30.1667 74.5,29.5C 75.8333,28.5 77.1667,27.5 78.5,26.5 Z"/></g>
<g><path style="opacity:1" fill="#a55993" d="M 101.5,18.5 C 103.509,29.9288 104.509,41.5954 104.5,53.5C 103.513,58.3054 103.179,63.3054 103.5,68.5C 102.833,58.1667 102.167,47.8333 101.5,37.5C 101.5,35.1667 101.5,32.8333 101.5,30.5C 101.5,28.8333 101.5,27.1667 101.5,25.5C 101.5,23.1667 101.5,20.8333 101.5,18.5 Z"/></g>
<g><path style="opacity:0.792" fill="#e2b9d2" d="M 73.5,31.5 C 68.7756,37.2269 63.4422,42.2269 57.5,46.5C 62.2244,40.7731 67.5578,35.7731 73.5,31.5 Z"/></g>
<g><path style="opacity:1" fill="#813475" d="M 150.5,53.5 C 151.5,53.8333 152.167,54.5 152.5,55.5C 149.29,59.145 145.957,62.8116 142.5,66.5C 141.5,67.1667 140.5,67.8333 139.5,68.5C 138.625,66.4319 137.459,64.4319 136,62.5C 135.667,62.8333 135.333,63.1667 135,63.5C 132.296,60.2252 129.463,57.8919 126.5,56.5C 128.527,51.2458 131.027,46.2458 134,41.5C 134.718,40.5494 135.551,40.3828 136.5,41C 140.76,45.7677 145.427,49.9344 150.5,53.5 Z"/></g>
<g><path style="opacity:1" fill="#fcf5f9" d="M 101.5,30.5 C 101.5,32.8333 101.5,35.1667 101.5,37.5C 101.371,58.6839 102.038,79.6839 103.5,100.5C 103.5,100.833 103.5,101.167 103.5,101.5C 112.167,102.167 120.833,102.833 129.5,103.5C 120.616,103.261 111.949,103.928 103.5,105.5C 102.505,116.321 102.172,127.321 102.5,138.5C 101.833,147.167 101.167,155.833 100.5,164.5C 100.667,144.831 100.5,125.164 100,105.5C 99.5,105 99,104.5 98.5,104C 82.8276,103.578 67.1609,103.078 51.5,102.5C 56.3054,101.513 61.3054,101.179 66.5,101.5C 77.5087,101.4 88.5087,101.066 99.5,100.5C 99.8636,86.1675 100.197,71.8342 100.5,57.5C 100.173,48.3178 100.507,39.3178 101.5,30.5 Z"/></g>
<g><path style="opacity:1" fill="#edc3db" d="M 57.5,46.5 C 56.3159,48.4634 55.4826,50.4634 55,52.5C 59.6706,58.0028 64.504,63.3362 69.5,68.5C 59.4508,68.2012 49.4508,67.5346 39.5,66.5C 38.8933,66.6236 38.56,66.9569 38.5,67.5C 37.8333,67.5 37.1667,67.5 36.5,67.5C 43.1667,60.1667 50.1667,53.1667 57.5,46.5 Z"/></g>
<g><path style="opacity:1" fill="#a62f85" d="M 152.5,55.5 C 160.798,63.2976 168.965,71.2976 177,79.5C 177.667,78.1667 178.333,78.1667 179,79.5C 179.617,80.4491 179.451,81.2825 178.5,82C 179.381,82.7083 180.047,83.5416 180.5,84.5C 180.217,85.2161 179.884,86.0494 179.5,87C 173.239,88.6191 166.905,89.7858 160.5,90.5C 159.504,90.5858 158.671,90.2524 158,89.5C 157.691,88.2341 157.191,87.0674 156.5,86C 156.833,85.6667 157.167,85.3333 157.5,85C 153.998,83.6472 152.665,81.3138 153.5,78C 150.803,77.4482 148.803,75.9482 147.5,73.5C 148.529,73.7036 149.529,73.2036 150.5,72C 149.24,70.887 148.073,70.7203 147,71.5C 146.683,69.6992 146.016,69.3659 145,70.5C 143.125,69.2697 142.292,67.9364 142.5,66.5C 145.957,62.8116 149.29,59.145 152.5,55.5 Z"/></g>
<g><path style="opacity:1" fill="#e686b4" d="M 36.5,67.5 C 37.1667,67.5 37.8333,67.5 38.5,67.5C 48.8333,73.5 59.1667,79.5 69.5,85.5C 66.4923,87.4675 63.4923,90.1342 60.5,93.5C 60.1667,93.5 59.8333,93.5 59.5,93.5C 46.093,90.8149 32.7597,87.8149 19.5,84.5C 19.1667,84.5 18.8333,84.5 18.5,84.5C 24.4737,78.8612 30.4737,73.1945 36.5,67.5 Z"/></g>
<g><path style="opacity:1" fill="#f9e6f1" d="M 38.5,67.5 C 38.56,66.9569 38.8933,66.6236 39.5,66.5C 49.4508,67.5346 59.4508,68.2012 69.5,68.5C 75.8194,74.8226 81.8194,81.4892 87.5,88.5C 85.3816,89.939 83.0483,90.939 80.5,91.5C 78.6675,90.7515 77.0009,89.7515 75.5,88.5C 73.5,87.5 71.5,86.5 69.5,85.5C 59.1667,79.5 48.8333,73.5 38.5,67.5 Z"/></g>
<g><path style="opacity:1" fill="#9e317e" d="M 104.5,53.5 C 104.343,54.8734 104.51,56.2068 105,57.5C 107,56.1667 109,54.8333 111,53.5C 110.383,55.0948 110.716,56.4281 112,57.5C 113.147,56.5419 114.147,56.8753 115,58.5C 116.373,58.5963 117.873,58.4296 119.5,58C 120.167,59.3333 121.167,60.3333 122.5,61C 121.359,61.7412 121.359,62.5745 122.5,63.5C 125.159,65.0038 127.659,66.6705 130,68.5C 130.333,68.1667 130.667,67.8333 131,67.5C 131.206,69.9357 132.373,71.6024 134.5,72.5C 132.664,76.7067 129.664,78.04 125.5,76.5C 126.04,75.2519 126.707,74.0852 127.5,73C 127.167,72.8333 126.833,72.6667 126.5,72.5C 123.256,73.2872 120.089,73.6205 117,73.5C 117.43,71.873 117.596,70.373 117.5,69C 116.149,67.1859 115.149,67.5192 114.5,70C 113.552,70.4828 112.552,70.6495 111.5,70.5C 109.739,63.3384 107.405,63.005 104.5,69.5C 104.167,69.5 103.833,69.5 103.5,69.5C 103.5,69.1667 103.5,68.8333 103.5,68.5C 103.179,63.3054 103.513,58.3054 104.5,53.5 Z"/></g>
<g><path style="opacity:1" fill="#b13188" d="M 134.5,72.5 C 136.191,71.1363 137.858,69.803 139.5,68.5C 140.5,67.8333 141.5,67.1667 142.5,66.5C 142.292,67.9364 143.125,69.2697 145,70.5C 146.016,69.3659 146.683,69.6992 147,71.5C 148.073,70.7203 149.24,70.887 150.5,72C 149.529,73.2036 148.529,73.7036 147.5,73.5C 148.803,75.9482 150.803,77.4482 153.5,78C 152.665,81.3138 153.998,83.6472 157.5,85C 157.167,85.3333 156.833,85.6667 156.5,86C 157.191,87.0674 157.691,88.2341 158,89.5C 158.671,90.2524 159.504,90.5858 160.5,90.5C 149.243,93.9301 137.409,96.5968 125,98.5C 124.283,97.9558 123.783,97.2891 123.5,96.5C 124.542,95.2089 125.708,95.2089 127,96.5C 128.366,94.5119 129.866,93.5119 131.5,93.5C 130.315,92.147 128.981,90.9803 127.5,90C 131.87,87.1532 136.203,84.3199 140.5,81.5C 138.548,80.8967 136.548,81.23 134.5,82.5C 132.519,81.8946 132.185,80.8946 133.5,79.5C 129.361,78.1623 125.528,78.8289 122,81.5C 119.961,80.0217 119.128,78.0217 119.5,75.5C 117.089,75.1367 115.589,76.1367 115,78.5C 114.667,76.8333 114.333,75.1667 114,73.5C 113.311,74.3567 112.478,75.0233 111.5,75.5C 110.5,74.1667 109.5,72.8333 108.5,71.5C 107.015,72.4328 105.682,72.0995 104.5,70.5C 104.5,70.1667 104.5,69.8333 104.5,69.5C 107.405,63.005 109.739,63.3384 111.5,70.5C 112.552,70.6495 113.552,70.4828 114.5,70C 115.149,67.5192 116.149,67.1859 117.5,69C 117.596,70.373 117.43,71.873 117,73.5C 120.089,73.6205 123.256,73.2872 126.5,72.5C 126.833,72.6667 127.167,72.8333 127.5,73C 126.707,74.0852 126.04,75.2519 125.5,76.5C 129.664,78.04 132.664,76.7067 134.5,72.5 Z"/></g>
<g><path style="opacity:1" fill="#c74b94" d="M 104.5,70.5 C 105.682,72.0995 107.015,72.4328 108.5,71.5C 109.5,72.8333 110.5,74.1667 111.5,75.5C 112.478,75.0233 113.311,74.3567 114,73.5C 114.333,75.1667 114.667,76.8333 115,78.5C 115.589,76.1367 117.089,75.1367 119.5,75.5C 119.128,78.0217 119.961,80.0217 122,81.5C 125.528,78.8289 129.361,78.1623 133.5,79.5C 132.185,80.8946 132.519,81.8946 134.5,82.5C 136.548,81.23 138.548,80.8967 140.5,81.5C 136.203,84.3199 131.87,87.1532 127.5,90C 128.981,90.9803 130.315,92.147 131.5,93.5C 129.866,93.5119 128.366,94.5119 127,96.5C 125.708,95.2089 124.542,95.2089 123.5,96.5C 122.609,97.1098 121.609,97.4431 120.5,97.5C 123.079,93.9191 125.745,90.4191 128.5,87C 125.907,85.0127 123.24,83.846 120.5,83.5C 116.797,86.7014 115.797,86.0348 117.5,81.5C 117.167,80.5 116.5,79.8333 115.5,79.5C 111.259,83.665 107.759,88.3317 105,93.5C 104.5,85.8406 104.334,78.1739 104.5,70.5 Z"/></g>
<g><path style="opacity:1" fill="#d3398a" d="M 19.5,84.5 C 32.7597,87.8149 46.093,90.8149 59.5,93.5C 58.928,94.9733 58.0946,96.3066 57,97.5C 56.6667,97.1667 56.3333,96.8333 56,96.5C 55.0094,97.9389 53.676,98.9389 52,99.5C 51.6012,99.2716 51.4346,98.9382 51.5,98.5C 51.0472,97.5416 50.3805,96.7083 49.5,96C 37.7733,94.3234 26.1067,92.3234 14.5,90C 16.3734,88.2962 18.0401,86.4628 19.5,84.5 Z"/></g>
<g><path style="opacity:1" fill="#cc5e9e" d="M 103.5,69.5 C 103.833,69.5 104.167,69.5 104.5,69.5C 104.5,69.8333 104.5,70.1667 104.5,70.5C 104.334,78.1739 104.5,85.8406 105,93.5C 107.759,88.3317 111.259,83.665 115.5,79.5C 116.5,79.8333 117.167,80.5 117.5,81.5C 115.797,86.0348 116.797,86.7014 120.5,83.5C 123.24,83.846 125.907,85.0127 128.5,87C 125.745,90.4191 123.079,93.9191 120.5,97.5C 120.167,97.5 119.833,97.5 119.5,97.5C 117.304,97.5652 115.304,98.2319 113.5,99.5C 130.153,100.499 146.82,100.833 163.5,100.5C 161.735,101.461 159.735,101.795 157.5,101.5C 139.5,101.5 121.5,101.5 103.5,101.5C 103.5,101.167 103.5,100.833 103.5,100.5C 103.5,90.1667 103.5,79.8333 103.5,69.5 Z"/></g>
<g><path style="opacity:1" fill="#b9388a" d="M 180.5,84.5 C 185.5,88.8333 190.167,93.5 194.5,98.5C 173.856,98.6289 153.523,98.9623 133.5,99.5C 128.167,99.3333 122.833,99.1667 117.5,99C 118.416,98.7216 119.082,98.2216 119.5,97.5C 119.833,97.5 120.167,97.5 120.5,97.5C 121.609,97.4431 122.609,97.1098 123.5,96.5C 123.783,97.2891 124.283,97.9558 125,98.5C 137.409,96.5968 149.243,93.9301 160.5,90.5C 166.905,89.7858 173.239,88.6191 179.5,87C 179.884,86.0494 180.217,85.2161 180.5,84.5 Z"/></g>
<g><path style="opacity:1" fill="#ce348c" d="M 18.5,84.5 C 18.8333,84.5 19.1667,84.5 19.5,84.5C 18.0401,86.4628 16.3734,88.2962 14.5,90C 26.1067,92.3234 37.7733,94.3234 49.5,96C 50.3805,96.7083 51.0472,97.5416 51.5,98.5C 44.5,98.5 37.5,98.5 30.5,98.5C 22.9163,97.8221 15.583,96.4888 8.5,94.5C 11.5,90.8333 14.8333,87.5 18.5,84.5 Z"/></g>
<g><path style="opacity:1" fill="#f2c5dd" d="M 75.5,88.5 C 77.0009,89.7515 78.6675,90.7515 80.5,91.5C 78.8487,92.9701 77.0153,94.3034 75,95.5C 74.5439,96.7441 75.0439,97.5774 76.5,98C 73.3924,99.7585 70.059,100.592 66.5,100.5C 68.7427,99.9162 70.7427,98.7495 72.5,97C 71.1667,96.3333 69.8333,95.6667 68.5,95C 71.3782,93.284 73.7115,91.1173 75.5,88.5 Z"/></g>
<g><path style="opacity:1" fill="#e8b1cf" d="M 101.5,37.5 C 102.167,47.8333 102.833,58.1667 103.5,68.5C 103.5,68.8333 103.5,69.1667 103.5,69.5C 103.5,79.8333 103.5,90.1667 103.5,100.5C 102.038,79.6839 101.371,58.6839 101.5,37.5 Z"/></g>
<g><path style="opacity:0.012" fill="#aa5b91" d="M 195.5,97.5 C 196.833,98.1667 196.833,98.1667 195.5,97.5 Z"/></g>
<g><path style="opacity:1" fill="#e89ec4" d="M 69.5,85.5 C 71.5,86.5 73.5,87.5 75.5,88.5C 73.7115,91.1173 71.3782,93.284 68.5,95C 69.8333,95.6667 71.1667,96.3333 72.5,97C 70.7427,98.7495 68.7427,99.9162 66.5,100.5C 62.1667,100.5 57.8333,100.5 53.5,100.5C 56.3596,99.7561 59.3596,99.0894 62.5,98.5C 65.2813,95.7375 64.6146,94.0708 60.5,93.5C 63.4923,90.1342 66.4923,87.4675 69.5,85.5 Z"/></g>
<g><path style="opacity:1" fill="#c85197" d="M 59.5,93.5 C 59.8333,93.5 60.1667,93.5 60.5,93.5C 64.6146,94.0708 65.2813,95.7375 62.5,98.5C 59.3596,99.0894 56.3596,99.7561 53.5,100.5C 45.1667,100.5 36.8333,100.5 28.5,100.5C 23.1667,100.5 17.8333,100.5 12.5,100.5C 14.2184,99.776 16.0517,99.1094 18,98.5C 21.9549,98.6295 26.1216,98.6295 30.5,98.5C 37.5,98.5 44.5,98.5 51.5,98.5C 51.4346,98.9382 51.6012,99.2716 52,99.5C 53.676,98.9389 55.0094,97.9389 56,96.5C 56.3333,96.8333 56.6667,97.1667 57,97.5C 58.0946,96.3066 58.928,94.9733 59.5,93.5 Z"/></g>
<g><path style="opacity:1" fill="#c14992" d="M 119.5,97.5 C 119.082,98.2216 118.416,98.7216 117.5,99C 122.833,99.1667 128.167,99.3333 133.5,99.5C 153.523,98.9623 173.856,98.6289 194.5,98.5C 194.833,98.5 195.167,98.5 195.5,98.5C 195.5,99.1667 195.833,99.5 196.5,99.5C 192.366,100.485 188.032,100.818 183.5,100.5C 176.833,100.5 170.167,100.5 163.5,100.5C 146.82,100.833 130.153,100.499 113.5,99.5C 115.304,98.2319 117.304,97.5652 119.5,97.5 Z"/></g>
<g><path style="opacity:1" fill="#d492ba" d="M 12.5,101.5 C 12.5,101.167 12.5,100.833 12.5,100.5C 17.8333,100.5 23.1667,100.5 28.5,100.5C 31.8333,101.167 35.1667,101.833 38.5,102.5C 29.8378,102.072 21.1712,101.738 12.5,101.5 Z"/></g>
<g><path style="opacity:1" fill="#e6bad4" d="M 28.5,100.5 C 36.8333,100.5 45.1667,100.5 53.5,100.5C 57.8333,100.5 62.1667,100.5 66.5,100.5C 66.5,100.833 66.5,101.167 66.5,101.5C 61.3054,101.179 56.3054,101.513 51.5,102.5C 50.8333,102.5 50.1667,102.5 49.5,102.5C 45.8333,102.5 42.1667,102.5 38.5,102.5C 35.1667,101.833 31.8333,101.167 28.5,100.5 Z"/></g>
<g><path style="opacity:0.996" fill="#cb82af" d="M 163.5,100.5 C 170.167,100.5 176.833,100.5 183.5,100.5C 175.032,101.818 166.365,102.485 157.5,102.5C 157.5,102.167 157.5,101.833 157.5,101.5C 159.735,101.795 161.735,101.461 163.5,100.5 Z"/></g>
<g><path style="opacity:1" fill="#a92f84" d="M 8.5,94.5 C 15.583,96.4888 22.9163,97.8221 30.5,98.5C 26.1216,98.6295 21.9549,98.6295 18,98.5C 16.0517,99.1094 14.2184,99.776 12.5,100.5C 12.5,100.833 12.5,101.167 12.5,101.5C 13.531,102.249 14.6976,102.915 16,103.5C 17.2682,103.384 18.6015,103.051 20,102.5C 23.6667,103.167 27.3333,103.833 31,104.5C 38.7395,104.24 47.2395,104.24 56.5,104.5C 62.8376,104.767 69.171,105.1 75.5,105.5C 74.7519,107.566 75.4186,109.4 77.5,111C 77.1667,111.333 76.8333,111.667 76.5,112C 78.208,114.043 80.208,115.71 82.5,117C 80.7585,118.62 78.9252,120.12 77,121.5C 76.3333,122.167 76.3333,122.833 77,123.5C 78.3333,124.167 79.3333,125.167 80,126.5C 83.3361,122.551 85.3361,122.884 86,127.5C 87.3333,126.167 88.6667,126.167 90,127.5C 90.6008,125.641 91.4341,125.308 92.5,126.5C 91.7326,127.172 91.0659,128.005 90.5,129C 90.9662,130.299 90.9662,131.799 90.5,133.5C 89.1667,136.5 87.8333,139.5 86.5,142.5C 86.6495,141.448 86.4828,140.448 86,139.5C 85.6667,139.833 85.3333,140.167 85,140.5C 83.6487,138.981 82.1487,137.648 80.5,136.5C 79.914,136.709 79.414,137.043 79,137.5C 77.6667,136.167 76.3333,134.833 75,133.5C 71.588,136.912 68.588,139.912 66,142.5C 65.0331,137.807 63.5331,134.807 61.5,133.5C 61.5,132.833 61.8333,132.5 62.5,132.5C 65.3579,129.914 68.3579,127.58 71.5,125.5C 72.6266,124.878 73.6266,124.045 74.5,123C 72.981,121.649 71.6477,120.149 70.5,118.5C 68.5,118.167 66.5,117.833 64.5,117.5C 63.7865,115.189 62.7865,113.022 61.5,111C 59.5594,110.257 57.7261,110.424 56,111.5C 54.6525,109.807 54.1525,108.14 54.5,106.5C 53.8076,107.025 53.3076,107.692 53,108.5C 50.1061,107.22 46.9394,106.554 43.5,106.5C 36.7118,106.926 30.5452,106.926 25,106.5C 20.5026,107.194 16.0026,107.861 11.5,108.5C 10.5,107.833 9.5,107.167 8.5,106.5C 8.5,105.833 8.16667,105.5 7.5,105.5C 5.68383,103.863 3.68383,102.363 1.5,101C 3.70319,98.6278 6.03652,96.4611 8.5,94.5 Z"/></g>
<g><path style="opacity:0.996" fill="#e3b1cf" d="M 103.5,101.5 C 121.5,101.5 139.5,101.5 157.5,101.5C 157.5,101.833 157.5,102.167 157.5,102.5C 151.804,102.447 146.138,102.78 140.5,103.5C 136.833,103.5 133.167,103.5 129.5,103.5C 120.833,102.833 112.167,102.167 103.5,101.5 Z"/></g>
<g><path style="opacity:0.012" fill="#aa5b91" d="M 197.5,101.5 C 198.833,102.167 198.833,102.167 197.5,101.5 Z"/></g>
<g><path style="opacity:1" fill="#b24c94" d="M 12.5,101.5 C 21.1712,101.738 29.8378,102.072 38.5,102.5C 42.1667,102.5 45.8333,102.5 49.5,102.5C 51.8333,103.167 54.1667,103.833 56.5,104.5C 47.2395,104.24 38.7395,104.24 31,104.5C 27.3333,103.833 23.6667,103.167 20,102.5C 18.6015,103.051 17.2682,103.384 16,103.5C 14.6976,102.915 13.531,102.249 12.5,101.5 Z"/></g>
<g><path style="opacity:1" fill="#893d7c" d="M 196.5,99.5 C 198.698,99.4088 199.031,100.075 197.5,101.5C 196.833,101.5 196.5,101.833 196.5,102.5C 195.833,102.5 195.5,102.833 195.5,103.5C 194.833,103.5 194.5,103.833 194.5,104.5C 193.833,104.5 193.5,104.833 193.5,105.5C 192.833,105.5 192.5,105.833 192.5,106.5C 192.167,106.5 191.833,106.5 191.5,106.5C 188.715,106.933 186.381,108.266 184.5,110.5C 183.749,109.624 183.249,108.624 183,107.5C 182.333,110.167 181.667,110.167 181,107.5C 180.667,108.167 180.333,108.833 180,109.5C 179.751,108.376 179.251,107.376 178.5,106.5C 177.284,107.002 176.117,107.335 175,107.5C 173.384,106.455 171.717,105.455 170,104.5C 161.417,104.531 152.25,104.864 142.5,105.5C 141.561,105.374 140.561,105.04 139.5,104.5C 140.167,104.5 140.5,104.167 140.5,103.5C 146.138,102.78 151.804,102.447 157.5,102.5C 166.365,102.485 175.032,101.818 183.5,100.5C 188.032,100.818 192.366,100.485 196.5,99.5 Z"/></g>
<g><path style="opacity:0.012" fill="#aa5b91" d="M 196.5,102.5 C 196.833,102.5 197.167,102.5 197.5,102.5C 197.315,103.17 196.981,103.17 196.5,102.5 Z"/></g>
<g><path style="opacity:0.012" fill="#aa5b91" d="M 195.5,103.5 C 195.833,103.5 196.167,103.5 196.5,103.5C 196.315,104.17 195.981,104.17 195.5,103.5 Z"/></g>
<g><path style="opacity:1" fill="#d573aa" d="M 49.5,102.5 C 50.1667,102.5 50.8333,102.5 51.5,102.5C 67.1609,103.078 82.8276,103.578 98.5,104C 99,104.5 99.5,105 100,105.5C 100.5,125.164 100.667,144.831 100.5,164.5C 100.5,170.833 100.5,177.167 100.5,183.5C 100.5,185.5 100.5,187.5 100.5,189.5C 99.79,187.107 99.1233,184.607 98.5,182C 98.5189,156.708 98.5189,131.208 98.5,105.5C 94.5,105.5 90.5,105.5 86.5,105.5C 82.8333,105.5 79.1667,105.5 75.5,105.5C 69.171,105.1 62.8376,104.767 56.5,104.5C 54.1667,103.833 51.8333,103.167 49.5,102.5 Z"/></g>
<g><path style="opacity:1" fill="#8d3279" d="M 191.5,106.5 C 191.5,106.833 191.5,107.167 191.5,107.5C 190.833,107.5 190.5,107.833 190.5,108.5C 189.833,108.5 189.5,108.833 189.5,109.5C 188.833,109.5 188.5,109.833 188.5,110.5C 187.833,110.5 187.5,110.833 187.5,111.5C 186.833,111.5 186.5,111.833 186.5,112.5C 185.833,112.5 185.5,112.833 185.5,113.5C 184.833,113.5 184.5,113.833 184.5,114.5C 183.833,114.5 183.5,114.833 183.5,115.5C 182.833,115.5 182.5,115.833 182.5,116.5C 181.833,116.5 181.5,116.833 181.5,117.5C 180.833,117.5 180.5,117.833 180.5,118.5C 179.833,118.5 179.5,118.833 179.5,119.5C 178.833,119.5 178.5,119.833 178.5,120.5C 177.833,120.5 177.5,120.833 177.5,121.5C 177.167,121.5 176.833,121.5 176.5,121.5C 175.883,121.389 175.383,121.056 175,120.5C 173.656,122.342 172.156,124.008 170.5,125.5C 169.575,124.359 168.741,124.359 168,125.5C 167.667,124.833 167.333,124.167 167,123.5C 166,123.833 165,124.167 164,124.5C 153.847,122.105 146.347,116.438 141.5,107.5C 141.863,106.817 142.196,106.15 142.5,105.5C 152.25,104.864 161.417,104.531 170,104.5C 171.717,105.455 173.384,106.455 175,107.5C 176.117,107.335 177.284,107.002 178.5,106.5C 179.251,107.376 179.751,108.376 180,109.5C 180.333,108.833 180.667,108.167 181,107.5C 181.667,110.167 182.333,110.167 183,107.5C 183.249,108.624 183.749,109.624 184.5,110.5C 186.381,108.266 188.715,106.933 191.5,106.5 Z"/></g>
<g><path style="opacity:0.012" fill="#aa5b91" d="M 194.5,104.5 C 194.833,104.5 195.167,104.5 195.5,104.5C 195.315,105.17 194.981,105.17 194.5,104.5 Z"/></g>
<g><path style="opacity:0.012" fill="#aa5b91" d="M 7.5,105.5 C 8.16667,105.5 8.5,105.833 8.5,106.5C 7.50289,107.713 6.50289,107.546 5.5,106C 6.09442,105.536 6.76109,105.369 7.5,105.5 Z"/></g>
<g><path style="opacity:1" fill="#a2307e" d="M 139.5,104.5 C 140.561,105.04 141.561,105.374 142.5,105.5C 142.196,106.15 141.863,106.817 141.5,107.5C 146.347,116.438 153.847,122.105 164,124.5C 165,124.167 166,123.833 167,123.5C 167.333,124.167 167.667,124.833 168,125.5C 168.741,124.359 169.575,124.359 170.5,125.5C 172.156,124.008 173.656,122.342 175,120.5C 175.383,121.056 175.883,121.389 176.5,121.5C 176.5,121.833 176.5,122.167 176.5,122.5C 175.833,122.5 175.5,122.833 175.5,123.5C 174.833,123.5 174.5,123.833 174.5,124.5C 173.833,124.5 173.5,124.833 173.5,125.5C 172.833,125.5 172.5,125.833 172.5,126.5C 171.833,126.5 171.5,126.833 171.5,127.5C 170.833,127.5 170.5,127.833 170.5,128.5C 169.833,128.5 169.5,128.833 169.5,129.5C 168.833,129.5 168.5,129.833 168.5,130.5C 167.833,130.5 167.5,130.833 167.5,131.5C 166.833,131.5 166.5,131.833 166.5,132.5C 165.833,132.5 165.5,132.833 165.5,133.5C 164.833,133.5 164.5,133.833 164.5,134.5C 164.167,134.5 163.833,134.5 163.5,134.5C 163.631,133.761 163.464,133.094 163,132.5C 159.849,133.091 156.515,133.091 153,132.5C 151.47,131.364 150.137,130.364 149,129.5C 148.586,129.957 148.086,130.291 147.5,130.5C 144.945,129.24 142.445,127.906 140,126.5C 138.057,126.959 136.724,125.959 136,123.5C 135.667,123.833 135.333,124.167 135,124.5C 133.234,122.404 131.901,120.071 131,117.5C 130.086,118.654 129.253,118.487 128.5,117C 128.833,116.667 129.167,116.333 129.5,116C 128.266,113.033 126.6,110.366 124.5,108C 125.381,107.292 126.047,106.458 126.5,105.5C 130.798,104.8 135.131,104.467 139.5,104.5 Z"/></g>
<g><path style="opacity:0.012" fill="#aa5b91" d="M 193.5,105.5 C 193.833,105.5 194.167,105.5 194.5,105.5C 194.315,106.17 193.981,106.17 193.5,105.5 Z"/></g>
<g><path style="opacity:1" fill="#b92d83" d="M 104.5,106.5 C 107.187,106.341 109.52,107.175 111.5,109C 112.123,116.73 115.623,123.23 122,128.5C 122.333,128.167 122.667,127.833 123,127.5C 124.193,129.605 125.86,131.272 128,132.5C 129.566,131.939 130.899,132.606 132,134.5C 132.333,134.167 132.667,133.833 133,133.5C 139.985,136.977 146.985,138.644 154,138.5C 153.86,140.851 153.36,143.184 152.5,145.5C 152.5,145.833 152.5,146.167 152.5,146.5C 151.833,146.5 151.5,146.833 151.5,147.5C 150.833,147.5 150.5,147.833 150.5,148.5C 149.833,148.5 149.5,148.833 149.5,149.5C 149.167,149.5 148.833,149.5 148.5,149.5C 147.816,147.551 146.649,145.885 145,144.5C 144.333,147.167 143.667,147.167 143,144.5C 142.026,146.878 141.359,146.544 141,143.5C 140.086,147.185 139.419,146.852 139,142.5C 138.431,146.361 137.598,146.361 136.5,142.5C 135.158,143.902 134.324,143.569 134,141.5C 133.667,142.167 133.333,142.833 133,143.5C 132,142.167 131,142.167 130,143.5C 129.333,142.833 128.667,142.167 128,141.5C 125.889,141.577 123.889,141.911 122,142.5C 120.291,140.825 118.624,139.158 117,137.5C 115.919,139.767 114.419,139.934 112.5,138C 113.654,137.086 113.487,136.253 112,135.5C 110.774,137.548 109.274,137.881 107.5,136.5C 106.787,132.313 105.787,128.313 104.5,124.5C 104.5,118.5 104.5,112.5 104.5,106.5 Z"/></g>
<g><path style="opacity:1" fill="#b02e81" d="M 104.5,106.5 C 111.648,105.508 118.981,105.175 126.5,105.5C 126.047,106.458 125.381,107.292 124.5,108C 126.6,110.366 128.266,113.033 129.5,116C 129.167,116.333 128.833,116.667 128.5,117C 129.253,118.487 130.086,118.654 131,117.5C 131.901,120.071 133.234,122.404 135,124.5C 135.333,124.167 135.667,123.833 136,123.5C 136.724,125.959 138.057,126.959 140,126.5C 142.445,127.906 144.945,129.24 147.5,130.5C 148.086,130.291 148.586,129.957 149,129.5C 150.137,130.364 151.47,131.364 153,132.5C 156.515,133.091 159.849,133.091 163,132.5C 163.464,133.094 163.631,133.761 163.5,134.5C 163.5,134.833 163.5,135.167 163.5,135.5C 162.833,135.5 162.5,135.833 162.5,136.5C 161.833,136.5 161.5,136.833 161.5,137.5C 160.833,137.5 160.5,137.833 160.5,138.5C 159.833,138.5 159.5,138.833 159.5,139.5C 158.833,139.5 158.5,139.833 158.5,140.5C 157.833,140.5 157.5,140.833 157.5,141.5C 156.833,141.5 156.5,141.833 156.5,142.5C 155.833,142.5 155.5,142.833 155.5,143.5C 154.833,143.5 154.5,143.833 154.5,144.5C 153.833,144.5 153.5,144.833 153.5,145.5C 153.167,145.5 152.833,145.5 152.5,145.5C 153.36,143.184 153.86,140.851 154,138.5C 146.985,138.644 139.985,136.977 133,133.5C 132.667,133.833 132.333,134.167 132,134.5C 130.899,132.606 129.566,131.939 128,132.5C 125.86,131.272 124.193,129.605 123,127.5C 122.667,127.833 122.333,128.167 122,128.5C 115.623,123.23 112.123,116.73 111.5,109C 109.52,107.175 107.187,106.341 104.5,106.5 Z"/></g>
<g><path style="opacity:0.012" fill="#aa5b91" d="M 192.5,106.5 C 192.833,106.5 193.167,106.5 193.5,106.5C 193.315,107.17 192.981,107.17 192.5,106.5 Z"/></g>
<g><path style="opacity:1" fill="#992f82" d="M 71.5,125.5 C 69.8501,123.349 68.0168,121.349 66,119.5C 62.6102,121.131 59.1102,121.964 55.5,122C 53.9315,119.696 52.7648,117.196 52,114.5C 51.3109,113.643 50.4776,112.977 49.5,112.5C 45.9689,112.249 42.4689,112.916 39,114.5C 36.5249,113.465 34.5249,113.798 33,115.5C 32.6667,115.167 32.3333,114.833 32,114.5C 29.0924,116.025 25.9257,117.025 22.5,117.5C 26.3179,121.818 30.3179,125.985 34.5,130C 34.2716,130.399 33.9382,130.565 33.5,130.5C 30.5,127.833 27.5,125.167 24.5,122.5C 24.5,121.833 24.1667,121.5 23.5,121.5C 23.5,120.833 23.1667,120.5 22.5,120.5C 22.5,119.833 22.1667,119.5 21.5,119.5C 18.1667,115.833 14.8333,112.167 11.5,108.5C 16.0026,107.861 20.5026,107.194 25,106.5C 30.5452,106.926 36.7118,106.926 43.5,106.5C 46.9394,106.554 50.1061,107.22 53,108.5C 53.3076,107.692 53.8076,107.025 54.5,106.5C 54.1525,108.14 54.6525,109.807 56,111.5C 57.7261,110.424 59.5594,110.257 61.5,111C 62.7865,113.022 63.7865,115.189 64.5,117.5C 66.5,117.833 68.5,118.167 70.5,118.5C 71.6477,120.149 72.981,121.649 74.5,123C 73.6266,124.045 72.6266,124.878 71.5,125.5 Z"/></g>
<g><path style="opacity:0.012" fill="#aa5b91" d="M 191.5,107.5 C 191.833,107.5 192.167,107.5 192.5,107.5C 192.315,108.17 191.981,108.17 191.5,107.5 Z"/></g>
<g><path style="opacity:0.012" fill="#aa5b91" d="M 190.5,108.5 C 190.833,108.5 191.167,108.5 191.5,108.5C 191.315,109.17 190.981,109.17 190.5,108.5 Z"/></g>
<g><path style="opacity:1" fill="#c564a1" d="M 129.5,103.5 C 133.167,103.5 136.833,103.5 140.5,103.5C 140.5,104.167 140.167,104.5 139.5,104.5C 135.131,104.467 130.798,104.8 126.5,105.5C 118.981,105.175 111.648,105.508 104.5,106.5C 104.5,112.5 104.5,118.5 104.5,124.5C 104.821,129.695 104.487,134.695 103.5,139.5C 103.5,128.167 103.5,116.833 103.5,105.5C 111.949,103.928 120.616,103.261 129.5,103.5 Z"/></g>
<g><path style="opacity:0.012" fill="#aa5b91" d="M 189.5,109.5 C 189.833,109.5 190.167,109.5 190.5,109.5C 190.315,110.17 189.981,110.17 189.5,109.5 Z"/></g>
<g><path style="opacity:0.012" fill="#aa5b91" d="M 188.5,110.5 C 188.833,110.5 189.167,110.5 189.5,110.5C 189.315,111.17 188.981,111.17 188.5,110.5 Z"/></g>
<g><path style="opacity:0.012" fill="#aa5b91" d="M 187.5,111.5 C 187.833,111.5 188.167,111.5 188.5,111.5C 188.315,112.17 187.981,112.17 187.5,111.5 Z"/></g>
<g><path style="opacity:0.012" fill="#aa5b91" d="M 186.5,112.5 C 186.833,112.5 187.167,112.5 187.5,112.5C 187.315,113.17 186.981,113.17 186.5,112.5 Z"/></g>
<g><path style="opacity:1" fill="#933080" d="M 71.5,125.5 C 68.3579,127.58 65.3579,129.914 62.5,132.5C 59.4939,130.161 56.8273,127.494 54.5,124.5C 48.0307,126.903 41.6973,129.57 35.5,132.5C 35.1667,132.5 34.8333,132.5 34.5,132.5C 34.5,131.833 34.1667,131.5 33.5,131.5C 33.5,131.167 33.5,130.833 33.5,130.5C 33.9382,130.565 34.2716,130.399 34.5,130C 30.3179,125.985 26.3179,121.818 22.5,117.5C 25.9257,117.025 29.0924,116.025 32,114.5C 32.3333,114.833 32.6667,115.167 33,115.5C 34.5249,113.798 36.5249,113.465 39,114.5C 42.4689,112.916 45.9689,112.249 49.5,112.5C 50.4776,112.977 51.3109,113.643 52,114.5C 52.7648,117.196 53.9315,119.696 55.5,122C 59.1102,121.964 62.6102,121.131 66,119.5C 68.0168,121.349 69.8501,123.349 71.5,125.5 Z"/></g>
<g><path style="opacity:0.012" fill="#aa5b91" d="M 185.5,113.5 C 185.833,113.5 186.167,113.5 186.5,113.5C 186.315,114.17 185.981,114.17 185.5,113.5 Z"/></g>
<g><path style="opacity:0.012" fill="#aa5b91" d="M 184.5,114.5 C 184.833,114.5 185.167,114.5 185.5,114.5C 185.315,115.17 184.981,115.17 184.5,114.5 Z"/></g>
<g><path style="opacity:1" fill="#b52d85" d="M 75.5,105.5 C 79.1667,105.5 82.8333,105.5 86.5,105.5C 85.791,106.404 84.791,106.737 83.5,106.5C 83.4125,109.598 83.9125,109.932 85,107.5C 86.9357,108.153 88.769,109.319 90.5,111C 85.1766,115.164 85.8433,116.997 92.5,116.5C 94.8993,119.909 94.8993,123.242 92.5,126.5C 91.4341,125.308 90.6008,125.641 90,127.5C 88.6667,126.167 87.3333,126.167 86,127.5C 85.3361,122.884 83.3361,122.551 80,126.5C 79.3333,125.167 78.3333,124.167 77,123.5C 76.3333,122.833 76.3333,122.167 77,121.5C 78.9252,120.12 80.7585,118.62 82.5,117C 80.208,115.71 78.208,114.043 76.5,112C 76.8333,111.667 77.1667,111.333 77.5,111C 75.4186,109.4 74.7519,107.566 75.5,105.5 Z"/></g>
<g><path style="opacity:0.012" fill="#aa5b91" d="M 183.5,115.5 C 183.833,115.5 184.167,115.5 184.5,115.5C 184.315,116.17 183.981,116.17 183.5,115.5 Z"/></g>
<g><path style="opacity:0.012" fill="#aa5b91" d="M 182.5,116.5 C 182.833,116.5 183.167,116.5 183.5,116.5C 183.315,117.17 182.981,117.17 182.5,116.5 Z"/></g>
<g><path style="opacity:0.012" fill="#aa5b91" d="M 181.5,117.5 C 181.833,117.5 182.167,117.5 182.5,117.5C 182.315,118.17 181.981,118.17 181.5,117.5 Z"/></g>
<g><path style="opacity:0.012" fill="#aa5b91" d="M 180.5,118.5 C 180.833,118.5 181.167,118.5 181.5,118.5C 181.315,119.17 180.981,119.17 180.5,118.5 Z"/></g>
<g><path style="opacity:0.012" fill="#aa5b91" d="M 21.5,119.5 C 22.1667,119.5 22.5,119.833 22.5,120.5C 22.5,120.833 22.5,121.167 22.5,121.5C 20.5759,121.289 20.2426,120.623 21.5,119.5 Z"/></g>
<g><path style="opacity:0.012" fill="#aa5b91" d="M 179.5,119.5 C 179.833,119.5 180.167,119.5 180.5,119.5C 180.315,120.17 179.981,120.17 179.5,119.5 Z"/></g>
<g><path style="opacity:0.012" fill="#aa5b91" d="M 178.5,120.5 C 178.833,120.5 179.167,120.5 179.5,120.5C 179.315,121.17 178.981,121.17 178.5,120.5 Z"/></g>
<g><path style="opacity:0.012" fill="#aa5b91" d="M 22.5,121.5 C 22.8333,121.5 23.1667,121.5 23.5,121.5C 24.1667,121.5 24.5,121.833 24.5,122.5C 23.3774,123.757 22.7107,123.424 22.5,121.5 Z"/></g>
<g><path style="opacity:0.012" fill="#aa5b91" d="M 177.5,121.5 C 177.833,121.5 178.167,121.5 178.5,121.5C 178.315,122.17 177.981,122.17 177.5,121.5 Z"/></g>
<g><path style="opacity:0.012" fill="#aa5b91" d="M 176.5,122.5 C 176.833,122.5 177.167,122.5 177.5,122.5C 177.315,123.17 176.981,123.17 176.5,122.5 Z"/></g>
<g><path style="opacity:0.012" fill="#aa5b91" d="M 175.5,123.5 C 175.833,123.5 176.167,123.5 176.5,123.5C 176.315,124.17 175.981,124.17 175.5,123.5 Z"/></g>
<g><path style="opacity:1" fill="#c42d87" d="M 86.5,105.5 C 90.5,105.5 94.5,105.5 98.5,105.5C 98.5189,131.208 98.5189,156.708 98.5,182C 99.1233,184.607 99.79,187.107 100.5,189.5C 100.5,191.833 100.5,194.167 100.5,196.5C 99.8333,196.167 99.1667,195.833 98.5,195.5C 97.5,193.833 96.1667,192.5 94.5,191.5C 94.5,190.833 94.1667,190.5 93.5,190.5C 93.5,189.833 93.1667,189.5 92.5,189.5C 89.5,186.167 86.5,182.833 83.5,179.5C 87.0203,166.07 90.3537,152.57 93.5,139C 93.927,136.872 93.427,134.705 92,132.5C 91.6667,133.5 91.3333,134.5 91,135.5C 90.5357,134.906 90.369,134.239 90.5,133.5C 90.9662,131.799 90.9662,130.299 90.5,129C 91.0659,128.005 91.7326,127.172 92.5,126.5C 94.8993,123.242 94.8993,119.909 92.5,116.5C 85.8433,116.997 85.1766,115.164 90.5,111C 88.769,109.319 86.9357,108.153 85,107.5C 83.9125,109.932 83.4125,109.598 83.5,106.5C 84.791,106.737 85.791,106.404 86.5,105.5 Z"/></g>
<g><path style="opacity:0.012" fill="#aa5b91" d="M 174.5,124.5 C 174.833,124.5 175.167,124.5 175.5,124.5C 175.315,125.17 174.981,125.17 174.5,124.5 Z"/></g>
<g><path style="opacity:0.012" fill="#aa5b91" d="M 173.5,125.5 C 173.833,125.5 174.167,125.5 174.5,125.5C 174.315,126.17 173.981,126.17 173.5,125.5 Z"/></g>
<g><path style="opacity:0.012" fill="#aa5b91" d="M 172.5,126.5 C 172.833,126.5 173.167,126.5 173.5,126.5C 173.315,127.17 172.981,127.17 172.5,126.5 Z"/></g>
<g><path style="opacity:1" fill="#863377" d="M 62.5,132.5 C 61.8333,132.5 61.5,132.833 61.5,133.5C 56.6434,137.092 51.6434,140.425 46.5,143.5C 43.1667,140.5 39.8333,137.5 36.5,134.5C 36.5,133.833 36.1667,133.5 35.5,133.5C 35.5,133.167 35.5,132.833 35.5,132.5C 41.6973,129.57 48.0307,126.903 54.5,124.5C 56.8273,127.494 59.4939,130.161 62.5,132.5 Z"/></g>
<g><path style="opacity:0.012" fill="#aa5b91" d="M 171.5,127.5 C 171.833,127.5 172.167,127.5 172.5,127.5C 172.315,128.17 171.981,128.17 171.5,127.5 Z"/></g>
<g><path style="opacity:0.012" fill="#aa5b91" d="M 170.5,128.5 C 170.833,128.5 171.167,128.5 171.5,128.5C 171.315,129.17 170.981,129.17 170.5,128.5 Z"/></g>
<g><path style="opacity:1" fill="#d98cb6" d="M 103.5,105.5 C 103.5,116.833 103.5,128.167 103.5,139.5C 103.5,141.5 103.5,143.5 103.5,145.5C 103.388,157.765 104.055,169.931 105.5,182C 104.762,183.824 104.428,185.824 104.5,188C 105,188.5 105.5,189 106,189.5C 107.571,187.077 109.737,185.744 112.5,185.5C 112.5,185.833 112.5,186.167 112.5,186.5C 111.833,186.5 111.5,186.833 111.5,187.5C 110.833,187.5 110.5,187.833 110.5,188.5C 109.833,188.5 109.5,188.833 109.5,189.5C 108.833,189.5 108.5,189.833 108.5,190.5C 107.833,190.5 107.5,190.833 107.5,191.5C 106.833,191.5 106.5,191.833 106.5,192.5C 105.833,192.5 105.5,192.833 105.5,193.5C 104.833,193.5 104.5,193.833 104.5,194.5C 103.833,194.5 103.5,194.833 103.5,195.5C 102.833,195.5 102.5,195.833 102.5,196.5C 101.604,197.506 100.938,197.506 100.5,196.5C 100.5,194.167 100.5,191.833 100.5,189.5C 100.5,187.5 100.5,185.5 100.5,183.5C 101.317,181.031 101.817,178.365 102,175.5C 102.5,163.171 102.667,150.838 102.5,138.5C 102.172,127.321 102.505,116.321 103.5,105.5 Z"/></g>
<g><path style="opacity:0.012" fill="#aa5b91" d="M 169.5,129.5 C 169.833,129.5 170.167,129.5 170.5,129.5C 170.315,130.17 169.981,130.17 169.5,129.5 Z"/></g>
<g><path style="opacity:0.012" fill="#aa5b91" d="M 168.5,130.5 C 168.833,130.5 169.167,130.5 169.5,130.5C 169.315,131.17 168.981,131.17 168.5,130.5 Z"/></g>
<g><path style="opacity:0.012" fill="#aa5b91" d="M 33.5,131.5 C 34.1667,131.5 34.5,131.833 34.5,132.5C 34.5,132.833 34.5,133.167 34.5,133.5C 32.5759,133.289 32.2426,132.623 33.5,131.5 Z"/></g>
<g><path style="opacity:0.012" fill="#aa5b91" d="M 167.5,131.5 C 167.833,131.5 168.167,131.5 168.5,131.5C 168.315,132.17 167.981,132.17 167.5,131.5 Z"/></g>
<g><path style="opacity:0.012" fill="#aa5b91" d="M 166.5,132.5 C 166.833,132.5 167.167,132.5 167.5,132.5C 167.315,133.17 166.981,133.17 166.5,132.5 Z"/></g>
<g><path style="opacity:0.012" fill="#aa5b91" d="M 34.5,133.5 C 34.8333,133.5 35.1667,133.5 35.5,133.5C 36.1667,133.5 36.5,133.833 36.5,134.5C 35.3774,135.757 34.7107,135.424 34.5,133.5 Z"/></g>
<g><path style="opacity:0.012" fill="#aa5b91" d="M 165.5,133.5 C 165.833,133.5 166.167,133.5 166.5,133.5C 166.315,134.17 165.981,134.17 165.5,133.5 Z"/></g>
<g><path style="opacity:0.012" fill="#aa5b91" d="M 164.5,134.5 C 164.833,134.5 165.167,134.5 165.5,134.5C 165.315,135.17 164.981,135.17 164.5,134.5 Z"/></g>
<g><path style="opacity:0.012" fill="#aa5b91" d="M 163.5,135.5 C 163.833,135.5 164.167,135.5 164.5,135.5C 164.315,136.17 163.981,136.17 163.5,135.5 Z"/></g>
<g><path style="opacity:0.012" fill="#aa5b91" d="M 162.5,136.5 C 162.833,136.5 163.167,136.5 163.5,136.5C 163.315,137.17 162.981,137.17 162.5,136.5 Z"/></g>
<g><path style="opacity:1" fill="#c32c85" d="M 148.5,149.5 C 148.5,149.833 148.5,150.167 148.5,150.5C 147.833,150.5 147.5,150.833 147.5,151.5C 146.833,151.5 146.5,151.833 146.5,152.5C 145.833,152.5 145.5,152.833 145.5,153.5C 144.833,153.5 144.5,153.833 144.5,154.5C 143.833,154.5 143.5,154.833 143.5,155.5C 142.833,155.5 142.5,155.833 142.5,156.5C 141.833,156.5 141.5,156.833 141.5,157.5C 140.833,157.5 140.5,157.833 140.5,158.5C 139.833,158.5 139.5,158.833 139.5,159.5C 138.833,159.5 138.5,159.833 138.5,160.5C 138.167,160.5 137.833,160.5 137.5,160.5C 136.603,156.38 134.436,153.047 131,150.5C 130.5,151 130,151.5 129.5,152C 130.576,153.726 130.743,155.559 130,157.5C 127.667,154.833 125.333,152.167 123,149.5C 122.79,151.058 122.29,152.391 121.5,153.5C 121.509,151.692 121.009,150.025 120,148.5C 119.667,149.167 119.333,149.833 119,150.5C 118,149.167 117,149.167 116,150.5C 115.333,149.833 114.667,149.167 114,148.5C 113.184,149.823 112.017,150.489 110.5,150.5C 109.5,145.833 108.5,141.167 107.5,136.5C 109.274,137.881 110.774,137.548 112,135.5C 113.487,136.253 113.654,137.086 112.5,138C 114.419,139.934 115.919,139.767 117,137.5C 118.624,139.158 120.291,140.825 122,142.5C 123.889,141.911 125.889,141.577 128,141.5C 128.667,142.167 129.333,142.833 130,143.5C 131,142.167 132,142.167 133,143.5C 133.333,142.833 133.667,142.167 134,141.5C 134.324,143.569 135.158,143.902 136.5,142.5C 137.598,146.361 138.431,146.361 139,142.5C 139.419,146.852 140.086,147.185 141,143.5C 141.359,146.544 142.026,146.878 143,144.5C 143.667,147.167 144.333,147.167 145,144.5C 146.649,145.885 147.816,147.551 148.5,149.5 Z"/></g>
<g><path style="opacity:0.012" fill="#aa5b91" d="M 161.5,137.5 C 161.833,137.5 162.167,137.5 162.5,137.5C 162.315,138.17 161.981,138.17 161.5,137.5 Z"/></g>
<g><path style="opacity:0.012" fill="#aa5b91" d="M 160.5,138.5 C 160.833,138.5 161.167,138.5 161.5,138.5C 161.315,139.17 160.981,139.17 160.5,138.5 Z"/></g>
<g><path style="opacity:0.012" fill="#aa5b91" d="M 159.5,139.5 C 159.833,139.5 160.167,139.5 160.5,139.5C 160.315,140.17 159.981,140.17 159.5,139.5 Z"/></g>
<g><path style="opacity:0.012" fill="#aa5b91" d="M 158.5,140.5 C 158.833,140.5 159.167,140.5 159.5,140.5C 159.315,141.17 158.981,141.17 158.5,140.5 Z"/></g>
<g><path style="opacity:1" fill="#9b3082" d="M 61.5,133.5 C 63.5331,134.807 65.0331,137.807 66,142.5C 68.588,139.912 71.588,136.912 75,133.5C 76.3333,134.833 77.6667,136.167 79,137.5C 79.414,137.043 79.914,136.709 80.5,136.5C 82.1487,137.648 83.6487,138.981 85,140.5C 85.3333,140.167 85.6667,139.833 86,139.5C 86.4828,140.448 86.6495,141.448 86.5,142.5C 83.0481,151.915 79.7148,161.415 76.5,171C 76.9783,172.303 77.645,173.469 78.5,174.5C 74.562,171.902 70.8953,168.902 67.5,165.5C 63.8333,161.167 59.8333,157.167 55.5,153.5C 52.5,150.167 49.5,146.833 46.5,143.5C 51.6434,140.425 56.6434,137.092 61.5,133.5 Z"/></g>
<g><path style="opacity:0.012" fill="#aa5b91" d="M 157.5,141.5 C 157.833,141.5 158.167,141.5 158.5,141.5C 158.315,142.17 157.981,142.17 157.5,141.5 Z"/></g>
<g><path style="opacity:0.012" fill="#aa5b91" d="M 156.5,142.5 C 156.833,142.5 157.167,142.5 157.5,142.5C 157.315,143.17 156.981,143.17 156.5,142.5 Z"/></g>
<g><path style="opacity:0.012" fill="#aa5b91" d="M 155.5,143.5 C 155.833,143.5 156.167,143.5 156.5,143.5C 156.315,144.17 155.981,144.17 155.5,143.5 Z"/></g>
<g><path style="opacity:0.012" fill="#aa5b91" d="M 154.5,144.5 C 154.833,144.5 155.167,144.5 155.5,144.5C 155.315,145.17 154.981,145.17 154.5,144.5 Z"/></g>
<g><path style="opacity:0.012" fill="#aa5b91" d="M 153.5,145.5 C 153.833,145.5 154.167,145.5 154.5,145.5C 154.315,146.17 153.981,146.17 153.5,145.5 Z"/></g>
<g><path style="opacity:0.012" fill="#aa5b91" d="M 152.5,146.5 C 152.833,146.5 153.167,146.5 153.5,146.5C 153.315,147.17 152.981,147.17 152.5,146.5 Z"/></g>
<g><path style="opacity:0.012" fill="#aa5b91" d="M 151.5,147.5 C 151.833,147.5 152.167,147.5 152.5,147.5C 152.315,148.17 151.981,148.17 151.5,147.5 Z"/></g>
<g><path style="opacity:1" fill="#b22b85" d="M 83.5,179.5 C 81.5,178.167 79.8333,176.5 78.5,174.5C 77.645,173.469 76.9783,172.303 76.5,171C 79.7148,161.415 83.0481,151.915 86.5,142.5C 87.8333,139.5 89.1667,136.5 90.5,133.5C 90.369,134.239 90.5357,134.906 91,135.5C 91.3333,134.5 91.6667,133.5 92,132.5C 93.427,134.705 93.927,136.872 93.5,139C 90.3537,152.57 87.0203,166.07 83.5,179.5 Z"/></g>
<g><path style="opacity:1" fill="#d15f9f" d="M 104.5,124.5 C 105.787,128.313 106.787,132.313 107.5,136.5C 108.5,141.167 109.5,145.833 110.5,150.5C 110.833,153.167 111.167,155.833 111.5,158.5C 110.778,158.918 110.278,159.584 110,160.5C 109,158.833 108,157.167 107,155.5C 106.333,154.167 105.667,154.167 105,155.5C 104.821,151.975 104.321,148.641 103.5,145.5C 103.5,143.5 103.5,141.5 103.5,139.5C 104.487,134.695 104.821,129.695 104.5,124.5 Z"/></g>
<g><path style="opacity:0.012" fill="#aa5b91" d="M 150.5,148.5 C 150.833,148.5 151.167,148.5 151.5,148.5C 151.315,149.17 150.981,149.17 150.5,148.5 Z"/></g>
<g><path style="opacity:1" fill="#d13e8b" d="M 137.5,160.5 C 137.5,160.833 137.5,161.167 137.5,161.5C 136.833,161.5 136.5,161.833 136.5,162.5C 135.833,162.5 135.5,162.833 135.5,163.5C 134.833,163.5 134.5,163.833 134.5,164.5C 133.833,164.5 133.5,164.833 133.5,165.5C 132.833,165.5 132.5,165.833 132.5,166.5C 131.833,166.5 131.5,166.833 131.5,167.5C 130.833,167.5 130.5,167.833 130.5,168.5C 129.833,168.5 129.5,168.833 129.5,169.5C 129.167,169.5 128.833,169.5 128.5,169.5C 125.272,164.633 122.938,159.3 121.5,153.5C 122.29,152.391 122.79,151.058 123,149.5C 125.333,152.167 127.667,154.833 130,157.5C 130.743,155.559 130.576,153.726 129.5,152C 130,151.5 130.5,151 131,150.5C 134.436,153.047 136.603,156.38 137.5,160.5 Z"/></g>
<g><path style="opacity:0.012" fill="#aa5b91" d="M 149.5,149.5 C 149.833,149.5 150.167,149.5 150.5,149.5C 150.315,150.17 149.981,150.17 149.5,149.5 Z"/></g>
<g><path style="opacity:0.012" fill="#aa5b91" d="M 148.5,150.5 C 148.833,150.5 149.167,150.5 149.5,150.5C 149.315,151.17 148.981,151.17 148.5,150.5 Z"/></g>
<g><path style="opacity:0.012" fill="#aa5b91" d="M 147.5,151.5 C 147.833,151.5 148.167,151.5 148.5,151.5C 148.315,152.17 147.981,152.17 147.5,151.5 Z"/></g>
<g><path style="opacity:0.012" fill="#aa5b91" d="M 146.5,152.5 C 146.833,152.5 147.167,152.5 147.5,152.5C 147.315,153.17 146.981,153.17 146.5,152.5 Z"/></g>
<g><path style="opacity:0.012" fill="#aa5b91" d="M 55.5,153.5 C 54.8333,154.167 54.8333,154.167 55.5,153.5 Z"/></g>
<g><path style="opacity:0.012" fill="#aa5b91" d="M 145.5,153.5 C 145.833,153.5 146.167,153.5 146.5,153.5C 146.315,154.17 145.981,154.17 145.5,153.5 Z"/></g>
<g><path style="opacity:0.012" fill="#aa5b91" d="M 144.5,154.5 C 144.833,154.5 145.167,154.5 145.5,154.5C 145.315,155.17 144.981,155.17 144.5,154.5 Z"/></g>
<g><path style="opacity:0.012" fill="#aa5b91" d="M 143.5,155.5 C 143.833,155.5 144.167,155.5 144.5,155.5C 144.315,156.17 143.981,156.17 143.5,155.5 Z"/></g>
<g><path style="opacity:0.012" fill="#aa5b91" d="M 142.5,156.5 C 142.833,156.5 143.167,156.5 143.5,156.5C 143.315,157.17 142.981,157.17 142.5,156.5 Z"/></g>
<g><path style="opacity:0.012" fill="#aa5b91" d="M 141.5,157.5 C 141.833,157.5 142.167,157.5 142.5,157.5C 142.315,158.17 141.981,158.17 141.5,157.5 Z"/></g>
<g><path style="opacity:0.012" fill="#aa5b91" d="M 140.5,158.5 C 140.833,158.5 141.167,158.5 141.5,158.5C 141.315,159.17 140.981,159.17 140.5,158.5 Z"/></g>
<g><path style="opacity:0.012" fill="#aa5b91" d="M 139.5,159.5 C 139.833,159.5 140.167,159.5 140.5,159.5C 140.315,160.17 139.981,160.17 139.5,159.5 Z"/></g>
<g><path style="opacity:0.994" fill="#cc2b85" d="M 121.5,153.5 C 122.938,159.3 125.272,164.633 128.5,169.5C 128.5,169.833 128.5,170.167 128.5,170.5C 127.833,170.5 127.5,170.833 127.5,171.5C 126.833,171.5 126.5,171.833 126.5,172.5C 125.833,172.5 125.5,172.833 125.5,173.5C 124.833,173.5 124.5,173.833 124.5,174.5C 123.833,174.5 123.5,174.833 123.5,175.5C 122.833,175.5 122.5,175.833 122.5,176.5C 121.833,176.5 121.5,176.833 121.5,177.5C 120.833,177.5 120.5,177.833 120.5,178.5C 119.833,178.5 119.5,178.833 119.5,179.5C 118.833,179.5 118.5,179.833 118.5,180.5C 117.833,180.5 117.5,180.833 117.5,181.5C 117.167,181.5 116.833,181.5 116.5,181.5C 114.722,173.95 113.055,166.283 111.5,158.5C 111.167,155.833 110.833,153.167 110.5,150.5C 112.017,150.489 113.184,149.823 114,148.5C 114.667,149.167 115.333,149.833 116,150.5C 117,149.167 118,149.167 119,150.5C 119.333,149.833 119.667,149.167 120,148.5C 121.009,150.025 121.509,151.692 121.5,153.5 Z"/></g>
<g><path style="opacity:0.012" fill="#aa5b91" d="M 138.5,160.5 C 138.833,160.5 139.167,160.5 139.5,160.5C 139.315,161.17 138.981,161.17 138.5,160.5 Z"/></g>
<g><path style="opacity:0.012" fill="#aa5b91" d="M 137.5,161.5 C 137.833,161.5 138.167,161.5 138.5,161.5C 138.315,162.17 137.981,162.17 137.5,161.5 Z"/></g>
<g><path style="opacity:0.012" fill="#aa5b91" d="M 136.5,162.5 C 136.833,162.5 137.167,162.5 137.5,162.5C 137.315,163.17 136.981,163.17 136.5,162.5 Z"/></g>
<g><path style="opacity:0.012" fill="#aa5b91" d="M 135.5,163.5 C 135.833,163.5 136.167,163.5 136.5,163.5C 136.315,164.17 135.981,164.17 135.5,163.5 Z"/></g>
<g><path style="opacity:0.012" fill="#aa5b91" d="M 134.5,164.5 C 134.833,164.5 135.167,164.5 135.5,164.5C 135.315,165.17 134.981,165.17 134.5,164.5 Z"/></g>
<g><path style="opacity:0.012" fill="#aa5b91" d="M 67.5,165.5 C 66.8333,166.167 66.8333,166.167 67.5,165.5 Z"/></g>
<g><path style="opacity:1" fill="#e3accc" d="M 102.5,138.5 C 102.667,150.838 102.5,163.171 102,175.5C 101.817,178.365 101.317,181.031 100.5,183.5C 100.5,177.167 100.5,170.833 100.5,164.5C 101.167,155.833 101.833,147.167 102.5,138.5 Z"/></g>
<g><path style="opacity:0.012" fill="#aa5b91" d="M 133.5,165.5 C 133.833,165.5 134.167,165.5 134.5,165.5C 134.315,166.17 133.981,166.17 133.5,165.5 Z"/></g>
<g><path style="opacity:0.012" fill="#aa5b91" d="M 132.5,166.5 C 132.833,166.5 133.167,166.5 133.5,166.5C 133.315,167.17 132.981,167.17 132.5,166.5 Z"/></g>
<g><path style="opacity:0.012" fill="#aa5b91" d="M 131.5,167.5 C 131.833,167.5 132.167,167.5 132.5,167.5C 132.315,168.17 131.981,168.17 131.5,167.5 Z"/></g>
<g><path style="opacity:1" fill="#de77ac" d="M 103.5,145.5 C 104.321,148.641 104.821,151.975 105,155.5C 105.667,154.167 106.333,154.167 107,155.5C 108,157.167 109,158.833 110,160.5C 110.278,159.584 110.778,158.918 111.5,158.5C 113.055,166.283 114.722,173.95 116.5,181.5C 116.5,181.833 116.5,182.167 116.5,182.5C 115.833,182.5 115.5,182.833 115.5,183.5C 114.833,183.5 114.5,183.833 114.5,184.5C 113.833,184.5 113.5,184.833 113.5,185.5C 113.167,185.5 112.833,185.5 112.5,185.5C 109.737,185.744 107.571,187.077 106,189.5C 105.5,189 105,188.5 104.5,188C 104.428,185.824 104.762,183.824 105.5,182C 104.055,169.931 103.388,157.765 103.5,145.5 Z"/></g>
<g><path style="opacity:0.012" fill="#aa5b91" d="M 130.5,168.5 C 130.833,168.5 131.167,168.5 131.5,168.5C 131.315,169.17 130.981,169.17 130.5,168.5 Z"/></g>
<g><path style="opacity:0.012" fill="#aa5b91" d="M 129.5,169.5 C 129.833,169.5 130.167,169.5 130.5,169.5C 130.315,170.17 129.981,170.17 129.5,169.5 Z"/></g>
<g><path style="opacity:0.012" fill="#aa5b91" d="M 128.5,170.5 C 128.833,170.5 129.167,170.5 129.5,170.5C 129.315,171.17 128.981,171.17 128.5,170.5 Z"/></g>
<g><path style="opacity:0.012" fill="#aa5b91" d="M 127.5,171.5 C 127.833,171.5 128.167,171.5 128.5,171.5C 128.315,172.17 127.981,172.17 127.5,171.5 Z"/></g>
<g><path style="opacity:0.012" fill="#aa5b91" d="M 126.5,172.5 C 126.833,172.5 127.167,172.5 127.5,172.5C 127.315,173.17 126.981,173.17 126.5,172.5 Z"/></g>
<g><path style="opacity:0.012" fill="#aa5b91" d="M 125.5,173.5 C 125.833,173.5 126.167,173.5 126.5,173.5C 126.315,174.17 125.981,174.17 125.5,173.5 Z"/></g>
<g><path style="opacity:0.012" fill="#aa5b91" d="M 124.5,174.5 C 124.833,174.5 125.167,174.5 125.5,174.5C 125.315,175.17 124.981,175.17 124.5,174.5 Z"/></g>
<g><path style="opacity:0.012" fill="#aa5b91" d="M 123.5,175.5 C 123.833,175.5 124.167,175.5 124.5,175.5C 124.315,176.17 123.981,176.17 123.5,175.5 Z"/></g>
<g><path style="opacity:0.012" fill="#aa5b91" d="M 122.5,176.5 C 122.833,176.5 123.167,176.5 123.5,176.5C 123.315,177.17 122.981,177.17 122.5,176.5 Z"/></g>
<g><path style="opacity:0.012" fill="#aa5b91" d="M 121.5,177.5 C 121.833,177.5 122.167,177.5 122.5,177.5C 122.315,178.17 121.981,178.17 121.5,177.5 Z"/></g>
<g><path style="opacity:0.012" fill="#aa5b91" d="M 120.5,178.5 C 120.833,178.5 121.167,178.5 121.5,178.5C 121.315,179.17 120.981,179.17 120.5,178.5 Z"/></g>
<g><path style="opacity:0.012" fill="#aa5b91" d="M 119.5,179.5 C 119.833,179.5 120.167,179.5 120.5,179.5C 120.315,180.17 119.981,180.17 119.5,179.5 Z"/></g>
<g><path style="opacity:0.012" fill="#aa5b91" d="M 118.5,180.5 C 118.833,180.5 119.167,180.5 119.5,180.5C 119.315,181.17 118.981,181.17 118.5,180.5 Z"/></g>
<g><path style="opacity:0.012" fill="#aa5b91" d="M 117.5,181.5 C 117.833,181.5 118.167,181.5 118.5,181.5C 118.315,182.17 117.981,182.17 117.5,181.5 Z"/></g>
<g><path style="opacity:0.012" fill="#aa5b91" d="M 116.5,182.5 C 116.833,182.5 117.167,182.5 117.5,182.5C 117.315,183.17 116.981,183.17 116.5,182.5 Z"/></g>
<g><path style="opacity:0.012" fill="#aa5b91" d="M 115.5,183.5 C 115.833,183.5 116.167,183.5 116.5,183.5C 116.315,184.17 115.981,184.17 115.5,183.5 Z"/></g>
<g><path style="opacity:0.012" fill="#aa5b91" d="M 114.5,184.5 C 114.833,184.5 115.167,184.5 115.5,184.5C 115.315,185.17 114.981,185.17 114.5,184.5 Z"/></g>
<g><path style="opacity:0.012" fill="#aa5b91" d="M 113.5,185.5 C 113.833,185.5 114.167,185.5 114.5,185.5C 114.315,186.17 113.981,186.17 113.5,185.5 Z"/></g>
<g><path style="opacity:0.012" fill="#aa5b91" d="M 112.5,186.5 C 112.833,186.5 113.167,186.5 113.5,186.5C 113.315,187.17 112.981,187.17 112.5,186.5 Z"/></g>
<g><path style="opacity:0.012" fill="#aa5b91" d="M 111.5,187.5 C 111.833,187.5 112.167,187.5 112.5,187.5C 112.315,188.17 111.981,188.17 111.5,187.5 Z"/></g>
<g><path style="opacity:0.012" fill="#aa5b91" d="M 110.5,188.5 C 110.833,188.5 111.167,188.5 111.5,188.5C 111.315,189.17 110.981,189.17 110.5,188.5 Z"/></g>
<g><path style="opacity:0.012" fill="#aa5b91" d="M 92.5,189.5 C 93.1667,189.5 93.5,189.833 93.5,190.5C 94.1667,190.5 94.5,190.833 94.5,191.5C 94.1034,192.525 93.4368,192.692 92.5,192C 91.2264,191.023 91.2264,190.189 92.5,189.5 Z"/></g>
<g><path style="opacity:0.012" fill="#aa5b91" d="M 109.5,189.5 C 109.833,189.5 110.167,189.5 110.5,189.5C 110.315,190.17 109.981,190.17 109.5,189.5 Z"/></g>
<g><path style="opacity:0.012" fill="#aa5b91" d="M 108.5,190.5 C 108.833,190.5 109.167,190.5 109.5,190.5C 109.315,191.17 108.981,191.17 108.5,190.5 Z"/></g>
<g><path style="opacity:0.012" fill="#aa5b91" d="M 107.5,191.5 C 107.833,191.5 108.167,191.5 108.5,191.5C 108.315,192.17 107.981,192.17 107.5,191.5 Z"/></g>
<g><path style="opacity:0.012" fill="#aa5b91" d="M 106.5,192.5 C 106.833,192.5 107.167,192.5 107.5,192.5C 107.315,193.17 106.981,193.17 106.5,192.5 Z"/></g>
<g><path style="opacity:0.012" fill="#aa5b91" d="M 105.5,193.5 C 105.833,193.5 106.167,193.5 106.5,193.5C 106.315,194.17 105.981,194.17 105.5,193.5 Z"/></g>
<g><path style="opacity:0.012" fill="#aa5b91" d="M 104.5,194.5 C 104.833,194.5 105.167,194.5 105.5,194.5C 105.315,195.17 104.981,195.17 104.5,194.5 Z"/></g>
<g><path style="opacity:0.012" fill="#aa5b91" d="M 98.5,195.5 C 97.8333,196.167 97.8333,196.167 98.5,195.5 Z"/></g>
<g><path style="opacity:0.012" fill="#aa5b91" d="M 103.5,195.5 C 103.833,195.5 104.167,195.5 104.5,195.5C 104.315,196.17 103.981,196.17 103.5,195.5 Z"/></g>
<g><path style="opacity:0.012" fill="#aa5b91" d="M 102.5,196.5 C 102.833,196.5 103.167,196.5 103.5,196.5C 103.315,197.17 102.981,197.17 102.5,196.5 Z"/></g>
</svg>
