<?xml version="1.0" encoding="UTF-8"?>
<!DOCTYPE svg PUBLIC "-//W3C//DTD SVG 1.1//EN" "http://www.w3.org/Graphics/SVG/1.1/DTD/svg11.dtd">
<svg xmlns="http://www.w3.org/2000/svg" version="1.1" width="200px" height="200px" style="shape-rendering:geometricPrecision; text-rendering:geometricPrecision; image-rendering:optimizeQuality; fill-rule:evenodd; clip-rule:evenodd" xmlns:xlink="http://www.w3.org/1999/xlink">
<g><path style="opacity:0.008" fill="#d8c72f" d="M 94.5,12.5 C 93.8333,11.1667 93.8333,11.1667 94.5,12.5 Z"/></g>
<g><path style="opacity:0.008" fill="#d8c72f" d="M 105.5,12.5 C 106.833,13.1667 106.833,13.1667 105.5,12.5 Z"/></g>
<g><path style="opacity:1" fill="#cdab20" d="M 102.5,12.5 C 103.391,13.1098 104.391,13.4431 105.5,13.5C 106.167,14.1667 106.833,14.8333 107.5,15.5C 106.761,15.369 106.094,15.5357 105.5,16C 106.081,16.8926 106.415,17.8926 106.5,19C 105.44,29.5543 104.44,40.3876 103.5,51.5C 103.305,58.6917 102.971,66.025 102.5,73.5C 101.5,67.9269 101.167,61.5935 101.5,54.5C 101.718,40.4966 102.051,26.4966 102.5,12.5 Z"/></g>
<g><path style="opacity:0.008" fill="#d8c72f" d="M 84.5,16.5 C 85.8333,17.1667 85.8333,17.1667 84.5,16.5 Z"/></g>
<g><path style="opacity:0.008" fill="#d8c72f" d="M 84.5,17.5 C 84.5,17.8333 84.5,18.1667 84.5,18.5C 83.8299,18.0187 83.8299,17.6853 84.5,17.5 Z"/></g>
<g><path style="opacity:1" fill="#e1be16" d="M 107.5,15.5 C 110.032,16.5957 112.365,17.9291 114.5,19.5C 112.739,30.4987 110.406,41.1654 107.5,51.5C 106.298,52.4054 104.964,52.4054 103.5,51.5C 104.44,40.3876 105.44,29.5543 106.5,19C 106.415,17.8926 106.081,16.8926 105.5,16C 106.094,15.5357 106.761,15.369 107.5,15.5 Z"/></g>
<g><path style="opacity:1" fill="#fef6b6" d="M 87.5,17.5 C 88.0369,22.8506 88.7035,28.1839 89.5,33.5C 88.71,32.3915 88.21,31.0581 88,29.5C 87.1061,31.9787 86.7728,34.312 87,36.5C 86.586,36.0426 86.086,35.7093 85.5,35.5C 84.1667,37.1667 82.8333,38.8333 81.5,40.5C 75.0182,42.7217 69.6849,46.3884 65.5,51.5C 64.8333,50.8333 64.1667,50.1667 63.5,49.5C 60.0846,45.4242 57.0846,41.0908 54.5,36.5C 60.5359,32.819 66.5359,29.1523 72.5,25.5C 74.0269,25.573 75.0269,24.9063 75.5,23.5C 78.7598,22.2262 81.7598,20.5595 84.5,18.5C 85.609,18.4431 86.609,18.1098 87.5,17.5 Z"/></g>
<g><path style="opacity:0.008" fill="#d8c72f" d="M 75.5,23.5 C 74.8333,22.1667 74.8333,22.1667 75.5,23.5 Z"/></g>
<g><path style="opacity:0.008" fill="#d8c72f" d="M 72.5,23.5 C 73.8333,24.1667 73.8333,24.1667 72.5,23.5 Z"/></g>
<g><path style="opacity:0.008" fill="#d8c72f" d="M 72.5,24.5 C 72.5,24.8333 72.5,25.1667 72.5,25.5C 71.8299,25.0187 71.8299,24.6853 72.5,24.5 Z"/></g>
<g><path style="opacity:1" fill="#efd31b" d="M 114.5,19.5 C 122.864,23.677 130.864,28.3436 138.5,33.5C 136.227,32.2647 134.394,32.5981 133,34.5C 131.153,38.1932 129.32,41.8599 127.5,45.5C 125.595,48.3037 123.929,51.3037 122.5,54.5C 121.603,55.5981 120.77,55.5981 120,54.5C 119.667,55.1667 119.333,55.8333 119,56.5C 117.007,55.8532 115.341,54.1866 114,51.5C 113.333,54.1667 112.667,54.1667 112,51.5C 110.612,51.2144 109.112,51.5477 107.5,52.5C 107.5,52.1667 107.5,51.8333 107.5,51.5C 110.406,41.1654 112.739,30.4987 114.5,19.5 Z"/></g>
<g><path style="opacity:1" fill="#fef7bf" d="M 89.5,33.5 C 90.5025,38.8591 91.5025,44.1924 92.5,49.5C 92.7244,53.1788 93.0578,56.8455 93.5,60.5C 91.7,59.3948 90.5334,60.0614 90,62.5C 88.9505,61.4829 87.7839,61.3162 86.5,62C 87.9561,62.4226 88.4561,63.2559 88,64.5C 87,63.1667 86,63.1667 85,64.5C 84.6667,63.8333 84.3333,63.1667 84,62.5C 83.0296,64.2738 82.1963,66.1072 81.5,68C 82.5804,69.4553 82.5804,70.9553 81.5,72.5C 78.8333,69.1667 76.1667,65.8333 73.5,62.5C 70.8333,58.8333 68.1667,55.1667 65.5,51.5C 69.6849,46.3884 75.0182,42.7217 81.5,40.5C 82.8333,38.8333 84.1667,37.1667 85.5,35.5C 86.086,35.7093 86.586,36.0426 87,36.5C 86.7728,34.312 87.1061,31.9787 88,29.5C 88.21,31.0581 88.71,32.3915 89.5,33.5 Z"/></g>
<g><path style="opacity:1" fill="#f3db59" d="M 100.5,11.5 C 101.167,11.8333 101.833,12.1667 102.5,12.5C 102.051,26.4966 101.718,40.4966 101.5,54.5C 101.167,54.5 100.833,54.5 100.5,54.5C 99.2167,40.1177 99.2167,25.7844 100.5,11.5 Z"/></g>
<g><path style="opacity:0.008" fill="#d8c72f" d="M 51.5,37.5 C 50.8333,36.1667 50.8333,36.1667 51.5,37.5 Z"/></g>
<g><path style="opacity:1" fill="#faf187" d="M 100.5,11.5 C 99.2167,25.7844 99.2167,40.1177 100.5,54.5C 100.5,58.1667 100.5,61.8333 100.5,65.5C 99.6456,58.9852 98.8123,52.3186 98,45.5C 97.7167,48.7423 96.8834,49.0756 95.5,46.5C 94.265,47.3398 93.265,48.3398 92.5,49.5C 91.5025,44.1924 90.5025,38.8591 89.5,33.5C 88.7035,28.1839 88.0369,22.8506 87.5,17.5C 90.0094,16.0787 92.3428,14.4121 94.5,12.5C 96.258,12.1231 97.9246,11.4565 99.5,10.5C 100.107,10.6236 100.44,10.9569 100.5,11.5 Z"/></g>
<g><path style="opacity:0.008" fill="#d8c72f" d="M 149.5,37.5 C 150.833,38.1667 150.833,38.1667 149.5,37.5 Z"/></g>
<g><path style="opacity:1" fill="#f1d83c" d="M 138.5,33.5 C 140.17,33.7512 141.67,34.4178 143,35.5C 143.414,35.0426 143.914,34.7093 144.5,34.5C 144.695,36.867 146.361,38.2003 149.5,38.5C 150.167,39.1667 150.833,39.8333 151.5,40.5C 147.464,44.5344 143.798,48.8677 140.5,53.5C 140.167,53.5 139.833,53.5 139.5,53.5C 138.503,53.5299 137.836,53.0299 137.5,52C 138.686,49.1862 137.853,48.3529 135,49.5C 134.683,47.6992 134.016,47.3659 133,48.5C 131.177,47.6883 129.344,46.6883 127.5,45.5C 129.32,41.8599 131.153,38.1932 133,34.5C 134.394,32.5981 136.227,32.2647 138.5,33.5 Z"/></g>
<g><path style="opacity:1" fill="#fbf486" d="M 54.5,36.5 C 57.0846,41.0908 60.0846,45.4242 63.5,49.5C 60.0546,54.1428 57.3879,58.8094 55.5,63.5C 48.8443,59.5008 42.511,55.0008 36.5,50C 35.2068,49.51 33.8734,49.3433 32.5,49.5C 32.5,49.1667 32.5,48.8333 32.5,48.5C 34.7453,48.4588 35.4119,47.6255 34.5,46C 37.0941,46.3907 39.4275,45.5573 41.5,43.5C 44.0317,43.1714 45.0317,42.0048 44.5,40C 45.549,39.5078 46.549,39.6744 47.5,40.5C 48.9014,39.4793 50.2347,38.4793 51.5,37.5C 52.609,37.4431 53.609,37.1098 54.5,36.5 Z"/></g>
<g><path style="opacity:0.008" fill="#d8c72f" d="M 154.5,40.5 C 155.833,41.1667 155.833,41.1667 154.5,40.5 Z"/></g>
<g><path style="opacity:0.008" fill="#d8c72f" d="M 41.5,41.5 C 42.8333,42.1667 42.8333,42.1667 41.5,41.5 Z"/></g>
<g><path style="opacity:0.008" fill="#d8c72f" d="M 156.5,41.5 C 157.833,42.1667 157.833,42.1667 156.5,41.5 Z"/></g>
<g><path style="opacity:0.008" fill="#d8c72f" d="M 41.5,42.5 C 41.5,42.8333 41.5,43.1667 41.5,43.5C 40.8299,43.0187 40.8299,42.6853 41.5,42.5 Z"/></g>
<g><path style="opacity:1" fill="#f2e576" d="M 151.5,40.5 C 152.391,41.1098 153.391,41.4431 154.5,41.5C 154.842,42.3382 155.508,42.6716 156.5,42.5C 157.899,43.8897 159.566,44.8897 161.5,45.5C 161.842,46.3382 162.508,46.6716 163.5,46.5C 164.899,47.8897 166.566,48.8897 168.5,49.5C 169.514,50.6737 170.847,51.3404 172.5,51.5C 173.806,52.4674 174.473,53.8007 174.5,55.5C 173.833,55.5 173.5,55.8333 173.5,56.5C 170.605,57.3994 167.938,58.7328 165.5,60.5C 164.534,57.8753 163.534,57.8753 162.5,60.5C 161.459,58.0087 160.626,58.0087 160,60.5C 159.612,59.572 158.945,58.9054 158,58.5C 155.323,60.6738 152.323,62.3405 149,63.5C 145.846,61.0624 143.013,58.229 140.5,55C 143.097,54.2208 143.097,53.7208 140.5,53.5C 143.798,48.8677 147.464,44.5344 151.5,40.5 Z"/></g>
<g><path style="opacity:0.008" fill="#d8c72f" d="M 161.5,44.5 C 162.833,45.1667 162.833,45.1667 161.5,44.5 Z"/></g>
<g><path style="opacity:0.008" fill="#d8c72f" d="M 163.5,45.5 C 164.833,46.1667 164.833,46.1667 163.5,45.5 Z"/></g>
<g><path style="opacity:0.008" fill="#d8c72f" d="M 32.5,48.5 C 31.8333,47.1667 31.8333,47.1667 32.5,48.5 Z"/></g>
<g><path style="opacity:0.008" fill="#d8c72f" d="M 168.5,48.5 C 169.833,49.1667 169.833,49.1667 168.5,48.5 Z"/></g>
<g><path style="opacity:1" fill="#f4f2b2" d="M 32.5,49.5 C 33.8734,49.3433 35.2068,49.51 36.5,50C 42.511,55.0008 48.8443,59.5008 55.5,63.5C 55.5,63.8333 55.5,64.1667 55.5,64.5C 55.5169,66.1147 54.5169,67.6147 52.5,69C 53.056,69.3826 53.3893,69.8826 53.5,70.5C 51.8333,69.8333 50.1667,69.1667 48.5,68.5C 40.8636,63.3436 32.8636,58.677 24.5,54.5C 26.822,52.336 29.4887,50.6693 32.5,49.5 Z"/></g>
<g><path style="opacity:1" fill="#f2da4a" d="M 127.5,45.5 C 129.344,46.6883 131.177,47.6883 133,48.5C 134.016,47.3659 134.683,47.6992 135,49.5C 137.853,48.3529 138.686,49.1862 137.5,52C 137.836,53.0299 138.503,53.5299 139.5,53.5C 136.833,56.8333 133.833,59.8333 130.5,62.5C 130.422,61.3449 130.088,60.0116 129.5,58.5C 128.914,58.7093 128.414,59.0426 128,59.5C 126.322,57.655 124.489,55.9884 122.5,54.5C 123.929,51.3037 125.595,48.3037 127.5,45.5 Z"/></g>
<g><path style="opacity:0.008" fill="#d8c72f" d="M 172.5,50.5 C 173.833,51.1667 173.833,51.1667 172.5,50.5 Z"/></g>
<g><path style="opacity:1" fill="#f1d83f" d="M 122.5,54.5 C 119.981,58.7125 117.648,63.0458 115.5,67.5C 114.752,69.3325 113.752,70.9991 112.5,72.5C 109.872,72.3176 107.539,70.9843 105.5,68.5C 106.167,63.1667 106.833,57.8333 107.5,52.5C 109.112,51.5477 110.612,51.2144 112,51.5C 112.667,54.1667 113.333,54.1667 114,51.5C 115.341,54.1866 117.007,55.8532 119,56.5C 119.333,55.8333 119.667,55.1667 120,54.5C 120.77,55.5981 121.603,55.5981 122.5,54.5 Z"/></g>
<g><path style="opacity:1" fill="#fcf590" d="M 63.5,49.5 C 64.1667,50.1667 64.8333,50.8333 65.5,51.5C 68.1667,55.1667 70.8333,58.8333 73.5,62.5C 71.5637,66.9841 69.5637,70.3174 67.5,72.5C 63.772,69.4411 59.772,66.7744 55.5,64.5C 55.5,64.1667 55.5,63.8333 55.5,63.5C 57.3879,58.8094 60.0546,54.1428 63.5,49.5 Z"/></g>
<g><path style="opacity:0.008" fill="#d8c72f" d="M 24.5,54.5 C 24.5,54.8333 24.5,55.1667 24.5,55.5C 23.6677,83.9971 23.1677,112.664 23,141.5C 22.3333,112.167 22.3333,82.8333 23,53.5C 23.3826,54.056 23.8826,54.3893 24.5,54.5 Z"/></g>
<g><path style="opacity:0.008" fill="#d8c72f" d="M 174.5,139.5 C 174.5,139.167 174.5,138.833 174.5,138.5C 175.332,110.336 175.832,82.003 176,53.5C 176.667,82.1667 176.667,110.833 176,139.5C 175.31,140.738 174.81,140.738 174.5,139.5 Z"/></g>
<g><path style="opacity:1" fill="#a47227" d="M 24.5,54.5 C 32.8636,58.677 40.8636,63.3436 48.5,68.5C 47.9095,70.0972 46.9095,71.4305 45.5,72.5C 46.3798,75.125 45.7131,77.4584 43.5,79.5C 43.9767,80.4776 44.6433,81.3109 45.5,82C 44.6634,83.0113 44.33,84.1779 44.5,85.5C 43.1667,85.5 41.8333,85.5 40.5,85.5C 35.1667,84.8333 29.8333,84.1667 24.5,83.5C 24.5,74.1667 24.5,64.8333 24.5,55.5C 24.5,55.1667 24.5,54.8333 24.5,54.5 Z"/></g>
<g><path style="opacity:1" fill="#e7cb41" d="M 103.5,51.5 C 104.964,52.4054 106.298,52.4054 107.5,51.5C 107.5,51.8333 107.5,52.1667 107.5,52.5C 106.833,57.8333 106.167,63.1667 105.5,68.5C 105.436,69.3652 105.103,70.3652 104.5,71.5C 103.833,72.1667 103.167,72.8333 102.5,73.5C 102.971,66.025 103.305,58.6917 103.5,51.5 Z"/></g>
<g><path style="opacity:1" fill="#faf49e" d="M 100.5,65.5 C 100.5,72.5 100.5,79.5 100.5,86.5C 100.19,89.7131 100.523,92.7131 101.5,95.5C 101.167,96.1667 100.833,96.8333 100.5,97.5C 100.167,97.5 99.8333,97.5 99.5,97.5C 99.5,97.1667 99.5,96.8333 99.5,96.5C 99.5,96.1667 99.5,95.8333 99.5,95.5C 98.2472,83.586 96.2472,71.9193 93.5,60.5C 93.0578,56.8455 92.7244,53.1788 92.5,49.5C 93.265,48.3398 94.265,47.3398 95.5,46.5C 96.8834,49.0756 97.7167,48.7423 98,45.5C 98.8123,52.3186 99.6456,58.9852 100.5,65.5 Z"/></g>
<g><path style="opacity:1" fill="#f4dd5b" d="M 122.5,54.5 C 124.489,55.9884 126.322,57.655 128,59.5C 128.414,59.0426 128.914,58.7093 129.5,58.5C 130.088,60.0116 130.422,61.3449 130.5,62.5C 130.5,63.1667 130.5,63.8333 130.5,64.5C 127.833,66.8333 125.167,69.1667 122.5,71.5C 121.778,71.0825 121.278,70.4158 121,69.5C 120.667,70.1667 120.333,70.8333 120,71.5C 119.333,70.1667 118.667,68.8333 118,67.5C 117.23,68.5981 116.397,68.5981 115.5,67.5C 117.648,63.0458 119.981,58.7125 122.5,54.5 Z"/></g>
<g><path style="opacity:1" fill="#f2e783" d="M 139.5,53.5 C 139.833,53.5 140.167,53.5 140.5,53.5C 143.097,53.7208 143.097,54.2208 140.5,55C 143.013,58.229 145.846,61.0624 149,63.5C 152.323,62.3405 155.323,60.6738 158,58.5C 158.945,58.9054 159.612,59.572 160,60.5C 160.626,58.0087 161.459,58.0087 162.5,60.5C 163.534,57.8753 164.534,57.8753 165.5,60.5C 160.797,63.5136 156.13,66.5136 151.5,69.5C 149.02,70.242 146.687,71.242 144.5,72.5C 143.709,70.9438 143.376,69.6105 143.5,68.5C 141.028,70.2514 138.361,71.0847 135.5,71C 133.875,70.1475 133.542,69.1475 134.5,68C 133.295,66.6244 131.962,65.4577 130.5,64.5C 130.5,63.8333 130.5,63.1667 130.5,62.5C 133.833,59.8333 136.833,56.8333 139.5,53.5 Z"/></g>
<g><path style="opacity:1" fill="#e6cd61" d="M 100.5,54.5 C 100.833,54.5 101.167,54.5 101.5,54.5C 101.167,61.5935 101.5,67.9269 102.5,73.5C 103.167,72.8333 103.833,72.1667 104.5,71.5C 103.408,76.6546 102.075,81.6546 100.5,86.5C 100.5,79.5 100.5,72.5 100.5,65.5C 100.5,61.8333 100.5,58.1667 100.5,54.5 Z"/></g>
<g><path style="opacity:1" fill="#f3e98d" d="M 130.5,64.5 C 131.962,65.4577 133.295,66.6244 134.5,68C 133.542,69.1475 133.875,70.1475 135.5,71C 138.361,71.0847 141.028,70.2514 143.5,68.5C 143.376,69.6105 143.709,70.9438 144.5,72.5C 143.101,73.8897 141.434,74.8897 139.5,75.5C 138.761,75.631 138.094,75.4643 137.5,75C 138.451,74.2825 138.617,73.4491 138,72.5C 134.912,74.2941 131.746,75.9608 128.5,77.5C 125.859,76.4904 123.859,74.8237 122.5,72.5C 122.5,72.1667 122.5,71.8333 122.5,71.5C 125.167,69.1667 127.833,66.8333 130.5,64.5 Z"/></g>
<g><path style="opacity:1" fill="#a0682f" d="M 173.5,56.5 C 173.82,59.8984 173.487,63.2317 172.5,66.5C 165.579,69.4643 158.579,72.1309 151.5,74.5C 151.5,72.8333 151.5,71.1667 151.5,69.5C 156.13,66.5136 160.797,63.5136 165.5,60.5C 167.938,58.7328 170.605,57.3994 173.5,56.5 Z"/></g>
<g><path style="opacity:1" fill="#fef8cb" d="M 93.5,60.5 C 96.2472,71.9193 98.2472,83.586 99.5,95.5C 98.7281,94.3065 97.7281,93.3065 96.5,92.5C 91.8847,85.5505 86.8847,78.8838 81.5,72.5C 82.5804,70.9553 82.5804,69.4553 81.5,68C 82.1963,66.1072 83.0296,64.2738 84,62.5C 84.3333,63.1667 84.6667,63.8333 85,64.5C 86,63.1667 87,63.1667 88,64.5C 88.4561,63.2559 87.9561,62.4226 86.5,62C 87.7839,61.3162 88.9505,61.4829 90,62.5C 90.5334,60.0614 91.7,59.3948 93.5,60.5 Z"/></g>
<g><path style="opacity:1" fill="#fcf6a3" d="M 73.5,62.5 C 76.1667,65.8333 78.8333,69.1667 81.5,72.5C 86.8847,78.8838 91.8847,85.5505 96.5,92.5C 96.5654,92.9382 96.3988,93.2716 96,93.5C 86.3434,86.601 76.8434,79.601 67.5,72.5C 69.5637,70.3174 71.5637,66.9841 73.5,62.5 Z"/></g>
<g><path style="opacity:1" fill="#ac7b45" d="M 151.5,69.5 C 151.5,71.1667 151.5,72.8333 151.5,74.5C 151.5,74.8333 151.5,75.1667 151.5,75.5C 144.927,77.7958 138.594,80.4625 132.5,83.5C 130.516,83.3832 128.85,84.0499 127.5,85.5C 126.537,85.0302 126.537,84.3635 127.5,83.5C 128.167,82.8333 128.833,82.1667 129.5,81.5C 133.201,79.9884 136.534,77.9884 139.5,75.5C 141.434,74.8897 143.101,73.8897 144.5,72.5C 146.687,71.242 149.02,70.242 151.5,69.5 Z"/></g>
<g><path style="opacity:1" fill="#ac7f3b" d="M 48.5,68.5 C 50.1667,69.1667 51.8333,69.8333 53.5,70.5C 57.3359,72.5836 61.0026,74.917 64.5,77.5C 63.7688,77.9418 62.7688,78.1085 61.5,78C 60.6874,81.1481 60.6874,84.1481 61.5,87C 60.255,87.7914 58.9217,88.2914 57.5,88.5C 55.1902,88.2417 53.1902,88.2417 51.5,88.5C 47.7668,87.3874 44.1001,86.3874 40.5,85.5C 41.8333,85.5 43.1667,85.5 44.5,85.5C 44.33,84.1779 44.6634,83.0113 45.5,82C 44.6433,81.3109 43.9767,80.4776 43.5,79.5C 45.7131,77.4584 46.3798,75.125 45.5,72.5C 46.9095,71.4305 47.9095,70.0972 48.5,68.5 Z"/></g>
<g><path style="opacity:1" fill="#f4eb98" d="M 122.5,72.5 C 123.859,74.8237 125.859,76.4904 128.5,77.5C 131.746,75.9608 134.912,74.2941 138,72.5C 138.617,73.4491 138.451,74.2825 137.5,75C 138.094,75.4643 138.761,75.631 139.5,75.5C 136.534,77.9884 133.201,79.9884 129.5,81.5C 128.25,81.4226 127.417,80.756 127,79.5C 123.333,81.5 119.667,83.5 116,85.5C 115.623,84.0577 114.79,83.0577 113.5,82.5C 116.5,79.1667 119.5,75.8333 122.5,72.5 Z"/></g>
<g><path style="opacity:1" fill="#f5f4be" d="M 55.5,64.5 C 59.772,66.7744 63.772,69.4411 67.5,72.5C 76.8434,79.601 86.3434,86.601 96,93.5C 96.3988,93.2716 96.5654,92.9382 96.5,92.5C 97.7281,93.3065 98.7281,94.3065 99.5,95.5C 99.5,95.8333 99.5,96.1667 99.5,96.5C 94.1667,93.8333 88.8333,91.1667 83.5,88.5C 79.8638,85.677 75.8638,83.3437 71.5,81.5C 69.3374,79.9172 67.0041,78.5839 64.5,77.5C 61.0026,74.917 57.3359,72.5836 53.5,70.5C 53.3893,69.8826 53.056,69.3826 52.5,69C 54.5169,67.6147 55.5169,66.1147 55.5,64.5 Z"/></g>
<g><path style="opacity:1" fill="#f4de5d" d="M 105.5,68.5 C 107.539,70.9843 109.872,72.3176 112.5,72.5C 108.833,79.8333 105.167,87.1667 101.5,94.5C 101.5,94.8333 101.5,95.1667 101.5,95.5C 100.523,92.7131 100.19,89.7131 100.5,86.5C 102.075,81.6546 103.408,76.6546 104.5,71.5C 105.103,70.3652 105.436,69.3652 105.5,68.5 Z"/></g>
<g><path style="opacity:1" fill="#ba8229" d="M 174.5,55.5 C 174.5,71.8333 174.5,88.1667 174.5,104.5C 174.167,104.5 173.833,104.5 173.5,104.5C 173.83,98.1318 173.496,91.7985 172.5,85.5C 165.574,86.9596 158.574,87.9596 151.5,88.5C 151.25,84.2505 151.25,79.9172 151.5,75.5C 151.5,75.1667 151.5,74.8333 151.5,74.5C 158.579,72.1309 165.579,69.4643 172.5,66.5C 173.487,63.2317 173.82,59.8984 173.5,56.5C 173.5,55.8333 173.833,55.5 174.5,55.5 Z"/></g>
<g><path style="opacity:1" fill="#f5e476" d="M 115.5,67.5 C 116.397,68.5981 117.23,68.5981 118,67.5C 118.667,68.8333 119.333,70.1667 120,71.5C 120.333,70.8333 120.667,70.1667 121,69.5C 121.278,70.4158 121.778,71.0825 122.5,71.5C 122.5,71.8333 122.5,72.1667 122.5,72.5C 119.5,75.8333 116.5,79.1667 113.5,82.5C 109.833,86.8333 105.833,90.8333 101.5,94.5C 105.167,87.1667 108.833,79.8333 112.5,72.5C 113.752,70.9991 114.752,69.3325 115.5,67.5 Z"/></g>
<g><path style="opacity:1" fill="#c18f41" d="M 151.5,75.5 C 151.25,79.9172 151.25,84.2505 151.5,88.5C 148.239,89.3778 144.906,90.0445 141.5,90.5C 139.194,90.9926 136.861,91.3259 134.5,91.5C 134.167,91.5 133.833,91.5 133.5,91.5C 133.64,89.8762 132.973,88.7096 131.5,88C 132.308,87.6924 132.975,87.1924 133.5,86.5C 132.944,85.3366 132.611,84.3366 132.5,83.5C 138.594,80.4625 144.927,77.7958 151.5,75.5 Z"/></g>
<g><path style="opacity:1" fill="#b88e50" d="M 64.5,77.5 C 67.0041,78.5839 69.3374,79.9172 71.5,81.5C 71.0825,82.2216 70.4158,82.7216 69.5,83C 70.0509,84.3985 70.3842,85.7318 70.5,87C 67.8333,87.6667 67.8333,88.3333 70.5,89C 69.3279,89.4186 68.3279,90.0853 67.5,91C 71.7851,91.1168 73.7851,93.2834 73.5,97.5C 74.5,97.5 75.5,97.5 76.5,97.5C 76.5,97.8333 76.5,98.1667 76.5,98.5C 72.8333,98.5 69.1667,98.5 65.5,98.5C 65.9175,97.7784 66.5842,97.2784 67.5,97C 65.9544,95.5604 65.121,93.7271 65,91.5C 62.4333,90.4131 59.9333,89.4131 57.5,88.5C 58.9217,88.2914 60.255,87.7914 61.5,87C 60.6874,84.1481 60.6874,81.1481 61.5,78C 62.7688,78.1085 63.7688,77.9418 64.5,77.5 Z"/></g>
<g><path style="opacity:1" fill="#bd975e" d="M 71.5,81.5 C 75.8638,83.3437 79.8638,85.677 83.5,88.5C 82.4908,89.9391 82.8241,91.2724 84.5,92.5C 83.3493,93.731 82.1827,93.731 81,92.5C 80.6258,93.4162 80.1258,94.2496 79.5,95C 80.2524,95.6708 80.5858,96.5041 80.5,97.5C 79.1667,97.5 77.8333,97.5 76.5,97.5C 75.5,97.5 74.5,97.5 73.5,97.5C 73.7851,93.2834 71.7851,91.1168 67.5,91C 68.3279,90.0853 69.3279,89.4186 70.5,89C 67.8333,88.3333 67.8333,87.6667 70.5,87C 70.3842,85.7318 70.0509,84.3985 69.5,83C 70.4158,82.7216 71.0825,82.2216 71.5,81.5 Z"/></g>
<g><path style="opacity:1" fill="#b37d30" d="M 24.5,83.5 C 29.8333,84.1667 35.1667,84.8333 40.5,85.5C 44.1001,86.3874 47.7668,87.3874 51.5,88.5C 52.2122,91.7415 52.2122,95.0749 51.5,98.5C 53.8333,98.5 56.1667,98.5 58.5,98.5C 58.5,98.8333 58.5,99.1667 58.5,99.5C 47.1538,99.4861 35.8205,99.8194 24.5,100.5C 24.5,94.8333 24.5,89.1667 24.5,83.5 Z"/></g>
<g><path style="opacity:1" fill="#f4eda5" d="M 129.5,81.5 C 128.833,82.1667 128.167,82.8333 127.5,83.5C 120.566,87.1101 113.9,91.1101 107.5,95.5C 106.5,95.8333 105.833,96.5 105.5,97.5C 109.205,100.526 113.205,103.192 117.5,105.5C 117.5,106.167 117.167,106.5 116.5,106.5C 111.167,103.5 105.833,100.5 100.5,97.5C 100.833,96.8333 101.167,96.1667 101.5,95.5C 101.5,95.1667 101.5,94.8333 101.5,94.5C 105.833,90.8333 109.833,86.8333 113.5,82.5C 114.79,83.0577 115.623,84.0577 116,85.5C 119.667,83.5 123.333,81.5 127,79.5C 127.417,80.756 128.25,81.4226 129.5,81.5 Z"/></g>
<g><path style="opacity:1" fill="#ba8a45" d="M 57.5,88.5 C 59.9333,89.4131 62.4333,90.4131 65,91.5C 65.121,93.7271 65.9544,95.5604 67.5,97C 66.5842,97.2784 65.9175,97.7784 65.5,98.5C 63.1667,98.5 60.8333,98.5 58.5,98.5C 56.1667,98.5 53.8333,98.5 51.5,98.5C 52.2122,95.0749 52.2122,91.7415 51.5,88.5C 53.1902,88.2417 55.1902,88.2417 57.5,88.5 Z"/></g>
<g><path style="opacity:1" fill="#cc9c1a" d="M 173.5,104.5 C 171.167,104.5 168.833,104.5 166.5,104.5C 161.18,103.74 155.847,103.073 150.5,102.5C 148.833,102.5 147.167,102.5 145.5,102.5C 143.095,101.232 140.428,100.565 137.5,100.5C 138.755,98.4812 139.089,96.4812 138.5,94.5C 139.172,92.8405 140.172,91.5072 141.5,90.5C 144.906,90.0445 148.239,89.3778 151.5,88.5C 158.574,87.9596 165.574,86.9596 172.5,85.5C 173.496,91.7985 173.83,98.1318 173.5,104.5 Z"/></g>
<g><path style="opacity:1" fill="#c7a46d" d="M 83.5,88.5 C 88.8333,91.1667 94.1667,93.8333 99.5,96.5C 99.5,96.8333 99.5,97.1667 99.5,97.5C 98.5987,98.2905 97.9321,99.2905 97.5,100.5C 94.5,103.167 91.5,105.833 88.5,108.5C 86.9382,108.267 85.6049,107.6 84.5,106.5C 84.5,106.167 84.5,105.833 84.5,105.5C 89.1051,103.529 93.4385,101.029 97.5,98C 91.8431,97.5006 86.1764,97.3339 80.5,97.5C 80.5858,96.5041 80.2524,95.6708 79.5,95C 80.1258,94.2496 80.6258,93.4162 81,92.5C 82.1827,93.731 83.3493,93.731 84.5,92.5C 82.8241,91.2724 82.4908,89.9391 83.5,88.5 Z"/></g>
<g><path style="opacity:1" fill="#cba563" d="M 127.5,83.5 C 126.537,84.3635 126.537,85.0302 127.5,85.5C 128.85,84.0499 130.516,83.3832 132.5,83.5C 132.611,84.3366 132.944,85.3366 133.5,86.5C 132.975,87.1924 132.308,87.6924 131.5,88C 132.973,88.7096 133.64,89.8762 133.5,91.5C 124.918,93.2976 116.251,94.6309 107.5,95.5C 113.9,91.1101 120.566,87.1101 127.5,83.5 Z"/></g>
<g><path style="opacity:1" fill="#d4ab3b" d="M 141.5,90.5 C 140.172,91.5072 139.172,92.8405 138.5,94.5C 139.089,96.4812 138.755,98.4812 137.5,100.5C 134.167,100.5 130.833,100.5 127.5,100.5C 127.5,100.167 127.5,99.8333 127.5,99.5C 129.199,99.6602 130.866,99.4935 132.5,99C 131.692,98.6924 131.025,98.1924 130.5,97.5C 131.467,95.2099 132.8,93.2099 134.5,91.5C 136.861,91.3259 139.194,90.9926 141.5,90.5 Z"/></g>
<g><path style="opacity:1" fill="#d8b451" d="M 133.5,91.5 C 133.833,91.5 134.167,91.5 134.5,91.5C 132.8,93.2099 131.467,95.2099 130.5,97.5C 131.025,98.1924 131.692,98.6924 132.5,99C 130.866,99.4935 129.199,99.6602 127.5,99.5C 120.101,99.4886 112.767,98.8219 105.5,97.5C 105.833,96.5 106.5,95.8333 107.5,95.5C 116.251,94.6309 124.918,93.2976 133.5,91.5 Z"/></g>
<g><path style="opacity:1" fill="#ebca56" d="M 76.5,98.5 C 76.5,98.1667 76.5,97.8333 76.5,97.5C 77.8333,97.5 79.1667,97.5 80.5,97.5C 86.1764,97.3339 91.8431,97.5006 97.5,98C 93.4385,101.029 89.1051,103.529 84.5,105.5C 84.5875,102.402 84.0875,102.068 83,104.5C 81.5861,103.587 80.0861,103.587 78.5,104.5C 79.4523,102.888 79.7856,101.388 79.5,100C 78.7562,98.9614 77.7562,98.4614 76.5,98.5 Z"/></g>
<g><path style="opacity:1" fill="#e7be3b" d="M 58.5,99.5 C 58.5,99.1667 58.5,98.8333 58.5,98.5C 60.8333,98.5 63.1667,98.5 65.5,98.5C 69.1667,98.5 72.8333,98.5 76.5,98.5C 77.7562,98.4614 78.7562,98.9614 79.5,100C 79.7856,101.388 79.4523,102.888 78.5,104.5C 74.7245,105.887 71.0578,107.554 67.5,109.5C 66.5,109.5 65.5,109.5 64.5,109.5C 64.8039,108.85 65.1373,108.183 65.5,107.5C 64.8074,105.258 63.8074,102.925 62.5,100.5C 61.3112,99.5713 59.9778,99.238 58.5,99.5 Z"/></g>
<g><path style="opacity:1" fill="#f4dc57" d="M 105.5,97.5 C 112.767,98.8219 120.101,99.4886 127.5,99.5C 127.5,99.8333 127.5,100.167 127.5,100.5C 124.532,100.626 122.532,102.126 121.5,105C 123.373,105.953 123.706,107.12 122.5,108.5C 120.999,107.248 119.332,106.248 117.5,105.5C 113.205,103.192 109.205,100.526 105.5,97.5 Z"/></g>
<g><path style="opacity:1" fill="#e3b215" d="M 58.5,99.5 C 59.9778,99.238 61.3112,99.5713 62.5,100.5C 63.8074,102.925 64.8074,105.258 65.5,107.5C 65.1373,108.183 64.8039,108.85 64.5,109.5C 52.2274,114.543 39.7274,119.21 27,123.5C 26.6667,116.167 26.3333,108.833 26,101.5C 25.829,109.344 25.329,117.011 24.5,124.5C 24.5,116.5 24.5,108.5 24.5,100.5C 35.8205,99.8194 47.1538,99.4861 58.5,99.5 Z"/></g>
<g><path style="opacity:1" fill="#f3d73d" d="M 127.5,100.5 C 130.833,100.5 134.167,100.5 137.5,100.5C 140.428,100.565 143.095,101.232 145.5,102.5C 142.475,102.123 139.475,101.956 136.5,102C 137.634,103.016 137.301,103.683 135.5,104C 137.878,104.974 137.544,105.641 134.5,106C 136.878,106.974 136.544,107.641 133.5,108C 135.878,108.974 135.544,109.641 132.5,110C 135.167,110.667 135.167,111.333 132.5,112C 133.598,112.77 133.598,113.603 132.5,114.5C 129.167,112.5 125.833,110.5 122.5,108.5C 123.706,107.12 123.373,105.953 121.5,105C 122.532,102.126 124.532,100.626 127.5,100.5 Z"/></g>
<g><path style="opacity:1" fill="#f4d427" d="M 145.5,102.5 C 147.167,102.5 148.833,102.5 150.5,102.5C 156.436,103.566 156.769,105.399 151.5,108C 150.939,109.566 151.606,110.899 153.5,112C 152.167,113.333 150.833,114.667 149.5,116C 149.5,117 149.5,118 149.5,119C 147.741,119.98 146.074,120.647 144.5,121C 145.381,121.708 146.047,122.542 146.5,123.5C 142.827,122 139.494,120 136.5,117.5C 135.564,116.026 134.23,115.026 132.5,114.5C 133.598,113.603 133.598,112.77 132.5,112C 135.167,111.333 135.167,110.667 132.5,110C 135.544,109.641 135.878,108.974 133.5,108C 136.544,107.641 136.878,106.974 134.5,106C 137.544,105.641 137.878,104.974 135.5,104C 137.301,103.683 137.634,103.016 136.5,102C 139.475,101.956 142.475,102.123 145.5,102.5 Z"/></g>
<g><path style="opacity:1" fill="#f4d016" d="M 150.5,102.5 C 155.847,103.073 161.18,103.74 166.5,104.5C 166.082,105.222 165.416,105.722 164.5,106C 165.097,107.628 164.763,109.295 163.5,111C 164.458,112.147 164.125,113.147 162.5,114C 162.833,114.333 163.167,114.667 163.5,115C 161.048,119.621 158.381,124.121 155.5,128.5C 152.331,127.083 149.331,125.417 146.5,123.5C 146.047,122.542 145.381,121.708 144.5,121C 146.074,120.647 147.741,119.98 149.5,119C 149.5,118 149.5,117 149.5,116C 150.833,114.667 152.167,113.333 153.5,112C 151.606,110.899 150.939,109.566 151.5,108C 156.769,105.399 156.436,103.566 150.5,102.5 Z"/></g>
<g><path style="opacity:0.991" fill="#f3ce11" d="M 166.5,104.5 C 168.833,104.5 171.167,104.5 173.5,104.5C 173.833,104.5 174.167,104.5 174.5,104.5C 174.5,115.833 174.5,127.167 174.5,138.5C 174.5,138.833 174.5,139.167 174.5,139.5C 174.167,139.5 173.833,139.5 173.5,139.5C 167.5,135.833 161.5,132.167 155.5,128.5C 158.381,124.121 161.048,119.621 163.5,115C 163.167,114.667 162.833,114.333 162.5,114C 164.125,113.147 164.458,112.147 163.5,111C 164.763,109.295 165.097,107.628 164.5,106C 165.416,105.722 166.082,105.222 166.5,104.5 Z"/></g>
<g><path style="opacity:1" fill="#e0c053" d="M 99.5,97.5 C 99.2756,101.179 98.9422,104.846 98.5,108.5C 98.1667,111.167 97.8333,113.833 97.5,116.5C 96.1529,115.829 94.9862,115.829 94,116.5C 93.2917,115.619 92.4584,114.953 91.5,114.5C 93.4826,109.864 95.4826,105.197 97.5,100.5C 97.9321,99.2905 98.5987,98.2905 99.5,97.5 Z"/></g>
<g><path style="opacity:1" fill="#f1cd3e" d="M 84.5,105.5 C 84.5,105.833 84.5,106.167 84.5,106.5C 80.6654,108.25 76.9988,110.25 73.5,112.5C 71.5168,113.471 69.5168,114.471 67.5,115.5C 67.9298,113.38 67.9298,111.38 67.5,109.5C 71.0578,107.554 74.7245,105.887 78.5,104.5C 80.0861,103.587 81.5861,103.587 83,104.5C 84.0875,102.068 84.5875,102.402 84.5,105.5 Z"/></g>
<g><path style="opacity:1" fill="#f4e782" d="M 117.5,105.5 C 119.332,106.248 120.999,107.248 122.5,108.5C 125.833,110.5 129.167,112.5 132.5,114.5C 134.23,115.026 135.564,116.026 136.5,117.5C 134.046,116.773 131.713,115.773 129.5,114.5C 125.167,111.833 120.833,109.167 116.5,106.5C 117.167,106.5 117.5,106.167 117.5,105.5 Z"/></g>
<g><path style="opacity:1" fill="#bd9659" d="M 84.5,106.5 C 85.6049,107.6 86.9382,108.267 88.5,108.5C 85.5,112.167 82.1667,115.5 78.5,118.5C 77.2505,117.222 75.7505,116.222 74,115.5C 73.5172,114.552 73.3505,113.552 73.5,112.5C 76.9988,110.25 80.6654,108.25 84.5,106.5 Z"/></g>
<g><path style="opacity:1" fill="#fce24f" d="M 99.5,97.5 C 99.8333,97.5 100.167,97.5 100.5,97.5C 105.833,100.5 111.167,103.5 116.5,106.5C 120.833,109.167 125.167,111.833 129.5,114.5C 128.732,115.263 128.232,116.263 128,117.5C 127.23,116.402 126.397,116.402 125.5,117.5C 119.607,113.298 113.774,108.964 108,104.5C 107.362,105.609 106.862,106.775 106.5,108C 108.299,111.099 109.966,114.265 111.5,117.5C 110.778,117.918 110.278,118.584 110,119.5C 109.333,116.833 108.667,116.833 108,119.5C 107.333,116.833 106.667,116.833 106,119.5C 105.026,117.122 104.359,117.456 104,120.5C 103.722,119.584 103.222,118.918 102.5,118.5C 101.839,115.213 101.339,111.88 101,108.5C 100.506,110.134 100.34,111.801 100.5,113.5C 99.8333,111.833 99.1667,110.167 98.5,108.5C 98.9422,104.846 99.2756,101.179 99.5,97.5 Z"/></g>
<g><path style="opacity:1" fill="#d4af4d" d="M 97.5,100.5 C 95.4826,105.197 93.4826,109.864 91.5,114.5C 89.2651,117.291 87.2651,120.291 85.5,123.5C 84.7784,123.082 84.2784,122.416 84,121.5C 83.6667,122.5 83.3333,123.5 83,124.5C 82,122.833 81,121.167 80,119.5C 79.6582,121.619 78.8249,121.953 77.5,120.5C 77.8333,119.833 78.1667,119.167 78.5,118.5C 82.1667,115.5 85.5,112.167 88.5,108.5C 91.5,105.833 94.5,103.167 97.5,100.5 Z"/></g>
<g><path style="opacity:1" fill="#b48a47" d="M 73.5,112.5 C 73.3505,113.552 73.5172,114.552 74,115.5C 75.7505,116.222 77.2505,117.222 78.5,118.5C 78.1667,119.167 77.8333,119.833 77.5,120.5C 74.1667,123.5 70.8333,126.5 67.5,129.5C 67.4207,128.042 66.9207,126.708 66,125.5C 65.6667,126.167 65.3333,126.833 65,127.5C 64.6667,125.833 64.3333,124.167 64,122.5C 63.6667,123.5 63.3333,124.5 63,125.5C 62.7265,123.671 61.8932,122.171 60.5,121C 61.056,120.617 61.3893,120.117 61.5,119.5C 63.4632,118.18 65.4632,116.846 67.5,115.5C 69.5168,114.471 71.5168,113.471 73.5,112.5 Z"/></g>
<g><path style="opacity:1" fill="#feeb3c" d="M 125.5,117.5 C 126.306,118.728 127.306,119.728 128.5,120.5C 127.496,121.683 126.662,123.016 126,124.5C 125.026,122.122 124.359,122.456 124,125.5C 123.667,124.833 123.333,124.167 123,123.5C 122.004,125.66 120.504,127.327 118.5,128.5C 118.167,128.5 117.833,128.5 117.5,128.5C 115.766,124.7 113.766,121.034 111.5,117.5C 109.966,114.265 108.299,111.099 106.5,108C 106.862,106.775 107.362,105.609 108,104.5C 113.774,108.964 119.607,113.298 125.5,117.5 Z"/></g>
<g><path style="opacity:1" fill="#eec112" d="M 64.5,109.5 C 65.5,109.5 66.5,109.5 67.5,109.5C 67.9298,111.38 67.9298,113.38 67.5,115.5C 65.4632,116.846 63.4632,118.18 61.5,119.5C 49.3291,126.753 36.9957,133.753 24.5,140.5C 24.5,135.167 24.5,129.833 24.5,124.5C 25.329,117.011 25.829,109.344 26,101.5C 26.3333,108.833 26.6667,116.167 27,123.5C 39.7274,119.21 52.2274,114.543 64.5,109.5 Z"/></g>
<g><path style="opacity:1" fill="#f4d23b" d="M 98.5,108.5 C 99.1667,110.167 99.8333,111.833 100.5,113.5C 100.5,119.833 100.5,126.167 100.5,132.5C 98.8007,132.473 97.4674,131.806 96.5,130.5C 96.5401,125.807 96.8734,121.141 97.5,116.5C 97.8333,113.833 98.1667,111.167 98.5,108.5 Z"/></g>
<g><path style="opacity:1" fill="#fdde35" d="M 111.5,117.5 C 113.766,121.034 115.766,124.7 117.5,128.5C 116.542,128.953 115.708,129.619 115,130.5C 113.602,129.949 112.268,129.616 111,129.5C 110.333,132.167 109.667,132.167 109,129.5C 108,130.5 107,131.5 106,132.5C 105.658,130.381 104.825,130.047 103.5,131.5C 102.708,127.084 102.375,122.751 102.5,118.5C 103.222,118.918 103.722,119.584 104,120.5C 104.359,117.456 105.026,117.122 106,119.5C 106.667,116.833 107.333,116.833 108,119.5C 108.667,116.833 109.333,116.833 110,119.5C 110.278,118.584 110.778,117.918 111.5,117.5 Z"/></g>
<g><path style="opacity:1" fill="#dab434" d="M 91.5,114.5 C 92.4584,114.953 93.2917,115.619 94,116.5C 94.9862,115.829 96.1529,115.829 97.5,116.5C 96.8734,121.141 96.5401,125.807 96.5,130.5C 96.3713,132.216 96.038,133.883 95.5,135.5C 93.9139,134.587 92.4139,134.587 91,135.5C 90.3333,132.833 89.6667,132.833 89,135.5C 88.6827,133.699 88.016,133.366 87,134.5C 86.3109,133.643 85.4776,132.977 84.5,132.5C 83.4728,133.791 82.4728,133.791 81.5,132.5C 82.0659,129.127 83.3993,126.127 85.5,123.5C 87.2651,120.291 89.2651,117.291 91.5,114.5 Z"/></g>
<g><path style="opacity:1" fill="#aa7a2d" d="M 61.5,119.5 C 61.3893,120.117 61.056,120.617 60.5,121C 61.8932,122.171 62.7265,123.671 63,125.5C 63.3333,124.5 63.6667,123.5 64,122.5C 64.3333,124.167 64.6667,125.833 65,127.5C 65.3333,126.833 65.6667,126.167 66,125.5C 66.9207,126.708 67.4207,128.042 67.5,129.5C 64.5,132.833 61.5,136.167 58.5,139.5C 54.5644,143.938 50.3978,148.271 46,152.5C 45.6174,151.944 45.1174,151.611 44.5,151.5C 41.8333,150.5 39.1667,149.5 36.5,148.5C 36.1583,147.662 35.4916,147.328 34.5,147.5C 34.0269,146.094 33.0269,145.427 31.5,145.5C 31.1583,144.662 30.4916,144.328 29.5,144.5C 29.5,143.833 29.1667,143.5 28.5,143.5C 28.1667,143.5 27.8333,143.5 27.5,143.5C 27.5,142.167 26.8333,141.5 25.5,141.5C 24.8333,141.5 24.5,141.167 24.5,140.5C 36.9957,133.753 49.3291,126.753 61.5,119.5 Z"/></g>
<g><path style="opacity:1" fill="#f7d814" d="M 129.5,114.5 C 131.713,115.773 134.046,116.773 136.5,117.5C 139.494,120 142.827,122 146.5,123.5C 149.331,125.417 152.331,127.083 155.5,128.5C 161.5,132.167 167.5,135.833 173.5,139.5C 172.833,140.167 172.167,140.833 171.5,141.5C 170.508,141.328 169.842,141.662 169.5,142.5C 168.833,142.5 168.5,142.833 168.5,143.5C 165.833,143.833 165.833,144.167 168.5,144.5C 166.819,146.008 164.819,147.008 162.5,147.5C 162.167,146.167 161.833,146.167 161.5,147.5C 160.833,147.5 160.167,147.5 159.5,147.5C 159.611,146.883 159.944,146.383 160.5,146C 156.008,143.002 151.675,139.835 147.5,136.5C 141.167,131.167 134.833,125.833 128.5,120.5C 127.306,119.728 126.306,118.728 125.5,117.5C 126.397,116.402 127.23,116.402 128,117.5C 128.232,116.263 128.732,115.263 129.5,114.5 Z"/></g>
<g><path style="opacity:1" fill="#fde618" d="M 128.5,120.5 C 134.833,125.833 141.167,131.167 147.5,136.5C 146.4,139.016 144.733,140.016 142.5,139.5C 138.386,143.221 133.719,145.888 128.5,147.5C 127.649,145.118 126.316,143.118 124.5,141.5C 122.249,137.328 120.249,132.995 118.5,128.5C 120.504,127.327 122.004,125.66 123,123.5C 123.333,124.167 123.667,124.833 124,125.5C 124.359,122.456 125.026,122.122 126,124.5C 126.662,123.016 127.496,121.683 128.5,120.5 Z"/></g>
<g><path style="opacity:1" fill="#c99c26" d="M 85.5,123.5 C 83.3993,126.127 82.0659,129.127 81.5,132.5C 78.331,136.833 75.6643,141.5 73.5,146.5C 72.8333,147.167 72.1667,147.833 71.5,148.5C 70.3157,147.312 70.3157,146.145 71.5,145C 70.2513,143.176 69.0847,143.343 68,145.5C 65.8003,143.385 63.8003,141.051 62,138.5C 61.6667,139.167 61.3333,139.833 61,140.5C 60.3292,139.748 59.4959,139.414 58.5,139.5C 61.5,136.167 64.5,132.833 67.5,129.5C 70.8333,126.5 74.1667,123.5 77.5,120.5C 78.8249,121.953 79.6582,121.619 80,119.5C 81,121.167 82,122.833 83,124.5C 83.3333,123.5 83.6667,122.5 84,121.5C 84.2784,122.416 84.7784,123.082 85.5,123.5 Z"/></g>
<g><path style="opacity:1" fill="#feda20" d="M 117.5,128.5 C 117.833,128.5 118.167,128.5 118.5,128.5C 120.249,132.995 122.249,137.328 124.5,141.5C 122.915,141.015 121.415,141.681 120,143.5C 118.984,142.366 118.317,142.699 118,144.5C 117.026,142.122 116.359,142.456 116,145.5C 115.641,142.456 114.974,142.122 114,144.5C 113.667,143.833 113.333,143.167 113,142.5C 112.333,143.833 111.667,145.167 111,146.5C 110.309,144.109 109.309,144.109 108,146.5C 107.329,145.748 106.496,145.414 105.5,145.5C 105.319,141.038 104.652,136.371 103.5,131.5C 104.825,130.047 105.658,130.381 106,132.5C 107,131.5 108,130.5 109,129.5C 109.667,132.167 110.333,132.167 111,129.5C 112.268,129.616 113.602,129.949 115,130.5C 115.708,129.619 116.542,128.953 117.5,128.5 Z"/></g>
<g><path style="opacity:1" fill="#fce30d" d="M 147.5,136.5 C 151.675,139.835 156.008,143.002 160.5,146C 159.944,146.383 159.611,146.883 159.5,147.5C 159.5,147.833 159.5,148.167 159.5,148.5C 158.508,148.328 157.842,148.662 157.5,149.5C 156.833,149.5 156.5,149.833 156.5,150.5C 155.508,150.328 154.842,150.662 154.5,151.5C 153.508,151.328 152.842,151.662 152.5,152.5C 151.833,152.5 151.5,152.833 151.5,153.5C 148.833,153.833 148.833,154.167 151.5,154.5C 149.819,156.008 147.819,157.008 145.5,157.5C 145.167,156.167 144.833,156.167 144.5,157.5C 143.508,157.328 142.842,157.662 142.5,158.5C 141.508,158.328 140.842,158.662 140.5,159.5C 139.833,159.5 139.5,159.833 139.5,160.5C 138.833,160.5 138.167,160.5 137.5,160.5C 136.761,160.631 136.094,160.464 135.5,160C 134.512,157.833 133.179,156 131.5,154.5C 130.773,152.046 129.773,149.713 128.5,147.5C 133.719,145.888 138.386,143.221 142.5,139.5C 144.733,140.016 146.4,139.016 147.5,136.5 Z"/></g>
<g><path style="opacity:1" fill="#d5a919" d="M 81.5,132.5 C 82.4728,133.791 83.4728,133.791 84.5,132.5C 85.4776,132.977 86.3109,133.643 87,134.5C 88.016,133.366 88.6827,133.699 89,135.5C 89.6667,132.833 90.3333,132.833 91,135.5C 92.4139,134.587 93.9139,134.587 95.5,135.5C 94.9154,141.843 94.2488,148.176 93.5,154.5C 92.7784,154.082 92.2784,153.416 92,152.5C 91.6667,153.167 91.3333,153.833 91,154.5C 90.3333,153.167 89.6667,151.833 89,150.5C 87.8403,152.797 86.8403,152.464 86,149.5C 85.3333,152.167 84.6667,152.167 84,149.5C 83.0255,151.878 82.3589,151.544 82,148.5C 81.6667,149.5 81.3333,150.5 81,151.5C 80.3333,150.167 79.6667,148.833 79,147.5C 77.1156,150.96 75.2823,150.626 73.5,146.5C 75.6643,141.5 78.331,136.833 81.5,132.5 Z"/></g>
<g><path style="opacity:0.008" fill="#d8c72f" d="M 171.5,142.5 C 171.5,142.167 171.5,141.833 171.5,141.5C 174.167,141.833 174.167,142.167 171.5,142.5 Z"/></g>
<g><path style="opacity:0.008" fill="#d8c72f" d="M 25.5,142.5 C 24.8333,143.167 24.8333,143.167 25.5,142.5 Z"/></g>
<g><path style="opacity:0.008" fill="#d4bb2c" d="M 25.5,142.5 C 25.5,142.167 25.5,141.833 25.5,141.5C 26.8333,141.5 27.5,142.167 27.5,143.5C 27.5,143.833 27.5,144.167 27.5,144.5C 26.8333,143.833 26.1667,143.167 25.5,142.5 Z"/></g>
<g><path style="opacity:0.008" fill="#d8c72f" d="M 169.5,143.5 C 169.5,143.167 169.5,142.833 169.5,142.5C 170.167,142.5 170.833,142.5 171.5,142.5C 171.158,143.338 170.492,143.672 169.5,143.5 Z"/></g>
<g><path style="opacity:0.008" fill="#d8c72f" d="M 28.5,143.5 C 29.1667,143.5 29.5,143.833 29.5,144.5C 29.5,144.833 29.5,145.167 29.5,145.5C 28.5084,145.672 27.8417,145.338 27.5,144.5C 28.1667,144.5 28.5,144.167 28.5,143.5 Z"/></g>
<g><path style="opacity:0.008" fill="#d8c72f" d="M 168.5,143.5 C 168.833,143.5 169.167,143.5 169.5,143.5C 169.315,144.17 168.981,144.17 168.5,143.5 Z"/></g>
<g><path style="opacity:0.008" fill="#d8c72f" d="M 29.5,145.5 C 30.1667,145.5 30.8333,145.5 31.5,145.5C 31.5,145.833 31.5,146.167 31.5,146.5C 30.5084,146.672 29.8417,146.338 29.5,145.5 Z"/></g>
<g><path style="opacity:1" fill="#c79816" d="M 71.5,148.5 C 70.2049,152.423 68.3716,156.09 66,159.5C 65.51,160.793 65.3433,162.127 65.5,163.5C 64.609,162.89 63.609,162.557 62.5,162.5C 61.4863,161.326 60.153,160.66 58.5,160.5C 57.0176,158.085 55.0176,157.418 52.5,158.5C 49.5386,157.817 49.2053,156.984 51.5,156C 50.255,155.209 48.9217,154.709 47.5,154.5C 45.8627,154.705 44.196,154.205 42.5,153C 43.4158,152.722 44.0825,152.222 44.5,151.5C 45.1174,151.611 45.6174,151.944 46,152.5C 50.3978,148.271 54.5644,143.938 58.5,139.5C 59.4959,139.414 60.3292,139.748 61,140.5C 61.3333,139.833 61.6667,139.167 62,138.5C 63.8003,141.051 65.8003,143.385 68,145.5C 69.0847,143.343 70.2513,143.176 71.5,145C 70.3157,146.145 70.3157,147.312 71.5,148.5 Z"/></g>
<g><path style="opacity:0.008" fill="#d8c72f" d="M 31.5,146.5 C 32.8333,147.167 32.8333,147.167 31.5,146.5 Z"/></g>
<g><path style="opacity:0.008" fill="#d8c72f" d="M 34.5,147.5 C 33.8333,148.167 33.8333,148.167 34.5,147.5 Z"/></g>
<g><path style="opacity:1" fill="#fed70e" d="M 124.5,141.5 C 126.316,143.118 127.649,145.118 128.5,147.5C 129.773,149.713 130.773,152.046 131.5,154.5C 123.661,158.128 115.661,160.461 107.5,161.5C 106.472,156.255 105.805,150.921 105.5,145.5C 106.496,145.414 107.329,145.748 108,146.5C 109.309,144.109 110.309,144.109 111,146.5C 111.667,145.167 112.333,143.833 113,142.5C 113.333,143.167 113.667,143.833 114,144.5C 114.974,142.122 115.641,142.456 116,145.5C 116.359,142.456 117.026,142.122 118,144.5C 118.317,142.699 118.984,142.366 120,143.5C 121.415,141.681 122.915,141.015 124.5,141.5 Z"/></g>
<g><path style="opacity:0.008" fill="#d8c72f" d="M 161.5,147.5 C 161.833,147.5 162.167,147.5 162.5,147.5C 162.315,148.17 161.981,148.17 161.5,147.5 Z"/></g>
<g><path style="opacity:0.008" fill="#d8c72f" d="M 36.5,148.5 C 35.8333,149.167 35.8333,149.167 36.5,148.5 Z"/></g>
<g><path style="opacity:0.008" fill="#d8c72f" d="M 159.5,149.5 C 159.5,149.167 159.5,148.833 159.5,148.5C 160.167,148.5 160.833,148.5 161.5,148.5C 161.158,149.338 160.492,149.672 159.5,149.5 Z"/></g>
<g><path style="opacity:0.008" fill="#d8c72f" d="M 157.5,150.5 C 157.5,150.167 157.5,149.833 157.5,149.5C 158.167,149.5 158.833,149.5 159.5,149.5C 159.158,150.338 158.492,150.672 157.5,150.5 Z"/></g>
<g><path style="opacity:0.008" fill="#d8c72f" d="M 156.5,150.5 C 156.833,150.5 157.167,150.5 157.5,150.5C 157.315,151.17 156.981,151.17 156.5,150.5 Z"/></g>
<g><path style="opacity:1" fill="#fee916" d="M 102.5,118.5 C 102.375,122.751 102.708,127.084 103.5,131.5C 104.652,136.371 105.319,141.038 105.5,145.5C 105.805,150.921 106.472,156.255 107.5,161.5C 108.098,166.813 108.431,172.146 108.5,177.5C 108.5,177.833 108.5,178.167 108.5,178.5C 107.508,178.328 106.842,178.662 106.5,179.5C 105.833,179.5 105.5,179.833 105.5,180.5C 104.508,180.328 103.842,180.662 103.5,181.5C 102.833,181.5 102.167,181.5 101.5,181.5C 100.504,165.342 100.17,149.009 100.5,132.5C 100.5,126.167 100.5,119.833 100.5,113.5C 100.34,111.801 100.506,110.134 101,108.5C 101.339,111.88 101.839,115.213 102.5,118.5 Z"/></g>
<g><path style="opacity:0.008" fill="#d8c72f" d="M 154.5,152.5 C 154.5,152.167 154.5,151.833 154.5,151.5C 155.167,151.5 155.833,151.5 156.5,151.5C 156.158,152.338 155.492,152.672 154.5,152.5 Z"/></g>
<g><path style="opacity:0.008" fill="#d8c72f" d="M 152.5,153.5 C 152.5,153.167 152.5,152.833 152.5,152.5C 153.167,152.5 153.833,152.5 154.5,152.5C 154.158,153.338 153.492,153.672 152.5,153.5 Z"/></g>
<g><path style="opacity:0.008" fill="#d8c72f" d="M 151.5,153.5 C 151.833,153.5 152.167,153.5 152.5,153.5C 152.315,154.17 151.981,154.17 151.5,153.5 Z"/></g>
<g><path style="opacity:0.008" fill="#d8c72f" d="M 47.5,154.5 C 46.8333,155.167 46.8333,155.167 47.5,154.5 Z"/></g>
<g><path style="opacity:1" fill="#d4a60e" d="M 73.5,146.5 C 75.2823,150.626 77.1156,150.96 79,147.5C 79.6667,148.833 80.3333,150.167 81,151.5C 81.3333,150.5 81.6667,149.5 82,148.5C 82.3589,151.544 83.0255,151.878 84,149.5C 84.6667,152.167 85.3333,152.167 86,149.5C 86.8403,152.464 87.8403,152.797 89,150.5C 89.6667,151.833 90.3333,153.167 91,154.5C 91.3333,153.833 91.6667,153.167 92,152.5C 92.2784,153.416 92.7784,154.082 93.5,154.5C 93.0966,161.765 92.0966,169.098 90.5,176.5C 89.1667,176.833 89.1667,177.167 90.5,177.5C 90.5,177.833 90.5,178.167 90.5,178.5C 89.0783,178.291 87.745,177.791 86.5,177C 87.1667,176.667 87.8333,176.333 88.5,176C 86.5932,174.878 84.5932,174.045 82.5,173.5C 81.0176,171.085 79.0176,170.418 76.5,171.5C 75.5,171 74.5,170.5 73.5,170C 74.4119,168.375 73.7453,167.541 71.5,167.5C 70.5384,165.014 69.7051,165.014 69,167.5C 68.0053,166.934 67.172,166.267 66.5,165.5C 69.1667,165.167 69.1667,164.833 66.5,164.5C 66.5,163.833 66.1667,163.5 65.5,163.5C 65.3433,162.127 65.51,160.793 66,159.5C 68.3716,156.09 70.2049,152.423 71.5,148.5C 72.1667,147.833 72.8333,147.167 73.5,146.5 Z"/></g>
<g><path style="opacity:1" fill="#fcd50d" d="M 131.5,154.5 C 133.179,156 134.512,157.833 135.5,160C 136.094,160.464 136.761,160.631 137.5,160.5C 137.5,160.833 137.5,161.167 137.5,161.5C 136.508,161.328 135.842,161.662 135.5,162.5C 134.833,162.5 134.5,162.833 134.5,163.5C 131.833,163.833 131.833,164.167 134.5,164.5C 133.486,165.674 132.153,166.34 130.5,166.5C 130.167,165.167 129.833,165.167 129.5,166.5C 128.508,166.328 127.842,166.662 127.5,167.5C 126.508,167.328 125.842,167.662 125.5,168.5C 124.508,168.328 123.842,168.662 123.5,169.5C 122.167,169.833 122.167,170.167 123.5,170.5C 123.027,171.906 122.027,172.573 120.5,172.5C 119.833,171.167 119.167,171.167 118.5,172.5C 117.833,172.5 117.5,172.833 117.5,173.5C 114.833,173.833 114.833,174.167 117.5,174.5C 116.486,175.674 115.153,176.34 113.5,176.5C 113.167,175.167 112.833,175.167 112.5,176.5C 111.508,176.328 110.842,176.662 110.5,177.5C 109.833,177.5 109.167,177.5 108.5,177.5C 108.431,172.146 108.098,166.813 107.5,161.5C 115.661,160.461 123.661,158.128 131.5,154.5 Z"/></g>
<g><path style="opacity:1" fill="#f2c810" d="M 96.5,130.5 C 97.4674,131.806 98.8007,132.473 100.5,132.5C 100.17,149.009 100.504,165.342 101.5,181.5C 101.5,181.833 101.5,182.167 101.5,182.5C 100.167,182.833 100.167,183.167 101.5,183.5C 100.279,184.465 98.9456,184.298 97.5,183C 98.1667,182.667 98.8333,182.333 99.5,182C 97.1136,180.807 94.7802,179.64 92.5,178.5C 92.1583,177.662 91.4916,177.328 90.5,177.5C 90.5,177.167 90.5,176.833 90.5,176.5C 92.0966,169.098 93.0966,161.765 93.5,154.5C 94.2488,148.176 94.9154,141.843 95.5,135.5C 96.038,133.883 96.3713,132.216 96.5,130.5 Z"/></g>
<g><path style="opacity:0.008" fill="#d8c72f" d="M 144.5,157.5 C 144.833,157.5 145.167,157.5 145.5,157.5C 145.315,158.17 144.981,158.17 144.5,157.5 Z"/></g>
<g><path style="opacity:0.008" fill="#d8c72f" d="M 142.5,159.5 C 142.5,159.167 142.5,158.833 142.5,158.5C 143.167,158.5 143.833,158.5 144.5,158.5C 144.158,159.338 143.492,159.672 142.5,159.5 Z"/></g>
<g><path style="opacity:0.008" fill="#d8c72f" d="M 140.5,160.5 C 140.5,160.167 140.5,159.833 140.5,159.5C 141.167,159.5 141.833,159.5 142.5,159.5C 142.158,160.338 141.492,160.672 140.5,160.5 Z"/></g>
<g><path style="opacity:0.008" fill="#d8c72f" d="M 58.5,160.5 C 57.8333,161.167 57.8333,161.167 58.5,160.5 Z"/></g>
<g><path style="opacity:0.008" fill="#d8c72f" d="M 139.5,160.5 C 139.833,160.5 140.167,160.5 140.5,160.5C 140.315,161.17 139.981,161.17 139.5,160.5 Z"/></g>
<g><path style="opacity:0.008" fill="#d8c72f" d="M 137.5,162.5 C 137.5,162.167 137.5,161.833 137.5,161.5C 138.167,161.5 138.833,161.5 139.5,161.5C 139.158,162.338 138.492,162.672 137.5,162.5 Z"/></g>
<g><path style="opacity:0.008" fill="#d8c72f" d="M 62.5,162.5 C 63.609,162.557 64.609,162.89 65.5,163.5C 66.1667,163.5 66.5,163.833 66.5,164.5C 66.5,164.833 66.5,165.167 66.5,165.5C 64.4068,164.955 62.4068,164.122 60.5,163C 61.0944,162.536 61.7611,162.369 62.5,162.5 Z"/></g>
<g><path style="opacity:0.008" fill="#d8c72f" d="M 135.5,163.5 C 135.5,163.167 135.5,162.833 135.5,162.5C 136.167,162.5 136.833,162.5 137.5,162.5C 137.158,163.338 136.492,163.672 135.5,163.5 Z"/></g>
<g><path style="opacity:0.008" fill="#d8c72f" d="M 134.5,163.5 C 134.833,163.5 135.167,163.5 135.5,163.5C 135.315,164.17 134.981,164.17 134.5,163.5 Z"/></g>
<g><path style="opacity:0.008" fill="#d8c72f" d="M 129.5,166.5 C 129.833,166.5 130.167,166.5 130.5,166.5C 130.315,167.17 129.981,167.17 129.5,166.5 Z"/></g>
<g><path style="opacity:0.008" fill="#d8c72f" d="M 71.5,167.5 C 70.8333,168.167 70.8333,168.167 71.5,167.5 Z"/></g>
<g><path style="opacity:0.008" fill="#d8c72f" d="M 127.5,167.5 C 128.833,168.167 128.833,168.167 127.5,167.5 Z"/></g>
<g><path style="opacity:0.008" fill="#d8c72f" d="M 125.5,169.5 C 125.5,169.167 125.5,168.833 125.5,168.5C 126.167,168.5 126.833,168.5 127.5,168.5C 127.158,169.338 126.492,169.672 125.5,169.5 Z"/></g>
<g><path style="opacity:0.008" fill="#d8c72f" d="M 123.5,170.5 C 123.5,170.167 123.5,169.833 123.5,169.5C 124.167,169.5 124.833,169.5 125.5,169.5C 125.158,170.338 124.492,170.672 123.5,170.5 Z"/></g>
<g><path style="opacity:0.008" fill="#d8c72f" d="M 118.5,173.5 C 118.5,173.167 118.5,172.833 118.5,172.5C 119.167,172.5 119.833,172.5 120.5,172.5C 120.158,173.338 119.492,173.672 118.5,173.5 Z"/></g>
<g><path style="opacity:0.008" fill="#d8c72f" d="M 82.5,173.5 C 81.8333,174.167 81.8333,174.167 82.5,173.5 Z"/></g>
<g><path style="opacity:0.008" fill="#d8c72f" d="M 117.5,173.5 C 117.833,173.5 118.167,173.5 118.5,173.5C 118.315,174.17 117.981,174.17 117.5,173.5 Z"/></g>
<g><path style="opacity:0.008" fill="#d8c72f" d="M 112.5,176.5 C 112.833,176.5 113.167,176.5 113.5,176.5C 113.315,177.17 112.981,177.17 112.5,176.5 Z"/></g>
<g><path style="opacity:0.008" fill="#d8c72f" d="M 110.5,177.5 C 111.833,178.167 111.833,178.167 110.5,177.5 Z"/></g>
<g><path style="opacity:0.008" fill="#d8c72f" d="M 90.5,178.5 C 91.1667,178.5 91.8333,178.5 92.5,178.5C 92.5,178.833 92.5,179.167 92.5,179.5C 91.5084,179.672 90.8417,179.338 90.5,178.5 Z"/></g>
<g><path style="opacity:0.008" fill="#d8c72f" d="M 108.5,179.5 C 108.5,179.167 108.5,178.833 108.5,178.5C 109.167,178.5 109.833,178.5 110.5,178.5C 110.158,179.338 109.492,179.672 108.5,179.5 Z"/></g>
<g><path style="opacity:0.008" fill="#d8c72f" d="M 92.5,179.5 C 93.8333,180.167 93.8333,180.167 92.5,179.5 Z"/></g>
<g><path style="opacity:0.008" fill="#d8c72f" d="M 106.5,180.5 C 106.5,180.167 106.5,179.833 106.5,179.5C 107.167,179.5 107.833,179.5 108.5,179.5C 108.158,180.338 107.492,180.672 106.5,180.5 Z"/></g>
<g><path style="opacity:0.008" fill="#d8c72f" d="M 105.5,180.5 C 105.833,180.5 106.167,180.5 106.5,180.5C 106.315,181.17 105.981,181.17 105.5,180.5 Z"/></g>
<g><path style="opacity:0.008" fill="#d8c72f" d="M 103.5,182.5 C 103.5,182.167 103.5,181.833 103.5,181.5C 104.167,181.5 104.833,181.5 105.5,181.5C 105.158,182.338 104.492,182.672 103.5,182.5 Z"/></g>
<g><path style="opacity:0.008" fill="#d8c72f" d="M 101.5,183.5 C 101.5,183.167 101.5,182.833 101.5,182.5C 102.167,182.5 102.833,182.5 103.5,182.5C 103.158,183.338 102.492,183.672 101.5,183.5 Z"/></g>
</svg>
