<?xml version="1.0" encoding="UTF-8"?>
<!DOCTYPE svg PUBLIC "-//W3C//DTD SVG 1.1//EN" "http://www.w3.org/Graphics/SVG/1.1/DTD/svg11.dtd">
<svg xmlns="http://www.w3.org/2000/svg" version="1.1" width="200px" height="200px" style="shape-rendering:geometricPrecision; text-rendering:geometricPrecision; image-rendering:optimizeQuality; fill-rule:evenodd; clip-rule:evenodd" xmlns:xlink="http://www.w3.org/1999/xlink">
<g><path style="opacity:1" fill="#93d1ce" d="M 102.5,13.5 C 102.5,28.5 102.5,43.5 102.5,58.5C 102.062,66.9433 102.562,75.2767 104,83.5C 104.667,78.1667 105.333,78.1667 106,83.5C 106.333,82.8333 106.667,82.1667 107,81.5C 107.29,83.0441 107.956,84.3774 109,85.5C 109.691,83.1088 110.691,83.1088 112,85.5C 112.667,84.8333 113.333,84.1667 114,83.5C 115.805,84.4101 117.638,85.4101 119.5,86.5C 120.086,86.2907 120.586,85.9574 121,85.5C 121.971,87.9612 123.471,89.9612 125.5,91.5C 123.833,92.5 122.5,93.8333 121.5,95.5C 120.524,94.1851 119.524,92.8518 118.5,91.5C 115.272,90.057 112.272,88.3904 109.5,86.5C 106.398,86.4966 106.065,86.9966 108.5,88C 106.865,88.5396 105.532,88.0396 104.5,86.5C 103.548,88.0453 103.215,89.712 103.5,91.5C 103.089,96.3384 102.422,101.005 101.5,105.5C 101.667,74.4982 101.5,43.4982 101,12.5C 100.617,13.056 100.117,13.3893 99.5,13.5C 98.3424,12.0502 98.8424,11.0502 101,10.5C 102.039,11.2438 102.539,12.2438 102.5,13.5 Z"/></g>
<g><path style="opacity:1" fill="#40a4a1" d="M 105.5,18.5 C 106.397,19.5981 107.23,19.5981 108,18.5C 108.635,19.9663 109.469,21.2997 110.5,22.5C 110.376,23.1067 110.043,23.44 109.5,23.5C 109.167,22.1667 108.833,22.1667 108.5,23.5C 108.286,25.1439 108.62,26.6439 109.5,28C 107.772,34.3419 107.105,40.8419 107.5,47.5C 106.833,47.5 106.5,47.8333 106.5,48.5C 105.71,47.3915 105.21,46.0581 105,44.5C 104.176,35.6567 104.343,26.9901 105.5,18.5 Z"/></g>
<g><path style="opacity:1" fill="#55afae" d="M 104.5,15.5 C 105.11,16.391 105.443,17.391 105.5,18.5C 104.343,26.9901 104.176,35.6567 105,44.5C 105.21,46.0581 105.71,47.3915 106.5,48.5C 106.837,52.3076 106.337,55.9743 105,59.5C 103.356,44.6899 103.189,30.0232 104.5,15.5 Z"/></g>
<g><path style="opacity:1" fill="#92c9ca" d="M 98.5,15.5 C 98.5,18.1667 98.5,20.8333 98.5,23.5C 97.8977,31.0648 97.0644,38.7314 96,46.5C 95.3086,44.1088 94.3086,44.1088 93,46.5C 92.0255,44.1224 91.3589,44.4557 91,47.5C 90.3333,44.8333 89.6667,44.8333 89,47.5C 88.6667,46.8333 88.3333,46.1667 88,45.5C 87.2924,48.2676 85.7924,49.1009 83.5,48C 83.8333,48.3333 84.1667,48.6667 84.5,49C 83.0337,49.6355 81.7003,50.4688 80.5,51.5C 79.5832,50.8728 78.5832,50.5394 77.5,50.5C 78.1888,49.2928 78.3554,47.9594 78,46.5C 79.1313,47.6039 79.9646,47.2705 80.5,45.5C 79.6744,44.549 79.5078,43.549 80,42.5C 80.9147,41.6721 81.5814,40.6721 82,39.5C 82.6667,40.8333 83.3333,40.8333 84,39.5C 85.6458,37.9452 85.9791,36.2785 85,34.5C 86.1313,35.6039 86.9646,35.2705 87.5,33.5C 86.6744,32.549 86.5078,31.549 87,30.5C 87.9147,29.6721 88.5814,28.6721 89,27.5C 89.6667,28.8333 90.3333,28.8333 91,27.5C 92.6458,25.9452 92.9791,24.2785 92,22.5C 92.3333,22.8333 92.6667,23.1667 93,23.5C 95.2567,21.043 96.2567,18.3764 96,15.5C 96.7697,16.5981 97.603,16.5981 98.5,15.5 Z"/></g>
<g><path style="opacity:1" fill="#57afb0" d="M 108.5,23.5 C 108.833,23.5 109.167,23.5 109.5,23.5C 109.541,25.7453 110.375,26.4119 112,25.5C 111.021,27.2785 111.354,28.9452 113,30.5C 113.667,31.8333 114.333,31.8333 115,30.5C 115.419,31.6721 116.085,32.6721 117,33.5C 117.492,34.549 117.326,35.549 116.5,36.5C 117.035,38.2705 117.869,38.6039 119,37.5C 118.021,39.2785 118.354,40.9452 120,42.5C 120.667,43.8333 121.333,43.8333 122,42.5C 122.419,43.6721 123.085,44.6721 124,45.5C 124.692,46.4368 124.525,47.1034 123.5,47.5C 123.5,46.8333 123.167,46.5 122.5,46.5C 121.768,47.8083 120.934,49.1416 120,50.5C 119.333,49.1667 118.667,49.1667 118,50.5C 116.768,47.2452 114.768,46.9119 112,49.5C 111.085,48.6721 110.419,47.6721 110,46.5C 109.667,47.5 109.333,48.5 109,49.5C 108.722,48.5842 108.222,47.9175 107.5,47.5C 107.105,40.8419 107.772,34.3419 109.5,28C 108.62,26.6439 108.286,25.1439 108.5,23.5 Z"/></g>
<g><path style="opacity:1" fill="#a0d0d1" d="M 98.5,23.5 C 98.5,32.8333 98.5,42.1667 98.5,51.5C 97.6618,51.8417 97.3284,52.5084 97.5,53.5C 94.9556,53.1043 92.7889,53.771 91,55.5C 90,55.1667 89,54.8333 88,54.5C 86.382,54.8887 85.2153,56.222 84.5,58.5C 81.77,59.0102 79.6034,60.3436 78,62.5C 77.6667,62.1667 77.3333,61.8333 77,61.5C 75.8231,63.1757 74.3231,64.5091 72.5,65.5C 74.967,67.7901 74.967,69.9567 72.5,72C 72.8333,72.3333 73.1667,72.6667 73.5,73C 71.641,73.6839 69.9743,74.6839 68.5,76C 69.6537,76.9138 69.487,77.7471 68,78.5C 67.6667,78.1667 67.3333,77.8333 67,77.5C 65.6584,80.6688 63.4918,81.3354 60.5,79.5C 59.8333,79.5 59.5,79.8333 59.5,80.5C 58.9569,80.44 58.6236,80.1067 58.5,79.5C 59.5312,78.2997 60.3645,76.9663 61,75.5C 61.3333,75.8333 61.6667,76.1667 62,76.5C 63.9414,74.6841 64.6081,72.6841 64,70.5C 65.1313,71.6039 65.9646,71.2705 66.5,69.5C 65.6744,68.549 65.5078,67.549 66,66.5C 66.9147,65.6721 67.5814,64.6721 68,63.5C 68.6667,64.8333 69.3333,64.8333 70,63.5C 71.6458,61.9452 71.9791,60.2785 71,58.5C 71.6667,59.8333 72.3333,59.8333 73,58.5C 73,57.1667 73,55.8333 73,54.5C 74.1146,52.215 75.6146,50.8816 77.5,50.5C 78.5832,50.5394 79.5832,50.8728 80.5,51.5C 81.7003,50.4688 83.0337,49.6355 84.5,49C 84.1667,48.6667 83.8333,48.3333 83.5,48C 85.7924,49.1009 87.2924,48.2676 88,45.5C 88.3333,46.1667 88.6667,46.8333 89,47.5C 89.6667,44.8333 90.3333,44.8333 91,47.5C 91.3589,44.4557 92.0255,44.1224 93,46.5C 94.3086,44.1088 95.3086,44.1088 96,46.5C 97.0644,38.7314 97.8977,31.0648 98.5,23.5 Z"/></g>
<g><path style="opacity:1" fill="#e5f3f4" d="M 101.5,105.5 C 101.763,109.6 101.43,113.6 100.5,117.5C 93.8333,120.833 87.1667,124.167 80.5,127.5C 79.2267,126.923 79.2267,126.257 80.5,125.5C 85.888,123.061 90.2213,120.061 93.5,116.5C 94.5,116.5 95.5,116.5 96.5,116.5C 97.552,116.649 98.552,116.483 99.5,116C 99.0241,111.201 98.3574,106.201 97.5,101C 97.7942,94.4144 98.4608,87.0811 99.5,79C 99.4779,57.375 99.4779,35.5417 99.5,13.5C 100.117,13.3893 100.617,13.056 101,12.5C 101.5,43.4982 101.667,74.4982 101.5,105.5 Z"/></g>
<g><path style="opacity:1" fill="#6bbbbc" d="M 102.5,13.5 C 103.397,14.5981 104.23,14.5981 105,13.5C 105.692,14.4368 105.525,15.1034 104.5,15.5C 103.189,30.0232 103.356,44.6899 105,59.5C 106.337,55.9743 106.837,52.3076 106.5,48.5C 106.5,47.8333 106.833,47.5 107.5,47.5C 108.222,47.9175 108.722,48.5842 109,49.5C 109.333,48.5 109.667,47.5 110,46.5C 110.419,47.6721 111.085,48.6721 112,49.5C 114.768,46.9119 116.768,47.2452 118,50.5C 118.667,49.1667 119.333,49.1667 120,50.5C 120.934,49.1416 121.768,47.8083 122.5,46.5C 123.167,46.5 123.5,46.8333 123.5,47.5C 123.541,49.7453 124.375,50.4119 126,49.5C 125.021,51.2785 125.354,52.9452 127,54.5C 127.667,55.8333 128.333,55.8333 129,54.5C 129.419,55.6721 130.085,56.6721 131,57.5C 131.492,58.549 131.326,59.549 130.5,60.5C 131.035,62.2705 131.869,62.6039 133,61.5C 132.229,63.18 132.395,64.8467 133.5,66.5C 128.887,66.0669 125.054,64.0669 122,60.5C 120.691,62.8912 119.691,62.8912 119,60.5C 117,60.5 115,60.5 113,60.5C 112.333,57.8333 111.667,57.8333 111,60.5C 110.333,59.1667 109.667,59.1667 109,60.5C 108.333,59.8333 107.667,59.1667 107,58.5C 106.047,61.4318 105.547,64.4318 105.5,67.5C 104.833,65.5 104.167,63.5 103.5,61.5C 103.737,60.209 103.404,59.209 102.5,58.5C 102.5,43.5 102.5,28.5 102.5,13.5 Z"/></g>
<g><path style="opacity:1" fill="#b8dbdd" d="M 98.5,51.5 C 98.5,55.5 98.5,59.5 98.5,63.5C 97.596,64.209 97.2627,65.209 97.5,66.5C 96.603,67.5981 95.7697,67.5981 95,66.5C 94.1475,68.1247 93.1475,68.4581 92,67.5C 88.603,70.7828 84.7697,73.4495 80.5,75.5C 78.722,80.4597 75.8887,84.793 72,88.5C 71.3333,87.8333 70.6667,87.1667 70,86.5C 67.6732,90.6535 65.8399,94.9868 64.5,99.5C 63.3734,98.8783 62.3734,98.045 61.5,97C 63.4562,92.2369 65.6229,88.0702 68,84.5C 68.7175,85.4506 69.5509,85.6172 70.5,85C 72.7166,81.5419 75.3832,78.5419 78.5,76C 77.9152,74.6976 77.2485,73.531 76.5,72.5C 77.0053,68.2202 79.1719,66.5535 83,67.5C 84.9993,66.1687 86.8326,64.3354 88.5,62C 94.709,62.271 97.709,59.4377 97.5,53.5C 97.3284,52.5084 97.6618,51.8417 98.5,51.5 Z"/></g>
<g><path style="opacity:1" fill="#78c2c2" d="M 133.5,66.5 C 134.397,67.5981 135.23,67.5981 136,66.5C 136.419,67.6721 137.085,68.6721 138,69.5C 137.474,71.2275 137.641,72.8941 138.5,74.5C 138.635,75.9806 138.301,77.6473 137.5,79.5C 136.833,79.8333 136.167,80.1667 135.5,80.5C 132.159,75.4192 127.159,71.5859 120.5,69C 115.971,68.3799 110.971,67.8799 105.5,67.5C 105.547,64.4318 106.047,61.4318 107,58.5C 107.667,59.1667 108.333,59.8333 109,60.5C 109.667,59.1667 110.333,59.1667 111,60.5C 111.667,57.8333 112.333,57.8333 113,60.5C 115,60.5 117,60.5 119,60.5C 119.691,62.8912 120.691,62.8912 122,60.5C 125.054,64.0669 128.887,66.0669 133.5,66.5 Z"/></g>
<g><path style="opacity:1" fill="#81c7c7" d="M 103.5,61.5 C 104.167,63.5 104.833,65.5 105.5,67.5C 110.971,67.8799 115.971,68.3799 120.5,69C 127.159,71.5859 132.159,75.4192 135.5,80.5C 134.5,82.1667 133.167,83.5 131.5,84.5C 128.723,83.3041 126.056,81.1374 123.5,78C 122.007,76.6319 120.507,76.4652 119,77.5C 118,76.5 117,75.5 116,74.5C 113.74,74.3267 111.407,74.3267 109,74.5C 107.057,72.2849 105.391,72.2849 104,74.5C 103.501,70.1794 103.334,65.8461 103.5,61.5 Z"/></g>
<g><path style="opacity:1" fill="#aad5d6" d="M 97.5,53.5 C 97.709,59.4377 94.709,62.271 88.5,62C 86.8326,64.3354 84.9993,66.1687 83,67.5C 79.1719,66.5535 77.0053,68.2202 76.5,72.5C 75.1965,74.2075 74.0298,75.8741 73,77.5C 72.6667,77.1667 72.3333,76.8333 72,76.5C 71.6667,77.5 71.3333,78.5 71,79.5C 70.6667,79.1667 70.3333,78.8333 70,78.5C 69.0195,81.3318 67.0195,82.9984 64,83.5C 61.419,87.9384 59.5857,92.2717 58.5,96.5C 56.0626,93.9898 55.3959,90.9898 56.5,87.5C 57.3629,86.0597 57.3629,84.7264 56.5,83.5C 56.8457,82.3044 57.3457,82.3044 58,83.5C 59.0386,82.7562 59.5386,81.7562 59.5,80.5C 60.1667,80.5 60.5,80.1667 60.5,79.5C 63.4918,81.3354 65.6584,80.6688 67,77.5C 67.3333,77.8333 67.6667,78.1667 68,78.5C 69.487,77.7471 69.6537,76.9138 68.5,76C 69.9743,74.6839 71.641,73.6839 73.5,73C 73.1667,72.6667 72.8333,72.3333 72.5,72C 74.967,69.9567 74.967,67.7901 72.5,65.5C 74.3231,64.5091 75.8231,63.1757 77,61.5C 77.3333,61.8333 77.6667,62.1667 78,62.5C 79.6034,60.3436 81.77,59.0102 84.5,58.5C 85.2153,56.222 86.382,54.8887 88,54.5C 89,54.8333 90,55.1667 91,55.5C 92.7889,53.771 94.9556,53.1043 97.5,53.5 Z"/></g>
<g><path style="opacity:1" fill="#afd6d8" d="M 76.5,72.5 C 77.2485,73.531 77.9152,74.6976 78.5,76C 75.3832,78.5419 72.7166,81.5419 70.5,85C 69.5509,85.6172 68.7175,85.4506 68,84.5C 65.6229,88.0702 63.4562,92.2369 61.5,97C 62.3734,98.045 63.3734,98.8783 64.5,99.5C 66.7513,100.695 69.0846,101.695 71.5,102.5C 72.1667,102.833 72.8333,103.167 73.5,103.5C 72.3931,106.636 72.3931,109.469 73.5,112C 70.6504,113.791 67.6504,114.958 64.5,115.5C 63.5,114.833 62.5,114.167 61.5,113.5C 60.1667,112.167 58.8333,110.833 57.5,109.5C 57.67,108.178 57.3366,107.011 56.5,106C 57.1667,105.667 57.8333,105.333 58.5,105C 58.2049,102.186 58.2049,99.3525 58.5,96.5C 59.5857,92.2717 61.419,87.9384 64,83.5C 67.0195,82.9984 69.0195,81.3318 70,78.5C 70.3333,78.8333 70.6667,79.1667 71,79.5C 71.3333,78.5 71.6667,77.5 72,76.5C 72.3333,76.8333 72.6667,77.1667 73,77.5C 74.0298,75.8741 75.1965,74.2075 76.5,72.5 Z"/></g>
<g><path style="opacity:1" fill="#8ccdcc" d="M 102.5,58.5 C 103.404,59.209 103.737,60.209 103.5,61.5C 103.334,65.8461 103.501,70.1794 104,74.5C 105.391,72.2849 107.057,72.2849 109,74.5C 111.407,74.3267 113.74,74.3267 116,74.5C 117,75.5 118,76.5 119,77.5C 120.507,76.4652 122.007,76.6319 123.5,78C 126.056,81.1374 128.723,83.3041 131.5,84.5C 130.833,85.5 130.167,86.5 129.5,87.5C 127.806,88.5274 126.473,89.8608 125.5,91.5C 123.471,89.9612 121.971,87.9612 121,85.5C 120.586,85.9574 120.086,86.2907 119.5,86.5C 117.638,85.4101 115.805,84.4101 114,83.5C 113.333,84.1667 112.667,84.8333 112,85.5C 110.691,83.1088 109.691,83.1088 109,85.5C 107.956,84.3774 107.29,83.0441 107,81.5C 106.667,82.1667 106.333,82.8333 106,83.5C 105.333,78.1667 104.667,78.1667 104,83.5C 102.562,75.2767 102.062,66.9433 102.5,58.5 Z"/></g>
<g><path style="opacity:1" fill="#d0e8e9" d="M 99.5,13.5 C 99.4779,35.5417 99.4779,57.375 99.5,79C 98.4608,87.0811 97.7942,94.4144 97.5,101C 98.3574,106.201 99.0241,111.201 99.5,116C 98.552,116.483 97.552,116.649 96.5,116.5C 96.5858,115.504 96.2524,114.671 95.5,114C 90.8435,112.294 86.5102,110.127 82.5,107.5C 83.9603,106.807 85.127,105.141 86,102.5C 89.9805,105.313 93.4805,108.647 96.5,112.5C 97.7115,110.159 97.3782,107.993 95.5,106C 95.8333,105.667 96.1667,105.333 96.5,105C 91.1873,100.141 87.5207,94.1413 85.5,87C 85.6107,85.2785 86.1107,85.1118 87,86.5C 87.3333,85.8333 87.6667,85.1667 88,84.5C 88.6667,85.8333 89.3333,85.8333 90,84.5C 91.4389,82.7254 92.4389,80.7254 93,78.5C 93.9745,80.8776 94.6411,80.5443 95,77.5C 95.3333,78.1667 95.6667,78.8333 96,79.5C 97.8047,74.3375 98.638,69.0042 98.5,63.5C 98.5,59.5 98.5,55.5 98.5,51.5C 98.5,42.1667 98.5,32.8333 98.5,23.5C 98.5,20.8333 98.5,18.1667 98.5,15.5C 98.3284,14.5084 98.6618,13.8417 99.5,13.5 Z"/></g>
<g><path style="opacity:1" fill="#bddee0" d="M 97.5,66.5 C 96.2148,70.0018 93.5481,71.8351 89.5,72C 90.2797,73.073 90.113,74.2396 89,75.5C 88.0255,73.1224 87.3589,73.4557 87,76.5C 86.6667,76.1667 86.3333,75.8333 86,75.5C 85.0094,76.9389 83.676,77.9389 82,78.5C 81.7697,81.8947 82.6031,85.0614 84.5,88C 83.2986,88.9025 82.4652,90.0692 82,91.5C 81.6667,90.8333 81.3333,90.1667 81,89.5C 80.7133,94.0228 79.0467,95.0228 76,92.5C 73.2656,93.3617 73.0989,94.195 75.5,95C 72.4557,95.3589 72.1224,96.0255 74.5,97C 72.6992,97.3173 72.3659,97.984 73.5,99C 72.695,100.113 72.0283,101.279 71.5,102.5C 69.0846,101.695 66.7513,100.695 64.5,99.5C 65.8399,94.9868 67.6732,90.6535 70,86.5C 70.6667,87.1667 71.3333,87.8333 72,88.5C 75.8887,84.793 78.722,80.4597 80.5,75.5C 84.7697,73.4495 88.603,70.7828 92,67.5C 93.1475,68.4581 94.1475,68.1247 95,66.5C 95.7697,67.5981 96.603,67.5981 97.5,66.5 Z"/></g>
<g><path style="opacity:1" fill="#6bc0c5" d="M 137.5,79.5 C 138.332,83.1768 140.332,86.0101 143.5,88C 142.185,89.3946 142.519,90.3946 144.5,91C 143.892,93.1841 144.559,95.1841 146.5,97C 145.639,99.3207 146.639,100.487 149.5,100.5C 148.167,101.167 146.833,101.833 145.5,102.5C 143.565,103.15 141.565,103.483 139.5,103.5C 137.515,103.141 136.849,102.308 137.5,101C 136.773,99.6012 136.273,98.1012 136,96.5C 135.5,95.3333 134.667,94.5 133.5,94C 134.167,93.6667 134.833,93.3333 135.5,93C 133.041,92.276 132.041,90.9427 132.5,89C 132,88.5 131.5,88 131,87.5C 130.31,88.7383 129.81,88.7383 129.5,87.5C 130.167,86.5 130.833,85.5 131.5,84.5C 133.167,83.5 134.5,82.1667 135.5,80.5C 136.167,80.1667 136.833,79.8333 137.5,79.5 Z"/></g>
<g><path style="opacity:1" fill="#97d3d1" d="M 121.5,95.5 C 116.194,101.473 110.527,107.14 104.5,112.5C 104.72,105.496 104.387,98.4961 103.5,91.5C 103.215,89.712 103.548,88.0453 104.5,86.5C 105.532,88.0396 106.865,88.5396 108.5,88C 106.065,86.9966 106.398,86.4966 109.5,86.5C 112.272,88.3904 115.272,90.057 118.5,91.5C 119.524,92.8518 120.524,94.1851 121.5,95.5 Z"/></g>
<g><path style="opacity:1" fill="#c8e4e5" d="M 98.5,63.5 C 98.638,69.0042 97.8047,74.3375 96,79.5C 95.6667,78.8333 95.3333,78.1667 95,77.5C 94.6411,80.5443 93.9745,80.8776 93,78.5C 92.4389,80.7254 91.4389,82.7254 90,84.5C 89.3333,85.8333 88.6667,85.8333 88,84.5C 87.6667,85.1667 87.3333,85.8333 87,86.5C 86.1107,85.1118 85.6107,85.2785 85.5,87C 87.5207,94.1413 91.1873,100.141 96.5,105C 96.1667,105.333 95.8333,105.667 95.5,106C 97.3782,107.993 97.7115,110.159 96.5,112.5C 93.4805,108.647 89.9805,105.313 86,102.5C 85.127,105.141 83.9603,106.807 82.5,107.5C 79.3777,106.439 76.3777,105.105 73.5,103.5C 72.8333,103.167 72.1667,102.833 71.5,102.5C 72.0283,101.279 72.695,100.113 73.5,99C 72.3659,97.984 72.6992,97.3173 74.5,97C 72.1224,96.0255 72.4557,95.3589 75.5,95C 73.0989,94.195 73.2656,93.3617 76,92.5C 79.0467,95.0228 80.7133,94.0228 81,89.5C 81.3333,90.1667 81.6667,90.8333 82,91.5C 82.4652,90.0692 83.2986,88.9025 84.5,88C 82.6031,85.0614 81.7697,81.8947 82,78.5C 83.676,77.9389 85.0094,76.9389 86,75.5C 86.3333,75.8333 86.6667,76.1667 87,76.5C 87.3589,73.4557 88.0255,73.1224 89,75.5C 90.113,74.2396 90.2797,73.073 89.5,72C 93.5481,71.8351 96.2148,70.0018 97.5,66.5C 97.2627,65.209 97.596,64.209 98.5,63.5 Z"/></g>
<g><path style="opacity:0.996" fill="#63b9bd" d="M 153.5,100.5 C 152.298,99.5946 150.964,99.5946 149.5,100.5C 146.639,100.487 145.639,99.3207 146.5,97C 144.559,95.1841 143.892,93.1841 144.5,91C 142.519,90.3946 142.185,89.3946 143.5,88C 140.332,86.0101 138.332,83.1768 137.5,79.5C 138.301,77.6473 138.635,75.9806 138.5,74.5C 140.507,73.3215 140.84,73.8215 139.5,76C 140.211,77.2547 141.044,78.4214 142,79.5C 143.666,78.6598 143.833,79.1598 142.5,81C 143.46,82.4194 144.293,83.9194 145,85.5C 145.667,86.8333 146.333,86.8333 147,85.5C 146.392,87.6841 147.059,89.6841 149,91.5C 149.333,91.1667 149.667,90.8333 150,90.5C 149.021,92.2785 149.354,93.9452 151,95.5C 151.667,96.8333 152.333,96.8333 153,95.5C 154.519,97.1392 154.686,98.8058 153.5,100.5 Z"/></g>
<g><path style="opacity:1" fill="#7bc8cd" d="M 129.5,87.5 C 129.81,88.7383 130.31,88.7383 131,87.5C 131.5,88 132,88.5 132.5,89C 132.041,90.9427 133.041,92.276 135.5,93C 134.833,93.3333 134.167,93.6667 133.5,94C 134.667,94.5 135.5,95.3333 136,96.5C 136.273,98.1012 136.773,99.6012 137.5,101C 136.849,102.308 137.515,103.141 139.5,103.5C 138.71,104.401 137.71,105.068 136.5,105.5C 126.448,108.246 116.448,111.246 106.5,114.5C 105.584,114.457 104.917,114.124 104.5,113.5C 104.5,113.167 104.5,112.833 104.5,112.5C 110.527,107.14 116.194,101.473 121.5,95.5C 122.5,93.8333 123.833,92.5 125.5,91.5C 126.473,89.8608 127.806,88.5274 129.5,87.5 Z"/></g>
<g><path style="opacity:1" fill="#9bcecf" d="M 56.5,87.5 C 55.3959,90.9898 56.0626,93.9898 58.5,96.5C 58.2049,99.3525 58.2049,102.186 58.5,105C 57.8333,105.333 57.1667,105.667 56.5,106C 57.3366,107.011 57.67,108.178 57.5,109.5C 57.1667,109.5 56.8333,109.5 56.5,109.5C 53.8103,106.815 50.8103,104.482 47.5,102.5C 47.1961,101.85 46.8627,101.183 46.5,100.5C 48.3102,100.577 49.6435,99.4099 50.5,97C 49.5494,96.2825 49.3828,95.4491 50,94.5C 50.6667,95.8333 51.3333,95.8333 52,94.5C 52,93.1667 52,91.8333 52,90.5C 52.9147,89.6721 53.5814,88.6721 54,87.5C 54.7697,88.5981 55.603,88.5981 56.5,87.5 Z"/></g>
<g><path style="opacity:1" fill="#74c0c3" d="M 153.5,100.5 C 154.315,101.429 155.148,102.429 156,103.5C 156.333,103.167 156.667,102.833 157,102.5C 157.692,103.437 157.525,104.103 156.5,104.5C 154.876,104.64 153.71,103.973 153,102.5C 152.5,103 152,103.5 151.5,104C 152.649,105.604 152.649,107.27 151.5,109C 151.905,109.945 152.572,110.612 153.5,111C 151.699,111.317 151.366,111.984 152.5,113C 149.833,113.667 149.833,114.333 152.5,115C 149.833,115.667 149.833,116.333 152.5,117C 149.258,117.283 148.924,118.117 151.5,119.5C 150.316,121.046 149.316,122.713 148.5,124.5C 147.914,124.291 147.414,123.957 147,123.5C 146.097,124.701 144.931,125.535 143.5,126C 145.878,126.974 145.544,127.641 142.5,128C 143.167,128.333 143.833,128.667 144.5,129C 142.74,129.965 142.406,131.132 143.5,132.5C 146.774,133.013 150.107,134.013 153.5,135.5C 154.808,136.232 156.142,137.066 157.5,138C 156.722,144.77 159.722,147.27 166.5,145.5C 168.883,148.875 171.549,151.875 174.5,154.5C 164.57,149.534 154.903,144.2 145.5,138.5C 144.04,136.537 142.373,134.704 140.5,133C 140.833,132.667 141.167,132.333 141.5,132C 140.09,130.628 138.423,129.795 136.5,129.5C 136.953,128.542 137.619,127.708 138.5,127C 137.366,125.984 137.699,125.317 139.5,125C 138.833,124.667 138.167,124.333 137.5,124C 139.686,122.691 141.853,122.524 144,123.5C 144.707,121.919 145.54,120.419 146.5,119C 147.357,116.197 147.357,113.197 146.5,110C 148.434,108.271 148.434,106.271 146.5,104C 147.712,102.893 147.379,102.393 145.5,102.5C 146.833,101.833 148.167,101.167 149.5,100.5C 150.964,99.5946 152.298,99.5946 153.5,100.5 Z"/></g>
<g><path style="opacity:1" fill="#68bcbf" d="M 156.5,104.5 C 157.072,105.973 157.905,107.307 159,108.5C 159.333,108.167 159.667,107.833 160,107.5C 160.879,109.896 161.546,112.229 162,114.5C 162.667,115.833 163.333,115.833 164,114.5C 163.229,116.18 163.395,117.847 164.5,119.5C 163.178,119.67 162.011,119.337 161,118.5C 160.544,119.744 161.044,120.577 162.5,121C 159.783,121.043 159.116,122.043 160.5,124C 158.481,125.688 156.814,127.688 155.5,130C 155.959,131.943 154.959,133.276 152.5,134C 153.056,134.383 153.389,134.883 153.5,135.5C 150.107,134.013 146.774,133.013 143.5,132.5C 142.406,131.132 142.74,129.965 144.5,129C 143.833,128.667 143.167,128.333 142.5,128C 145.544,127.641 145.878,126.974 143.5,126C 144.931,125.535 146.097,124.701 147,123.5C 147.414,123.957 147.914,124.291 148.5,124.5C 149.316,122.713 150.316,121.046 151.5,119.5C 148.924,118.117 149.258,117.283 152.5,117C 149.833,116.333 149.833,115.667 152.5,115C 149.833,114.333 149.833,113.667 152.5,113C 151.366,111.984 151.699,111.317 153.5,111C 152.572,110.612 151.905,109.945 151.5,109C 152.649,107.27 152.649,105.604 151.5,104C 152,103.5 152.5,103 153,102.5C 153.71,103.973 154.876,104.64 156.5,104.5 Z"/></g>
<g><path style="opacity:1" fill="#7ec7c9" d="M 145.5,102.5 C 147.379,102.393 147.712,102.893 146.5,104C 148.434,106.271 148.434,108.271 146.5,110C 147.357,113.197 147.357,116.197 146.5,119C 145.54,120.419 144.707,121.919 144,123.5C 141.853,122.524 139.686,122.691 137.5,124C 138.167,124.333 138.833,124.667 139.5,125C 137.699,125.317 137.366,125.984 138.5,127C 137.619,127.708 136.953,128.542 136.5,129.5C 134.37,128.968 132.37,128.135 130.5,127C 131.424,126.15 131.424,125.15 130.5,124C 131.01,122.174 131.844,122.007 133,123.5C 135.036,119.052 136.87,114.552 138.5,110C 136.963,108.89 136.297,107.39 136.5,105.5C 137.71,105.068 138.71,104.401 139.5,103.5C 141.565,103.483 143.565,103.15 145.5,102.5 Z"/></g>
<g><path style="opacity:1" fill="#8cced1" d="M 136.5,105.5 C 136.297,107.39 136.963,108.89 138.5,110C 136.87,114.552 135.036,119.052 133,123.5C 131.844,122.007 131.01,122.174 130.5,124C 131.424,125.15 131.424,126.15 130.5,127C 132.37,128.135 134.37,128.968 136.5,129.5C 138.423,129.795 140.09,130.628 141.5,132C 141.167,132.333 140.833,132.667 140.5,133C 142.373,134.704 144.04,136.537 145.5,138.5C 142.07,137.286 138.736,135.786 135.5,134C 129.483,127.65 122.149,123.317 113.5,121C 111.622,119.457 110.122,117.624 109,115.5C 108.667,115.833 108.333,116.167 108,116.5C 106.491,115.91 104.991,115.244 103.5,114.5C 103.624,113.893 103.957,113.56 104.5,113.5C 104.917,114.124 105.584,114.457 106.5,114.5C 116.448,111.246 126.448,108.246 136.5,105.5 Z"/></g>
<g><path style="opacity:1" fill="#85c3c3" d="M 56.5,109.5 C 56.8333,109.5 57.1667,109.5 57.5,109.5C 58.8333,110.833 60.1667,112.167 61.5,113.5C 59.1432,113.337 56.8098,113.503 54.5,114C 55.8333,114.667 55.8333,115.333 54.5,116C 57.1667,116.667 57.1667,117.333 54.5,118C 55.6721,118.419 56.6721,119.085 57.5,120C 56.3595,120.741 56.3595,121.575 57.5,122.5C 56.8848,124.116 55.8848,125.449 54.5,126.5C 55.7111,127.72 55.7111,128.887 54.5,130C 56.3031,130.637 57.6364,131.803 58.5,133.5C 57.0476,134.94 56.0476,136.606 55.5,138.5C 53.3108,140.9 50.6441,142.567 47.5,143.5C 48.6253,141.871 49.9586,140.371 51.5,139C 48.9983,135.667 46.3316,132.501 43.5,129.5C 44.6607,127.817 45.6607,125.984 46.5,124C 45.9777,123.05 45.311,122.216 44.5,121.5C 45.0016,120.284 45.3349,119.117 45.5,118C 43.5981,116.606 43.2647,114.773 44.5,112.5C 48.3474,113.02 52.3474,113.02 56.5,112.5C 56.5,111.5 56.5,110.5 56.5,109.5 Z"/></g>
<g><path style="opacity:1" fill="#95cbcc" d="M 61.5,113.5 C 62.5,114.167 63.5,114.833 64.5,115.5C 65.1667,115.5 65.5,115.833 65.5,116.5C 65.0825,117.222 64.4158,117.722 63.5,118C 64.6721,118.419 65.6721,119.085 66.5,120C 65.1667,121 65.1667,122 66.5,123C 65.1667,123.667 63.8333,124.333 62.5,125C 66.1287,128.326 66.1287,131.493 62.5,134.5C 61.3634,135.789 60.0301,136.789 58.5,137.5C 57.391,137.557 56.391,137.89 55.5,138.5C 56.0476,136.606 57.0476,134.94 58.5,133.5C 57.6364,131.803 56.3031,130.637 54.5,130C 55.7111,128.887 55.7111,127.72 54.5,126.5C 55.8848,125.449 56.8848,124.116 57.5,122.5C 56.3595,121.575 56.3595,120.741 57.5,120C 56.6721,119.085 55.6721,118.419 54.5,118C 57.1667,117.333 57.1667,116.667 54.5,116C 55.8333,115.333 55.8333,114.667 54.5,114C 56.8098,113.503 59.1432,113.337 61.5,113.5 Z"/></g>
<g><path style="opacity:1" fill="#c5e2e4" d="M 73.5,103.5 C 76.3777,105.105 79.3777,106.439 82.5,107.5C 86.5102,110.127 90.8435,112.294 95.5,114C 96.2524,114.671 96.5858,115.504 96.5,116.5C 95.5,116.5 94.5,116.5 93.5,116.5C 86.3451,115.345 79.0118,115.178 71.5,116C 72.6721,116.419 73.6721,117.085 74.5,118C 73.1667,119 73.1667,120 74.5,121C 76.5767,121.192 78.5767,121.692 80.5,122.5C 79.7366,123.719 78.7366,124.719 77.5,125.5C 78.056,126.663 78.3893,127.663 78.5,128.5C 76.3428,130.412 74.0094,132.079 71.5,133.5C 65.9849,136.423 60.3182,139.09 54.5,141.5C 55.8333,140.167 57.1667,138.833 58.5,137.5C 60.0301,136.789 61.3634,135.789 62.5,134.5C 66.3398,132.189 70.3398,130.023 74.5,128C 75.3567,127.311 76.0233,126.478 76.5,125.5C 73.1294,122.129 69.4627,119.129 65.5,116.5C 65.5,115.833 65.1667,115.5 64.5,115.5C 67.6504,114.958 70.6504,113.791 73.5,112C 72.3931,109.469 72.3931,106.636 73.5,103.5 Z"/></g>
<g><path style="opacity:1" fill="#71baba" d="M 47.5,102.5 C 50.8103,104.482 53.8103,106.815 56.5,109.5C 56.5,110.5 56.5,111.5 56.5,112.5C 52.3474,113.02 48.3474,113.02 44.5,112.5C 43.2647,114.773 43.5981,116.606 45.5,118C 45.3349,119.117 45.0016,120.284 44.5,121.5C 45.311,122.216 45.9777,123.05 46.5,124C 45.6607,125.984 44.6607,127.817 43.5,129.5C 41.2496,127.756 39.0829,125.756 37,123.5C 36.4666,125.939 35.3,126.605 33.5,125.5C 32.9569,125.44 32.6236,125.107 32.5,124.5C 34.3102,124.577 35.6435,123.41 36.5,121C 35.4652,119.493 35.6319,117.993 37,116.5C 37.3333,116.833 37.6667,117.167 38,117.5C 39.9414,115.684 40.6081,113.684 40,111.5C 40.3333,111.833 40.6667,112.167 41,112.5C 42.9414,110.684 43.6081,108.684 43,106.5C 43.3333,106.833 43.6667,107.167 44,107.5C 45.1889,105.767 46.3556,104.1 47.5,102.5 Z"/></g>
<g><path style="opacity:1" fill="#d4ebec" d="M 93.5,116.5 C 90.2213,120.061 85.888,123.061 80.5,125.5C 79.2267,126.257 79.2267,126.923 80.5,127.5C 80.1583,128.338 79.4916,128.672 78.5,128.5C 78.3893,127.663 78.056,126.663 77.5,125.5C 78.7366,124.719 79.7366,123.719 80.5,122.5C 78.5767,121.692 76.5767,121.192 74.5,121C 73.1667,120 73.1667,119 74.5,118C 73.6721,117.085 72.6721,116.419 71.5,116C 79.0118,115.178 86.3451,115.345 93.5,116.5 Z"/></g>
<g><path style="opacity:1" fill="#7dbebe" d="M 100.5,117.5 C 102.553,117.402 104.22,118.069 105.5,119.5C 104.833,119.5 104.5,119.833 104.5,120.5C 103.609,119.89 102.609,119.557 101.5,119.5C 100.833,119.5 100.5,119.833 100.5,120.5C 90.9453,125.111 81.2786,129.445 71.5,133.5C 74.0094,132.079 76.3428,130.412 78.5,128.5C 79.4916,128.672 80.1583,128.338 80.5,127.5C 87.1667,124.167 93.8333,120.833 100.5,117.5 Z"/></g>
<g><path style="opacity:1" fill="#75b5a9" d="M 104.5,120.5 C 104.5,119.833 104.833,119.5 105.5,119.5C 113.147,123.98 120.814,128.313 128.5,132.5C 122.927,131.043 117.594,129.043 112.5,126.5C 109.857,124.531 107.19,122.531 104.5,120.5 Z"/></g>
<g><path style="opacity:1" fill="#5ba6a0" d="M 101.5,119.5 C 102.087,128.872 103.087,137.872 104.5,146.5C 103.833,146.5 103.5,146.833 103.5,147.5C 101.7,148.605 100.533,147.939 100,145.5C 99.6667,146.167 99.3333,146.833 99,147.5C 98.2917,146.619 97.4584,145.953 96.5,145.5C 96.1667,144.833 95.8333,144.167 95.5,143.5C 97.4769,136.318 99.1436,128.651 100.5,120.5C 100.5,119.833 100.833,119.5 101.5,119.5 Z"/></g>
<g><path style="opacity:1" fill="#a3d2d3" d="M 65.5,116.5 C 69.4627,119.129 73.1294,122.129 76.5,125.5C 76.0233,126.478 75.3567,127.311 74.5,128C 70.3398,130.023 66.3398,132.189 62.5,134.5C 66.1287,131.493 66.1287,128.326 62.5,125C 63.8333,124.333 65.1667,123.667 66.5,123C 65.1667,122 65.1667,121 66.5,120C 65.6721,119.085 64.6721,118.419 63.5,118C 64.4158,117.722 65.0825,117.222 65.5,116.5 Z"/></g>
<g><path style="opacity:1" fill="#5dacae" d="M 101.5,119.5 C 102.609,119.557 103.609,119.89 104.5,120.5C 107.19,122.531 109.857,124.531 112.5,126.5C 115.833,130.167 119.167,133.833 122.5,137.5C 123.412,138.738 123.579,140.072 123,141.5C 122.667,140.833 122.333,140.167 122,139.5C 121.292,140.381 120.458,141.047 119.5,141.5C 115.266,135.338 110.433,129.005 105,122.5C 107.233,129.782 110.066,136.449 113.5,142.5C 112.402,143.397 112.402,144.23 113.5,145C 112.069,145.465 110.903,146.299 110,147.5C 109.085,146.672 108.419,145.672 108,144.5C 107.667,145.167 107.333,145.833 107,146.5C 106.23,145.402 105.397,145.402 104.5,146.5C 103.087,137.872 102.087,128.872 101.5,119.5 Z"/></g>
<g><path style="opacity:1" fill="#59b3b7" d="M 164.5,119.5 C 165.397,120.598 166.23,120.598 167,119.5C 167.419,120.672 168.085,121.672 169,122.5C 169.492,123.549 169.326,124.549 168.5,125.5C 169.035,127.271 169.869,127.604 171,126.5C 170.229,128.18 170.395,129.847 171.5,131.5C 170.504,131.414 169.671,131.748 169,132.5C 168.086,134.664 166.919,136.664 165.5,138.5C 166.682,140.761 168.349,142.595 170.5,144C 169.292,144.921 167.958,145.421 166.5,145.5C 159.722,147.27 156.722,144.77 157.5,138C 156.142,137.066 154.808,136.232 153.5,135.5C 153.389,134.883 153.056,134.383 152.5,134C 154.959,133.276 155.959,131.943 155.5,130C 156.814,127.688 158.481,125.688 160.5,124C 159.116,122.043 159.783,121.043 162.5,121C 161.044,120.577 160.544,119.744 161,118.5C 162.011,119.337 163.178,119.67 164.5,119.5 Z"/></g>
<g><path style="opacity:1" fill="#61b2b2" d="M 43.5,129.5 C 46.3316,132.501 48.9983,135.667 51.5,139C 49.9586,140.371 48.6253,141.871 47.5,143.5C 43.7334,142.926 40.7334,144.093 38.5,147C 37.552,147.483 36.552,147.649 35.5,147.5C 37.4061,142.038 35.9061,137.371 31,133.5C 30.2515,135.332 29.2515,136.999 28,138.5C 27.6174,137.944 27.1174,137.611 26.5,137.5C 25.9569,137.44 25.6236,137.107 25.5,136.5C 27.3102,136.577 28.6435,135.41 29.5,133C 28.4652,131.493 28.6319,129.993 30,128.5C 30.3333,128.833 30.6667,129.167 31,129.5C 32.0946,128.307 32.928,126.973 33.5,125.5C 35.3,126.605 36.4666,125.939 37,123.5C 39.0829,125.756 41.2496,127.756 43.5,129.5 Z"/></g>
<g><path style="opacity:1" fill="#5aa59c" d="M 112.5,126.5 C 117.594,129.043 122.927,131.043 128.5,132.5C 131.167,134.5 133.833,136.5 136.5,138.5C 133.523,137.929 130.69,136.929 128,135.5C 126.448,135.011 125.281,135.678 124.5,137.5C 123.833,137.5 123.167,137.5 122.5,137.5C 119.167,133.833 115.833,130.167 112.5,126.5 Z"/></g>
<g><path style="opacity:1" fill="#61adb0" d="M 100.5,120.5 C 99.1436,128.651 97.4769,136.318 95.5,143.5C 91.8545,141.772 88.6878,140.105 86,138.5C 85.6667,138.833 85.3333,139.167 85,139.5C 83.2672,136.524 81.1005,134.524 78.5,133.5C 73.0562,133.894 68.3895,135.894 64.5,139.5C 62.1815,139.992 60.1815,140.992 58.5,142.5C 54.6429,143.704 51.3096,145.704 48.5,148.5C 42.5429,150.476 37.2096,153.476 32.5,157.5C 27.8438,159.16 23.1772,160.826 18.5,162.5C 30.5,155.5 42.5,148.5 54.5,141.5C 60.3182,139.09 65.9849,136.423 71.5,133.5C 81.2786,129.445 90.9453,125.111 100.5,120.5 Z"/></g>
<g><path style="opacity:1" fill="#5aaeae" d="M 35.5,147.5 C 31.328,151.758 26.328,154.758 20.5,156.5C 19.7025,156.957 19.3691,157.624 19.5,158.5C 17.5395,160.312 15.2061,161.312 12.5,161.5C 11.9569,161.44 11.6236,161.107 11.5,160.5C 12.2472,160.264 13.0805,159.93 14,159.5C 14,158.167 14,156.833 14,155.5C 14.9147,154.672 15.5814,153.672 16,152.5C 16.6667,153.833 17.3333,153.833 18,152.5C 19.6458,150.945 19.9791,149.279 19,147.5C 20.1313,148.604 20.9646,148.271 21.5,146.5C 20.6744,145.549 20.5078,144.549 21,143.5C 23.3176,142.471 25.151,140.471 26.5,137.5C 27.1174,137.611 27.6174,137.944 28,138.5C 29.2515,136.999 30.2515,135.332 31,133.5C 35.9061,137.371 37.4061,142.038 35.5,147.5 Z"/></g>
<g><path style="opacity:1" fill="#acd9db" d="M 103.5,91.5 C 104.387,98.4961 104.72,105.496 104.5,112.5C 104.5,112.833 104.5,113.167 104.5,113.5C 103.957,113.56 103.624,113.893 103.5,114.5C 104.991,115.244 106.491,115.91 108,116.5C 108.333,116.167 108.667,115.833 109,115.5C 110.122,117.624 111.622,119.457 113.5,121C 122.149,123.317 129.483,127.65 135.5,134C 138.736,135.786 142.07,137.286 145.5,138.5C 154.903,144.2 164.57,149.534 174.5,154.5C 179.016,157.927 184.016,160.593 189.5,162.5C 189.631,163.376 189.298,164.043 188.5,164.5C 168.717,153.374 148.717,142.707 128.5,132.5C 120.814,128.313 113.147,123.98 105.5,119.5C 104.22,118.069 102.553,117.402 100.5,117.5C 101.43,113.6 101.763,109.6 101.5,105.5C 102.422,101.005 103.089,96.3384 103.5,91.5 Z"/></g>
<g><path style="opacity:1" fill="#4fa4a8" d="M 95.5,143.5 C 95.8333,144.167 96.1667,144.833 96.5,145.5C 95.0549,147.571 94.0549,149.904 93.5,152.5C 91.229,151.001 89.0623,150.001 87,149.5C 85.4345,150.061 84.1011,149.394 83,147.5C 82.6667,147.833 82.3333,148.167 82,148.5C 78.0021,145.007 73.8354,141.674 69.5,138.5C 67.8653,139.046 66.1986,139.38 64.5,139.5C 68.3895,135.894 73.0562,133.894 78.5,133.5C 81.1005,134.524 83.2672,136.524 85,139.5C 85.3333,139.167 85.6667,138.833 86,138.5C 88.6878,140.105 91.8545,141.772 95.5,143.5 Z"/></g>
<g><path style="opacity:1" fill="#58a49d" d="M 119.5,141.5 C 119.5,141.833 119.5,142.167 119.5,142.5C 118.768,143.808 117.934,145.142 117,146.5C 116.617,145.944 116.117,145.611 115.5,145.5C 114.833,144.5 114.167,143.5 113.5,142.5C 110.066,136.449 107.233,129.782 105,122.5C 110.433,129.005 115.266,135.338 119.5,141.5 Z"/></g>
<g><path style="opacity:1" fill="#4a9c8e" d="M 136.5,138.5 C 140.173,140 143.506,142 146.5,144.5C 144.095,144.134 141.762,143.467 139.5,142.5C 137.655,143.938 136.489,143.604 136,141.5C 135.623,142.942 134.79,143.942 133.5,144.5C 132.833,144.5 132.167,144.5 131.5,144.5C 129.473,141.806 127.139,139.473 124.5,137.5C 125.281,135.678 126.448,135.011 128,135.5C 130.69,136.929 133.523,137.929 136.5,138.5 Z"/></g>
<g><path style="opacity:1" fill="#449fa1" d="M 93.5,152.5 C 93.634,154.292 93.3007,155.958 92.5,157.5C 91.1751,158.953 90.3418,158.619 90,156.5C 89.6667,156.833 89.3333,157.167 89,157.5C 85.8491,155.625 82.5158,153.959 79,152.5C 78.6667,152.833 78.3333,153.167 78,153.5C 74.6667,150.835 71.3333,147.502 68,143.5C 67.6667,143.833 67.3333,144.167 67,144.5C 66.6667,143.5 66.3333,142.5 66,141.5C 63.7535,141.779 61.2535,142.113 58.5,142.5C 60.1815,140.992 62.1815,139.992 64.5,139.5C 66.1986,139.38 67.8653,139.046 69.5,138.5C 73.8354,141.674 78.0021,145.007 82,148.5C 82.3333,148.167 82.6667,147.833 83,147.5C 84.1011,149.394 85.4345,150.061 87,149.5C 89.0623,150.001 91.229,151.001 93.5,152.5 Z"/></g>
<g><path style="opacity:1" fill="#39999b" d="M 92.5,157.5 C 92.3259,159.861 91.9926,162.194 91.5,164.5C 96.5111,164.666 101.511,164.499 106.5,164C 105.289,158.463 104.289,152.963 103.5,147.5C 103.5,146.833 103.833,146.5 104.5,146.5C 105.397,145.402 106.23,145.402 107,146.5C 107.333,145.833 107.667,145.167 108,144.5C 108.419,145.672 109.085,146.672 110,147.5C 110.903,146.299 112.069,145.465 113.5,145C 112.402,144.23 112.402,143.397 113.5,142.5C 114.167,143.5 114.833,144.5 115.5,145.5C 116.617,149.734 118.284,153.734 120.5,157.5C 122.06,159.954 123.06,162.62 123.5,165.5C 102.833,165.5 82.1667,165.5 61.5,165.5C 64.8973,164.802 68.3973,164.135 72,163.5C 72.9138,164.654 73.7471,164.487 74.5,163C 73.5305,161.242 72.3639,160.742 71,161.5C 70.0853,160.672 69.4186,159.672 69,158.5C 68.6667,159.167 68.3333,159.833 68,160.5C 67.1628,158.156 65.8294,156.156 64,154.5C 63.6667,154.833 63.3333,155.167 63,155.5C 61.6667,153.833 60.3333,152.167 59,150.5C 58.6667,151.167 58.3333,151.833 58,152.5C 56.6667,150.5 55.3333,148.5 54,146.5C 52.4157,147.861 50.5824,148.528 48.5,148.5C 51.3096,145.704 54.6429,143.704 58.5,142.5C 61.2535,142.113 63.7535,141.779 66,141.5C 66.3333,142.5 66.6667,143.5 67,144.5C 67.3333,144.167 67.6667,143.833 68,143.5C 71.3333,147.502 74.6667,150.835 78,153.5C 78.3333,153.167 78.6667,152.833 79,152.5C 82.5158,153.959 85.8491,155.625 89,157.5C 89.3333,157.167 89.6667,156.833 90,156.5C 90.3418,158.619 91.1751,158.953 92.5,157.5 Z"/></g>
<g><path style="opacity:1" fill="#47a3a1" d="M 122.5,137.5 C 123.167,137.5 123.833,137.5 124.5,137.5C 127.139,139.473 129.473,141.806 131.5,144.5C 131.815,146.226 131.981,147.893 132,149.5C 131.586,149.043 131.086,148.709 130.5,148.5C 129.476,149.853 128.143,150.52 126.5,150.5C 124.167,147.833 121.833,145.167 119.5,142.5C 119.5,142.167 119.5,141.833 119.5,141.5C 120.458,141.047 121.292,140.381 122,139.5C 122.333,140.167 122.667,140.833 123,141.5C 123.579,140.072 123.412,138.738 122.5,137.5 Z"/></g>
<g><path style="opacity:1" fill="#55adb0" d="M 171.5,131.5 C 172.397,132.598 173.23,132.598 174,131.5C 174.635,132.966 175.469,134.3 176.5,135.5C 175.674,136.451 175.508,137.451 176,138.5C 176.667,139.833 177.333,139.833 178,138.5C 177.021,140.279 177.354,141.945 179,143.5C 179.667,144.833 180.333,144.833 181,143.5C 181.635,144.966 182.469,146.3 183.5,147.5C 182.674,148.451 182.508,149.451 183,150.5C 183.667,151.833 184.333,151.833 185,150.5C 184.021,152.279 184.354,153.945 186,155.5C 186.667,156.833 187.333,156.833 188,155.5C 188.419,156.672 189.085,157.672 190,158.5C 190.195,159.819 190.028,161.153 189.5,162.5C 184.016,160.593 179.016,157.927 174.5,154.5C 171.549,151.875 168.883,148.875 166.5,145.5C 167.958,145.421 169.292,144.921 170.5,144C 168.349,142.595 166.682,140.761 165.5,138.5C 166.919,136.664 168.086,134.664 169,132.5C 169.671,131.748 170.504,131.414 171.5,131.5 Z"/></g>
<g><path style="opacity:1" fill="#2c8c7d" d="M 146.5,144.5 C 151.02,146.591 155.353,148.925 159.5,151.5C 159.833,152.167 160.167,152.833 160.5,153.5C 159.178,153.67 158.011,153.337 157,152.5C 156.383,153.449 156.549,154.282 157.5,155C 156.107,157.178 154.44,158.178 152.5,158C 152.833,158.333 153.167,158.667 153.5,159C 152.619,159.708 151.953,160.542 151.5,161.5C 145.172,156.171 139.172,150.505 133.5,144.5C 134.79,143.942 135.623,142.942 136,141.5C 136.489,143.604 137.655,143.938 139.5,142.5C 141.762,143.467 144.095,144.134 146.5,144.5 Z"/></g>
<g><path style="opacity:1" fill="#7dbfbf" d="M 47.5,143.5 C 38.4631,148.827 29.1297,153.827 19.5,158.5C 19.3691,157.624 19.7025,156.957 20.5,156.5C 26.328,154.758 31.328,151.758 35.5,147.5C 36.552,147.649 37.552,147.483 38.5,147C 40.7334,144.093 43.7334,142.926 47.5,143.5 Z"/></g>
<g><path style="opacity:1" fill="#419892" d="M 119.5,142.5 C 121.833,145.167 124.167,147.833 126.5,150.5C 127.6,151.605 128.267,152.938 128.5,154.5C 126.589,154.574 125.422,155.574 125,157.5C 124.581,156.328 123.915,155.328 123,154.5C 122.383,155.449 122.549,156.282 123.5,157C 122.552,157.483 121.552,157.649 120.5,157.5C 118.284,153.734 116.617,149.734 115.5,145.5C 116.117,145.611 116.617,145.944 117,146.5C 117.934,145.142 118.768,143.808 119.5,142.5 Z"/></g>
<g><path style="opacity:1" fill="#268f92" d="M 61.5,165.5 C 55.31,165.823 49.31,165.49 43.5,164.5C 45.2012,164.034 46.7012,164.034 48,164.5C 49.9817,162.754 49.815,161.421 47.5,160.5C 46.7022,158.922 46.2022,157.256 46,155.5C 45.6667,156.5 45.3333,157.5 45,158.5C 44.5291,156.754 43.8624,155.087 43,153.5C 39.4867,154.947 35.9867,156.28 32.5,157.5C 37.2096,153.476 42.5429,150.476 48.5,148.5C 50.5824,148.528 52.4157,147.861 54,146.5C 55.3333,148.5 56.6667,150.5 58,152.5C 58.3333,151.833 58.6667,151.167 59,150.5C 60.3333,152.167 61.6667,153.833 63,155.5C 63.3333,155.167 63.6667,154.833 64,154.5C 65.8294,156.156 67.1628,158.156 68,160.5C 68.3333,159.833 68.6667,159.167 69,158.5C 69.4186,159.672 70.0853,160.672 71,161.5C 72.3639,160.742 73.5305,161.242 74.5,163C 73.7471,164.487 72.9138,164.654 72,163.5C 68.3973,164.135 64.8973,164.802 61.5,165.5 Z"/></g>
<g><path style="opacity:1" fill="#3f9792" d="M 96.5,145.5 C 97.4584,145.953 98.2917,146.619 99,147.5C 99.3333,146.833 99.6667,146.167 100,145.5C 100.533,147.939 101.7,148.605 103.5,147.5C 104.289,152.963 105.289,158.463 106.5,164C 101.511,164.499 96.5111,164.666 91.5,164.5C 91.9926,162.194 92.3259,159.861 92.5,157.5C 93.3007,155.958 93.634,154.292 93.5,152.5C 94.0549,149.904 95.0549,147.571 96.5,145.5 Z"/></g>
<g><path style="opacity:1" fill="#1b8474" d="M 160.5,153.5 C 167.76,156.593 174.76,160.259 181.5,164.5C 173.016,165.493 164.349,165.826 155.5,165.5C 154.473,163.806 153.139,162.473 151.5,161.5C 151.953,160.542 152.619,159.708 153.5,159C 153.167,158.667 152.833,158.333 152.5,158C 154.44,158.178 156.107,157.178 157.5,155C 156.549,154.282 156.383,153.449 157,152.5C 158.011,153.337 159.178,153.67 160.5,153.5 Z"/></g>
<g><path style="opacity:1" fill="#1f8a8e" d="M 43.5,164.5 C 35.1923,165.396 26.5256,165.729 17.5,165.5C 18.1098,164.609 18.4431,163.609 18.5,162.5C 23.1772,160.826 27.8438,159.16 32.5,157.5C 35.9867,156.28 39.4867,154.947 43,153.5C 43.8624,155.087 44.5291,156.754 45,158.5C 45.3333,157.5 45.6667,156.5 46,155.5C 46.2022,157.256 46.7022,158.922 47.5,160.5C 49.815,161.421 49.9817,162.754 48,164.5C 46.7012,164.034 45.2012,164.034 43.5,164.5 Z"/></g>
<g><path style="opacity:1" fill="#459fa0" d="M 159.5,151.5 C 167.473,154.81 175.14,158.81 182.5,163.5C 183.298,163.957 183.631,164.624 183.5,165.5C 182.833,165.167 182.167,164.833 181.5,164.5C 174.76,160.259 167.76,156.593 160.5,153.5C 160.167,152.833 159.833,152.167 159.5,151.5 Z"/></g>
<g><path style="opacity:1" fill="#2c9493" d="M 131.5,144.5 C 132.167,144.5 132.833,144.5 133.5,144.5C 139.172,150.505 145.172,156.171 151.5,161.5C 153.139,162.473 154.473,163.806 155.5,165.5C 148.605,166.072 141.938,165.238 135.5,163C 133.302,159.977 130.969,157.144 128.5,154.5C 128.267,152.938 127.6,151.605 126.5,150.5C 128.143,150.52 129.476,149.853 130.5,148.5C 131.086,148.709 131.586,149.043 132,149.5C 131.981,147.893 131.815,146.226 131.5,144.5 Z"/></g>
<g><path style="opacity:1" fill="#b5dadb" d="M 58.5,137.5 C 57.1667,138.833 55.8333,140.167 54.5,141.5C 42.5,148.5 30.5,155.5 18.5,162.5C 15.7052,163.063 13.3718,164.396 11.5,166.5C 10.9569,166.44 10.6236,166.107 10.5,165.5C 11.1799,164.14 11.8466,162.807 12.5,161.5C 15.2061,161.312 17.5395,160.312 19.5,158.5C 29.1297,153.827 38.4631,148.827 47.5,143.5C 50.6441,142.567 53.3108,140.9 55.5,138.5C 56.391,137.89 57.391,137.557 58.5,137.5 Z"/></g>
<g><path style="opacity:1" fill="#76bcbc" d="M 128.5,132.5 C 148.717,142.707 168.717,153.374 188.5,164.5C 189.298,164.043 189.631,163.376 189.5,162.5C 190.167,162.833 190.833,163.167 191.5,163.5C 191.64,165.124 190.973,166.29 189.5,167C 190.167,167.333 190.833,167.667 191.5,168C 189.866,168.494 188.199,168.66 186.5,168.5C 188.031,167.075 187.698,166.409 185.5,166.5C 185.158,165.662 184.492,165.328 183.5,165.5C 183.631,164.624 183.298,163.957 182.5,163.5C 175.14,158.81 167.473,154.81 159.5,151.5C 155.353,148.925 151.02,146.591 146.5,144.5C 143.506,142 140.173,140 136.5,138.5C 133.833,136.5 131.167,134.5 128.5,132.5 Z"/></g>
<g><path style="opacity:0.012" fill="#8bdadb" d="M 191.5,162.5 C 192.833,163.167 192.833,163.167 191.5,162.5 Z"/></g>
<g><path style="opacity:1" fill="#5faeb0" d="M 18.5,162.5 C 18.4431,163.609 18.1098,164.609 17.5,165.5C 16.209,165.263 15.209,165.596 14.5,166.5C 13.609,167.11 12.609,167.443 11.5,167.5C 11.5,167.167 11.5,166.833 11.5,166.5C 13.3718,164.396 15.7052,163.063 18.5,162.5 Z"/></g>
<g><path style="opacity:0.012" fill="#8bdadb" d="M 192.5,164.5 C 193.833,165.167 193.833,165.167 192.5,164.5 Z"/></g>
<g><path style="opacity:0.012" fill="#57a6a7" d="M 8.5,164.5 C 9.52502,164.897 9.69169,165.563 9,166.5C 8.53566,165.906 8.36899,165.239 8.5,164.5 Z"/></g>
<g><path style="opacity:0.467" fill="#268d8a" d="M 128.5,154.5 C 130.969,157.144 133.302,159.977 135.5,163C 141.938,165.238 148.605,166.072 155.5,165.5C 164.349,165.826 173.016,165.493 181.5,164.5C 182.167,164.833 182.833,165.167 183.5,165.5C 184.492,165.328 185.158,165.662 185.5,166.5C 128.5,166.5 71.5,166.5 14.5,166.5C 15.209,165.596 16.209,165.263 17.5,165.5C 26.5256,165.729 35.1923,165.396 43.5,164.5C 49.31,165.49 55.31,165.823 61.5,165.5C 82.1667,165.5 102.833,165.5 123.5,165.5C 123.06,162.62 122.06,159.954 120.5,157.5C 121.552,157.649 122.552,157.483 123.5,157C 122.549,156.282 122.383,155.449 123,154.5C 123.915,155.328 124.581,156.328 125,157.5C 125.422,155.574 126.589,154.574 128.5,154.5 Z"/></g>
<g><path style="opacity:0.012" fill="#8bdadb" d="M 14.5,166.5 C 15.209,167.404 16.209,167.737 17.5,167.5C 17.5,167.833 17.5,168.167 17.5,168.5C 14.6591,168.847 12.6591,168.513 11.5,167.5C 12.609,167.443 13.609,167.11 14.5,166.5 Z"/></g>
<g><path style="opacity:0.012" fill="#3e8f8f" d="M 185.5,166.5 C 187.698,166.409 188.031,167.075 186.5,168.5C 165.953,169.047 144.953,169.047 123.5,168.5C 123.5,168.167 123.5,167.833 123.5,167.5C 144.34,167.831 165.007,167.497 185.5,166.5 Z"/></g>
<g><path style="opacity:0.012" fill="#3f9090" d="M 17.5,167.5 C 34.5,167.5 51.5,167.5 68.5,167.5C 68.5,167.833 68.5,168.167 68.5,168.5C 51.0865,168.58 34.0865,168.58 17.5,168.5C 17.5,168.167 17.5,167.833 17.5,167.5 Z"/></g>
<g><path style="opacity:0.012" fill="#84d3d4" d="M 68.5,168.5 C 68.5,168.167 68.5,167.833 68.5,167.5C 76.5,167.5 84.5,167.5 92.5,167.5C 92.5,167.833 92.5,168.167 92.5,168.5C 84.4664,168.7 76.4664,168.7 68.5,168.5 Z"/></g>
<g><path style="opacity:0.012" fill="#6fbdbf" d="M 92.5,168.5 C 92.5,168.167 92.5,167.833 92.5,167.5C 102.833,167.5 113.167,167.5 123.5,167.5C 123.5,167.833 123.5,168.167 123.5,168.5C 113.334,168.611 103.001,168.611 92.5,168.5 Z"/></g>
</svg>
